<?xml version="1.0" encoding="UTF-8" standalone="no"?>
<!-- Created with Inkscape (http://www.inkscape.org/) -->
<svg
   xmlns:dc="http://purl.org/dc/elements/1.1/"
   xmlns:cc="http://creativecommons.org/ns#"
   xmlns:rdf="http://www.w3.org/1999/02/22-rdf-syntax-ns#"
   xmlns:svg="http://www.w3.org/2000/svg"
   xmlns="http://www.w3.org/2000/svg"
   xmlns:xlink="http://www.w3.org/1999/xlink"
   xmlns:sodipodi="http://sodipodi.sourceforge.net/DTD/sodipodi-0.dtd"
   xmlns:inkscape="http://www.inkscape.org/namespaces/inkscape"
   width="210mm"
   height="297mm"
   id="svg2"
   sodipodi:version="0.32"
   inkscape:version="0.45+devel"
   sodipodi:docname="desenho.svg"
   inkscape:output_extension="org.inkscape.output.svg.inkscape">
  <defs
     id="defs4">
    <linearGradient
       inkscape:collect="always"
       id="linearGradient3454">
      <stop
         style="stop-color:#eeeeec;stop-opacity:1;"
         offset="0"
         id="stop3456" />
      <stop
         style="stop-color:#eeeeec;stop-opacity:0;"
         offset="1"
         id="stop3458" />
    </linearGradient>
    <linearGradient
       inkscape:collect="always"
       id="linearGradient3412">
      <stop
         style="stop-color:#bcc6d4;stop-opacity:1;"
         offset="0"
         id="stop3414" />
      <stop
         id="stop3416"
         offset="0.37593597"
         style="stop-color:#bdc7d4;stop-opacity:1;" />
      <stop
         id="stop3418"
         offset="0.62556159"
         style="stop-color:#c5cdd8;stop-opacity:1;" />
      <stop
         style="stop-color:#eeeeec;stop-opacity:0"
         offset="1"
         id="stop3420" />
    </linearGradient>
    <linearGradient
       id="linearGradient4658"
       inkscape:collect="always">
      <stop
         id="stop4660"
         offset="0"
         style="stop-color:#bcc6d4;stop-opacity:1;" />
      <stop
         style="stop-color:#bdc7d4;stop-opacity:1;"
         offset="0.37593597"
         id="stop4668" />
      <stop
         style="stop-color:#c5cdd8;stop-opacity:1;"
         offset="0.81385881"
         id="stop4666" />
      <stop
         id="stop4664"
         offset="1"
         style="stop-color:#eeeeec;stop-opacity:1" />
    </linearGradient>
    <linearGradient
       inkscape:collect="always"
       id="linearGradient4646">
      <stop
         style="stop-color:#2e3436;stop-opacity:1;"
         offset="0"
         id="stop4648" />
      <stop
         style="stop-color:#2e3436;stop-opacity:0;"
         offset="1"
         id="stop4650" />
    </linearGradient>
    <linearGradient
       inkscape:collect="always"
       id="linearGradient3784">
      <stop
         style="stop-color:#bcc6d4;stop-opacity:1;"
         offset="0"
         id="stop3786" />
      <stop
         id="stop4654"
         offset="0.40218514"
         style="stop-color:#bcc6d4;stop-opacity:0.59607843;" />
      <stop
         style="stop-color:#bcc6d4;stop-opacity:0;"
         offset="1"
         id="stop3788" />
    </linearGradient>
    <linearGradient
       inkscape:collect="always"
       id="linearGradient3366">
      <stop
         style="stop-color:#2e3436;stop-opacity:1;"
         offset="0"
         id="stop3368" />
      <stop
         style="stop-color:#2e3436;stop-opacity:0;"
         offset="1"
         id="stop3370" />
    </linearGradient>
    <linearGradient
       inkscape:collect="always"
       id="linearGradient5236">
      <stop
         style="stop-color:#ffffff;stop-opacity:1;"
         offset="0"
         id="stop5238" />
      <stop
         style="stop-color:#ffffff;stop-opacity:0;"
         offset="1"
         id="stop5240" />
    </linearGradient>
    <linearGradient
       inkscape:collect="always"
       id="linearGradient4831">
      <stop
         style="stop-color:#eeeeec;stop-opacity:1;"
         offset="0"
         id="stop4833" />
      <stop
         style="stop-color:#eeeeec;stop-opacity:0;"
         offset="1"
         id="stop4835" />
    </linearGradient>
    <linearGradient
       inkscape:collect="always"
       id="linearGradient2455">
      <stop
         style="stop-color:#eeeeec;stop-opacity:1;"
         offset="0"
         id="stop2457" />
      <stop
         style="stop-color:#eeeeec;stop-opacity:0;"
         offset="1"
         id="stop2459" />
    </linearGradient>
    <linearGradient
       inkscape:collect="always"
       xlink:href="#linearGradient2455"
       id="linearGradient2461"
       x1="66.904358"
       y1="70.883896"
       x2="66.904358"
       y2="121.3817"
       gradientUnits="userSpaceOnUse" />
    <marker
       orient="auto"
       markerHeight="3"
       markerWidth="4"
       markerUnits="strokeWidth"
       refY="5"
       refX="10"
       viewBox="0 0 10 10"
       id="ArrowStart">
      <path
         id="path2327"
         d="M 10 0 L 0 5 L 10 10 z" />
    </marker>
    <marker
       orient="auto"
       markerHeight="3"
       markerWidth="4"
       markerUnits="strokeWidth"
       refY="5"
       refX="0"
       viewBox="0 0 10 10"
       id="ArrowEnd">
      <path
         id="path2324"
         d="M 0 0 L 10 5 L 0 10 z" />
    </marker>
    <filter
       inkscape:collect="always"
       id="filter4414">
      <feGaussianBlur
         inkscape:collect="always"
         stdDeviation="0.58699111"
         id="feGaussianBlur4416" />
    </filter>
    <linearGradient
       inkscape:collect="always"
       xlink:href="#linearGradient4831"
       id="linearGradient4837"
       x1="106.00422"
       y1="110.02039"
       x2="106.00422"
       y2="82.238739"
       gradientUnits="userSpaceOnUse"
       gradientTransform="matrix(0.6831298,0,0,0.6831298,-11.6,-37.537753)" />
    <linearGradient
       inkscape:collect="always"
       xlink:href="#linearGradient5236"
       id="linearGradient5242"
       x1="56.767284"
       y1="96.586464"
       x2="56.920799"
       y2="70.519852"
       gradientUnits="userSpaceOnUse" />
    <linearGradient
       inkscape:collect="always"
       xlink:href="#linearGradient3366"
       id="linearGradient3372"
       x1="29.315084"
       y1="-8.8906727"
       x2="29.315084"
       y2="30.134764"
       gradientUnits="userSpaceOnUse"
       gradientTransform="matrix(1,0,0,0.5510018,0,-6.4250303)" />
    <linearGradient
       inkscape:collect="always"
       xlink:href="#linearGradient3784"
       id="linearGradient3790"
       x1="200"
       y1="34.362183"
       x2="200"
       y2="12.802794"
       gradientUnits="userSpaceOnUse"
       gradientTransform="matrix(1,0,0,1.2086047,0,-2.6884638)" />
    <filter
       inkscape:collect="always"
       id="filter4622">
      <feGaussianBlur
         inkscape:collect="always"
         stdDeviation="3.5205676"
         id="feGaussianBlur4624" />
    </filter>
    <linearGradient
       inkscape:collect="always"
       xlink:href="#linearGradient4646"
       id="linearGradient4652"
       x1="406"
       y1="104.36943"
       x2="406"
       y2="35.362183"
       gradientUnits="userSpaceOnUse"
       gradientTransform="translate(-60,0)" />
    <linearGradient
       inkscape:collect="always"
       xlink:href="#linearGradient4658"
       id="linearGradient4656"
       gradientUnits="userSpaceOnUse"
       gradientTransform="matrix(1,0,0,1.2086047,0,-2.6884638)"
       x1="200"
       y1="86.488403"
       x2="200"
       y2="12.802794" />
    <linearGradient
       inkscape:collect="always"
       xlink:href="#linearGradient3366"
       id="linearGradient2369"
       gradientUnits="userSpaceOnUse"
       gradientTransform="matrix(1,0,0,0.5510018,0,693.575)"
       x1="29.315084"
       y1="-8.8906727"
       x2="29.315084"
       y2="30.134764" />
    <linearGradient
       inkscape:collect="always"
       xlink:href="#linearGradient2455"
       id="linearGradient2371"
       gradientUnits="userSpaceOnUse"
       x1="66.904358"
       y1="70.883896"
       x2="66.904358"
       y2="121.3817" />
    <linearGradient
       inkscape:collect="always"
       xlink:href="#linearGradient3412"
       id="linearGradient3406"
       gradientUnits="userSpaceOnUse"
       gradientTransform="matrix(0.790338,0,0,0.7732927,177.14882,720.14702)"
       x1="200"
       y1="86.488403"
       x2="200"
       y2="8.9226065" />
    <linearGradient
       inkscape:collect="always"
       xlink:href="#linearGradient4646"
       id="linearGradient3408"
       gradientUnits="userSpaceOnUse"
       gradientTransform="translate(-60,700)"
       x1="406"
       y1="104.36943"
       x2="406"
       y2="35.362183" />
    <linearGradient
       inkscape:collect="always"
       xlink:href="#linearGradient3454"
       id="linearGradient3460"
       x1="593.3512"
       y1="714.92767"
       x2="593.3512"
       y2="723.87524"
       gradientUnits="userSpaceOnUse" />
  </defs>
  <sodipodi:namedview
     id="base"
     pagecolor="#ffffff"
     bordercolor="#666666"
     borderopacity="1.0"
     inkscape:pageopacity="0.0"
     inkscape:pageshadow="2"
     inkscape:zoom="1"
     inkscape:cx="443.5"
     inkscape:cy="303.5"
     inkscape:document-units="px"
     inkscape:current-layer="layer1"
     showguides="true"
     inkscape:guide-bbox="true"
     inkscape:window-width="1270"
     inkscape:window-height="721"
     inkscape:window-x="0"
     inkscape:window-y="25" />
  <metadata
     id="metadata7">
    <rdf:RDF>
      <cc:Work
         rdf:about="">
        <dc:format>image/svg+xml</dc:format>
        <dc:type
           rdf:resource="http://purl.org/dc/dcmitype/StillImage" />
      </cc:Work>
    </rdf:RDF>
  </metadata>
  <g
     inkscape:label="Camada 1"
     inkscape:groupmode="layer"
     id="layer1">
    <rect
       style="opacity:1;fill:#ffffff;fill-opacity:1;stroke:none;stroke-width:0.69999999000000002;stroke-linecap:round;stroke-linejoin:round;stroke-miterlimit:4;stroke-dasharray:none"
       id="rect3462"
       width="754"
       height="123"
       x="-5"
       y="688.36218"
       inkscape:export-filename="/home/valessio/Desktop/coisa.png"
       inkscape:export-xdpi="96.445625"
       inkscape:export-ydpi="96.445625" />
    <rect
       style="fill:url(#linearGradient3372);fill-opacity:1;fill-rule:evenodd;stroke:none;stroke-width:1px;stroke-linecap:butt;stroke-linejoin:miter;stroke-opacity:1"
       id="rect3364"
       width="757.15155"
       height="19.006174"
       x="-6.2854724"
       y="0.67619133" />
    <rect
       y="12.88784"
       x="-6.2854724"
       height="34.493855"
       width="757.15155"
       id="rect2463"
       style="fill:#204a87;fill-opacity:1;fill-rule:evenodd;stroke:none;stroke-width:1px;stroke-linecap:butt;stroke-linejoin:miter;stroke-opacity:1" />
    <rect
       style="fill:url(#linearGradient2461);fill-opacity:1;fill-rule:evenodd;stroke:none;stroke-width:1px;stroke-linecap:butt;stroke-linejoin:miter;stroke-opacity:1;filter:url(#filter4414)"
       id="rect2453"
       width="536.49725"
       height="50.493855"
       x="17.041677"
       y="70.88784"
       transform="matrix(1.3877,0,0,0.6831298,-23.607059,-35.537753)" />
    <path
       id="path4404"
       d="M 42.320335,16.583652 C 42.238195,16.585473 42.153892,16.590605 42.068852,16.600054 C 41.38866,16.675639 40.882982,16.964691 40.920768,17.267035 C 40.9467,17.386014 41.070771,17.486099 41.248789,17.562256 C 39.739457,17.754065 38.237113,17.944489 36.738465,18.136297 C 36.310198,18.199285 35.957158,18.40491 35.994945,18.606465 C 36.020139,18.808037 36.410573,18.931865 36.864206,18.868884 C 37.904952,18.745963 38.954358,18.616309 40.002302,18.486189 C 39.750001,18.652614 39.497812,18.824725 39.236911,18.994626 C 39.205066,19.010402 39.171769,19.025701 39.143971,19.04383 C 38.28744,19.635916 37.394076,20.226875 36.486981,20.831559 C 36.406192,20.888793 36.349626,20.95092 36.317503,21.011971 C 36.301931,20.90278 36.204925,20.807074 36.022278,20.744085 C 34.96403,20.403955 33.928483,20.065698 32.933392,19.738146 C 32.912087,19.730771 32.890579,19.727542 32.867785,19.721744 C 32.632003,19.641435 32.394834,19.561505 32.15707,19.481194 C 33.171392,19.31665 34.184139,19.151974 35.20222,18.983692 C 35.655854,18.908098 35.970452,18.680633 35.907472,18.491656 C 35.869686,18.340488 35.635222,18.246077 35.33343,18.240172 C 35.232831,18.238203 35.126602,18.243144 35.01634,18.26204 C 33.529824,18.501386 32.0308,18.744331 30.544284,18.983692 C 30.527681,18.986538 30.511353,18.991395 30.49508,18.994626 C 30.742075,18.754853 30.694092,18.496366 30.35294,18.365914 C 29.91202,18.202152 29.156594,18.276305 28.65268,18.54086 C 28.148767,18.805413 28.087685,19.173622 28.516008,19.349985 C 28.76026,19.447694 29.106122,19.463961 29.456339,19.415589 C 29.45296,19.417427 29.448737,19.41919 29.445404,19.421057 C 28.324213,20.088738 27.165125,20.782135 25.968357,21.487606 C 25.628208,21.68916 25.589475,21.957537 25.891814,22.083515 C 26.194159,22.209494 26.738022,22.131993 27.078167,21.930438 C 27.865619,21.457965 28.64323,20.999641 29.412603,20.541804 C 29.404063,20.759954 29.39381,20.975764 29.38527,21.197852 C 29.384885,21.202984 29.38527,21.209118 29.38527,21.214253 C 29.38527,21.907126 29.370528,22.625017 29.357931,23.368274 C 29.357931,23.435873 29.387758,23.496762 29.439937,23.548688 C 29.281306,23.484837 29.062354,23.462526 28.816695,23.494017 C 27.367966,23.682976 25.93006,23.868165 24.481317,24.057124 C 24.460685,24.059912 24.441628,24.0645 24.421177,24.068059 C 24.060202,24.113326 23.696316,24.162801 23.333233,24.210202 C 24.12153,23.676267 24.90194,23.147267 25.656734,22.635688 C 25.996865,22.408924 25.996865,22.142227 25.656734,22.028845 C 25.577997,22.003647 25.482391,21.988848 25.38338,21.985108 C 25.08635,21.973888 24.726976,22.059578 24.481317,22.220192 C 23.389306,22.960339 22.259339,23.699031 21.097206,24.461687 C 20.941781,24.266617 20.569374,24.168007 20.09673,24.210202 C 19.378668,24.285795 18.689792,24.676354 18.53862,25.079465 C 18.362258,25.495189 18.828637,25.783754 19.571892,25.708176 C 19.877941,25.677049 20.173926,25.58783 20.430223,25.467626 C 20.189587,26.410332 19.950277,27.39617 19.697639,28.430773 C 19.634654,28.745728 19.999523,28.947519 20.528631,28.884539 C 21.057735,28.821541 21.524577,28.517757 21.600172,28.190222 C 21.751777,27.474274 21.900628,26.807561 22.048473,26.12914 C 22.353115,26.28299 22.656169,26.434534 22.972407,26.588373 C 22.980733,26.593033 22.985388,26.600333 22.994272,26.604775 C 23.976892,27.083497 25.014017,27.587901 26.072228,28.091815 C 26.185679,28.146585 26.323889,28.167974 26.471324,28.173821 C 26.199706,28.192729 25.920262,28.278671 25.705938,28.430773 C 24.49655,29.262221 23.233364,30.118442 21.961,31.000291 C 21.608811,31.239925 21.252101,31.485597 20.900389,31.727411 C 20.965049,30.935267 21.034281,30.126177 21.091738,29.387509 C 21.116927,29.072571 20.731356,28.883839 20.18967,28.972013 C 19.660567,29.060203 19.194203,29.387981 19.156398,29.715532 C 19.005225,30.849321 18.853803,32.05856 18.70263,33.318327 C 18.700685,33.332919 18.697701,33.3479 18.697163,33.362061 C 18.159018,33.203459 17.393223,33.32621 16.772758,33.72289 C 16.004299,34.201539 15.741871,34.928792 16.220587,35.319269 C 16.724491,35.734946 17.783231,35.649828 18.576888,35.133396 C 19.016337,34.845272 19.266711,34.487189 19.309473,34.160257 C 19.320381,34.169049 19.330165,34.179371 19.342279,34.187589 C 20.62724,35.044302 21.986216,35.912471 23.409771,36.844581 C 23.825493,37.121693 24.56025,37.034922 25.038956,36.669639 C 25.530273,36.304349 25.553086,35.802645 25.137364,35.537952 C 24.19719,34.942024 23.326341,34.38375 22.442101,33.821295 C 23.018055,33.75344 23.593736,33.68678 24.169694,33.61902 C 24.182435,33.617688 24.195083,33.62066 24.207963,33.61902 C 25.996837,33.392269 27.797014,33.167847 29.598484,32.941103 C 29.75874,32.924407 29.905475,32.881493 30.041317,32.826289 C 29.847861,32.978511 29.735161,33.172267 29.735161,33.367526 C 29.747758,34.60216 29.759172,35.899526 29.784366,37.260075 C 29.784611,37.269263 29.789165,37.278335 29.789828,37.287414 C 29.797028,37.647238 29.807503,38.030064 29.817167,38.408163 C 28.66478,37.815206 27.535379,37.229347 26.449458,36.669639 C 25.983349,36.430311 25.250254,36.541572 24.809338,36.932056 C 24.355807,37.322704 24.347016,37.853885 24.825741,38.118407 C 26.400598,38.966471 28.052758,39.861494 29.789828,40.802731 C 29.177393,41.098786 28.744679,41.620349 28.701885,42.2023 C 28.651502,43.071603 29.536238,43.734253 30.670026,43.683872 C 31.816429,43.620894 32.749172,42.831053 32.736576,41.96175 C 32.736576,41.601324 32.578065,41.280649 32.315613,41.037817 C 34.71988,40.795388 37.136684,40.535655 39.575867,40.283361 C 40.293846,40.207787 40.79905,39.718987 40.685683,39.189951 C 40.597509,38.686108 39.929872,38.321645 39.236911,38.397226 C 37.612517,38.562229 36.019266,38.715216 34.420432,38.872862 C 34.858804,38.478444 35.29414,38.09311 35.732526,37.713844 C 35.730623,37.710121 35.728957,37.706637 35.727058,37.702914 C 35.737873,37.693705 35.749421,37.685118 35.759859,37.675575 C 37.032241,36.503959 38.253498,35.371098 39.450127,34.275064 C 39.557284,34.175108 39.620802,34.063772 39.65241,33.952504 C 39.689951,34.155421 39.849598,34.346758 40.117109,34.477345 C 41.729584,35.258306 43.419609,36.078841 45.196007,36.910182 C 45.667027,37.135513 46.149716,37.370141 46.639311,37.604502 C 45.036759,37.860068 43.43985,38.118058 41.844701,38.369894 C 41.151913,38.495856 40.696878,38.986795 40.860628,39.490637 C 41.011959,40.019844 41.731728,40.371055 42.46248,40.245092 C 44.93149,39.841841 47.410428,39.450879 49.892212,39.047805 C 49.922229,39.043064 49.950881,39.037483 49.979686,39.031403 C 49.730467,39.622802 50.064963,40.342882 50.914554,40.813668 C 51.947437,41.380488 53.367997,41.316766 53.997978,40.61138 C 54.640379,39.95621 54.276577,38.975639 53.243523,38.446432 C 52.658945,38.147016 51.979147,38.04898 51.38472,38.134809 C 51.395057,38.124678 51.407881,38.118079 51.417522,38.10747 C 52.715097,36.65875 53.963993,35.258839 55.173395,33.936109 C 55.500892,33.583368 55.247399,33.065651 54.604821,32.826289 C 53.98761,32.586934 53.22065,32.661108 52.855362,33.001239 C 52.056256,33.824745 51.22557,34.677953 50.384249,35.543417 C 50.204383,35.091308 50.025882,34.639288 49.86488,34.198526 C 49.863111,34.198116 49.86118,34.198929 49.859411,34.198526 C 49.856659,34.19136 49.857017,34.183825 49.853943,34.176659 C 49.312137,32.891747 48.785419,31.667241 48.306764,30.508256 C 48.267112,30.409113 48.190574,30.317511 48.09355,30.24037 C 48.351289,30.339462 48.669777,30.382042 48.984682,30.344245 C 50.811844,30.135798 52.675464,29.924678 54.539214,29.704598 C 54.590144,29.698645 54.641363,29.694084 54.692294,29.688196 C 54.698328,29.687487 54.702714,29.683491 54.708693,29.68273 C 55.214602,29.624321 55.722661,29.569181 56.228538,29.513251 C 55.622828,30.282349 55.004023,31.062333 54.375204,31.869559 C 54.098089,32.222279 54.392479,32.715998 55.047654,32.930166 C 55.702652,33.15691 56.494322,33.040197 56.758844,32.662283 C 57.632914,31.472419 58.479396,30.326394 59.29556,29.21803 C 59.787776,29.516856 60.52021,29.687999 61.230897,29.628059 C 62.276553,29.552465 62.842676,28.997667 62.477383,28.430773 C 62.112096,27.863878 61.030538,27.473338 60.022676,27.56151 C 59.623339,27.591842 59.29562,27.693262 59.065941,27.84033 C 58.305823,26.690101 57.575736,25.60392 56.895521,24.56556 C 56.719173,24.301012 56.226222,24.12083 55.725566,24.122729 C 55.654046,24.122999 55.583203,24.125788 55.512352,24.133664 C 54.932754,24.20924 54.614355,24.498303 54.790702,24.800645 C 55.197327,25.508069 55.628541,26.254897 56.069991,27.014805 C 55.514153,26.829851 54.954235,26.640053 54.413473,26.462631 C 54.411779,26.46307 54.409699,26.462192 54.408005,26.462631 C 54.396703,26.458859 54.386789,26.455302 54.375204,26.451697 C 52.724937,25.92259 51.137697,25.417705 49.613396,24.926387 C 49.483904,24.886552 49.344451,24.864169 49.203364,24.855315 C 49.463035,24.822112 49.69916,24.739869 49.843008,24.614765 C 50.686125,23.881536 51.501286,23.169007 52.308654,22.471677 C 52.314164,22.471304 52.319543,22.47205 52.325057,22.471677 C 52.558852,22.267076 52.791046,22.065869 53.024841,21.864833 C 53.483862,22.466068 53.939686,23.059829 54.429875,23.696298 C 54.644009,23.986044 55.269747,24.145314 55.823975,24.057124 C 56.390971,23.968952 56.670146,23.667292 56.430818,23.390143 C 55.66228,22.457925 54.931311,21.566261 54.238527,20.722217 C 54.231147,20.712867 54.219663,20.70388 54.211193,20.694882 C 54.850739,20.777179 55.542651,20.670455 55.889578,20.405128 C 56.317849,20.077593 56.055384,19.649965 55.337406,19.448392 C 54.631848,19.234241 53.710236,19.337397 53.281792,19.639739 C 53.043527,19.814964 53.00077,20.022611 53.13418,20.21378 C 53.124372,20.210621 53.116964,20.205853 53.106846,20.202846 C 51.469176,19.774509 49.895012,19.359485 48.383306,18.956357 C 48.227428,18.913838 48.047159,18.896595 47.874867,18.901686 C 47.587714,18.910173 47.313074,18.983451 47.147751,19.109435 C 46.870636,19.298393 46.983563,19.55916 47.399234,19.672541 C 48.378911,19.958281 49.393367,20.249207 50.422518,20.541804 C 49.951721,20.597763 49.481824,20.655333 49.017483,20.711283 C 48.97345,20.713783 48.930544,20.71682 48.886274,20.722217 C 47.374565,20.92379 45.860321,21.111087 44.348616,21.31266 C 44.178553,21.334462 44.028174,21.384349 43.905783,21.44387 C 44.097972,21.335812 44.19846,21.191738 44.146332,21.050241 C 43.869218,20.344771 43.618607,19.673241 43.391876,19.00556 C 43.385513,18.988584 43.375886,18.972193 43.364543,18.956357 C 43.311436,18.804238 43.259107,18.656602 43.206,18.508058 C 44.138557,18.722771 45.062871,18.936258 46.037935,19.158638 C 46.466203,19.259424 47.00683,19.168846 47.246158,18.96729 C 47.485481,18.765717 47.335464,18.514242 46.907197,18.426052 C 45.526952,18.120685 44.196835,17.827532 42.899845,17.545855 C 43.268284,17.411549 43.492397,17.209906 43.441081,17.004616 C 43.374954,16.740065 42.895296,16.570907 42.320335,16.583652 z M 41.872035,19.803751 C 42.025092,20.282914 42.185371,20.769404 42.347669,21.27439 C 42.423422,21.526347 42.900629,21.665394 43.391876,21.602414 C 43.568869,21.580291 43.720766,21.530861 43.845644,21.471205 C 43.652833,21.581819 43.552587,21.731195 43.605096,21.881234 C 43.705862,22.120577 44.185873,22.272238 44.714905,22.209258 C 45.909752,22.062353 47.113092,21.906241 48.323167,21.750024 C 48.849105,21.998016 49.37256,22.252103 49.914083,22.509946 C 49.308535,23.017729 48.696526,23.532874 48.066216,24.04619 C 47.776329,24.298147 47.913749,24.625943 48.405173,24.78971 C 48.536275,24.833421 48.676099,24.856607 48.820671,24.86625 C 48.56392,24.899223 48.331127,24.981696 48.181023,25.1068 C 47.878538,25.371336 48.02707,25.719356 48.530914,25.883122 C 49.713187,26.280451 50.964641,26.695241 52.215713,27.113211 C 52.258601,27.575663 52.304036,28.060426 52.346923,28.551049 C 51.027881,28.703904 49.711446,28.860158 48.405173,29.021215 C 47.800385,29.084196 47.424687,29.437682 47.563245,29.803005 C 47.603866,29.901183 47.680339,29.993295 47.781927,30.070891 C 47.589659,29.995523 47.369445,29.950769 47.136814,29.950616 C 47.060226,29.950565 46.984347,29.95757 46.907197,29.967017 C 46.289813,30.042612 45.886781,30.396544 46.037935,30.787076 C 46.357927,31.679278 46.706663,32.626808 47.065745,33.597146 C 46.401886,33.999407 45.730995,34.40313 45.048399,34.805364 C 43.851668,34.263034 42.642856,33.712855 41.527611,33.20352 C 40.998573,32.964158 40.25444,33.054721 39.87656,33.394865 C 39.770949,33.490223 39.697126,33.594332 39.663341,33.701023 C 39.621684,33.509658 39.472521,33.333294 39.220508,33.219922 C 38.716664,32.98056 37.998208,33.065671 37.607726,33.405802 C 36.685747,34.221069 35.718723,35.069797 34.748453,35.920648 C 33.856838,35.87714 32.975211,35.835257 32.102399,35.800377 C 32.042078,34.87546 31.982594,33.971597 31.938388,33.105115 C 31.92735,32.763393 31.532005,32.526033 31.03632,32.514673 C 30.965505,32.513047 30.891651,32.517726 30.817638,32.525603 C 30.663314,32.544498 30.516161,32.582979 30.385741,32.634944 C 30.566475,32.487935 30.676092,32.302779 30.670026,32.121039 C 30.657434,31.730506 30.163234,31.480678 29.571146,31.568864 C 28.208465,31.73552 26.854458,31.907268 25.503654,32.077306 C 25.122288,31.685686 24.750828,31.31912 24.388377,30.956555 C 25.277058,30.328399 26.169592,29.69813 27.028963,29.08682 C 27.432092,28.809671 27.443492,28.430528 27.078167,28.266761 C 26.965445,28.212345 26.825704,28.18332 26.679071,28.173821 C 26.948146,28.147696 27.227367,28.05572 27.433526,27.911402 C 27.824059,27.646849 27.831652,27.282445 27.466327,27.118678 C 26.633344,26.74186 25.834567,26.373401 25.038956,26.008865 C 25.244466,25.607904 25.444735,25.217807 25.640331,24.844381 C 26.685546,24.714109 27.735152,24.577288 28.789357,24.434352 C 29.280679,24.371353 29.696892,24.108462 29.696892,23.843909 C 29.696892,23.777425 29.669243,23.714861 29.620351,23.663496 C 29.783089,23.727347 30.008883,23.749657 30.254531,23.718167 C 30.733252,23.655168 31.13639,23.39226 31.123793,23.127724 C 31.103979,22.553068 31.082814,21.990675 31.069121,21.44387 C 31.609411,21.205797 32.140537,20.967993 32.670973,20.738619 C 33.400981,20.988238 34.129816,21.241361 34.890597,21.504007 C 35.255885,21.629986 35.794851,21.552485 36.109751,21.350929 C 36.195948,21.292306 36.250758,21.22758 36.284697,21.165049 C 36.302795,21.274244 36.408211,21.375421 36.590853,21.438402 C 36.968913,21.564381 37.535037,21.477625 37.837345,21.263456 C 38.550361,20.78815 39.243962,20.309077 39.92576,19.836553 C 40.570222,19.8258 41.21175,19.814504 41.872035,19.803751 z M 38.493391,22.088983 C 36.539811,22.129357 34.63385,22.501042 33.026333,23.111323 C 31.189164,23.808786 29.742272,24.816691 29.090045,26.030733 C 28.731728,26.705398 28.648289,27.3935 28.811228,28.042611 C 28.974166,28.691723 29.383937,29.301596 30.003048,29.835808 C 31.241259,30.90423 33.320211,31.677932 36.016815,31.880489 C 38.872223,32.095757 41.61235,31.58284 43.698032,30.661334 C 45.783718,29.739831 47.223323,28.412669 47.432034,26.971067 L 47.432034,26.965601 C 47.626433,25.533366 46.770004,24.33419 45.288948,23.494017 C 43.80789,22.653845 41.695785,22.157732 39.33532,22.09445 C 39.055148,22.086536 38.772473,22.083214 38.493391,22.088983 z M 34.557109,22.881706 C 34.62804,22.878257 34.669423,22.91213 34.688318,23.012916 C 34.889855,23.075896 34.977151,22.965374 35.191286,22.952778 C 35.191286,22.940182 35.189624,22.936377 35.20222,22.936377 C 35.466914,22.83559 35.594452,23.039533 35.770795,23.127724 C 35.858969,23.152916 36.134245,23.179071 36.197224,23.204263 C 36.335781,23.305049 36.184585,23.454567 35.907472,23.504951 C 35.894875,23.479759 35.898199,23.468343 35.885606,23.455748 C 35.721855,23.430555 35.707073,23.456229 35.568515,23.494017 C 35.102285,23.519209 34.938358,23.582697 34.824996,23.822041 C 34.824996,23.885039 34.853508,23.958 34.803125,24.04619 C 34.639374,24.058786 34.484112,24.120122 34.332959,24.057124 C 34.106228,24.057124 33.792419,24.033839 33.704245,24.210202 C 33.704245,24.210202 33.676912,24.210202 33.676912,24.210202 C 33.613931,24.24799 33.55401,24.287223 33.49103,24.325011 C 33.024977,24.501373 32.938376,24.54916 32.90059,24.54916 C 32.762029,24.687734 32.797416,24.804676 32.709241,24.981058 C 32.633665,24.981058 32.63515,24.981058 32.534296,24.981058 C 32.483894,24.918059 32.492685,24.916634 32.517893,24.86625 C 32.253339,24.828461 31.993528,24.813258 31.741572,24.800645 C 31.590399,24.951833 31.502448,25.228965 31.61583,25.380152 C 31.754406,25.45573 31.99046,25.545127 32.217205,25.620704 C 32.343184,25.671106 32.897745,25.861018 32.960725,25.986997 C 33.086685,25.9744 33.213652,25.950389 33.32702,25.937793 C 33.604133,25.950389 33.865986,26.07377 34.130679,26.161942 C 34.31962,26.187134 34.750379,26.164549 34.901533,26.227548 C 34.888936,26.252739 34.886791,26.288166 34.874199,26.325954 C 34.949776,26.590507 35.68004,26.603341 35.994945,26.77972 C 36.007542,26.8427 36.024423,26.908087 36.049616,26.971067 C 36.276347,27.109642 36.51134,27.220654 36.864206,27.359229 C 36.864206,27.371825 36.864206,27.384903 36.864206,27.397499 C 37.027957,27.460479 37.34321,27.432908 37.607726,27.495906 C 37.88484,27.609288 38.300032,27.950861 37.984957,28.190222 C 37.733032,28.278395 37.636462,28.304794 37.460119,28.430773 C 37.346751,28.733132 37.145957,29.14792 36.503379,29.223497 C 35.835789,29.198305 35.858445,29.149109 35.442773,29.464047 C 35.127692,29.590026 34.813535,29.70438 34.486034,29.830341 C 34.486034,29.842937 34.486034,29.852208 34.486034,29.852208 C 34.297094,29.889997 34.210758,29.854352 34.059605,29.879544 C 34.009222,29.929929 33.955251,29.993171 33.91746,30.043556 C 33.703326,30.081344 33.490771,30.041413 33.32702,30.01622 C 33.276637,30.041413 33.274228,30.044518 33.135671,30.120095 C 32.883751,30.195689 32.330118,30.37277 32.468688,30.61213 C 32.404414,30.687138 32.180487,30.776818 32.020393,30.825346 C 31.80354,30.736628 31.598573,30.645331 31.402615,30.546526 C 31.545832,30.331593 31.691239,30.107846 31.774373,29.917813 C 31.925545,29.829623 31.953608,29.705315 32.003991,29.617125 C 32.24335,29.516339 32.281628,29.338541 32.332016,29.212562 C 32.533586,28.960606 33.051261,28.342591 32.862316,28.141019 C 32.72376,28.065442 32.583824,28.001718 32.457758,27.938738 C 32.40737,27.837952 32.405945,27.836281 32.342947,27.659918 C 32.26737,27.521343 32.055798,27.273654 32.118797,27.135079 C 32.282566,27.009101 32.254295,27.004106 32.304678,26.878128 C 32.518849,26.726956 32.520213,26.729091 32.709241,26.615709 C 32.810013,26.439346 32.632063,26.362099 32.43042,26.336889 C 32.090289,26.147929 31.876578,25.882878 31.599427,25.71911 C 31.309683,25.693918 31.119282,25.672768 30.905111,25.609769 C 30.867325,25.559385 30.82098,25.492337 30.795772,25.429356 C 30.740293,25.140854 30.581151,24.890604 30.58802,24.620231 C 31.244104,24.118082 32.060862,23.674331 32.988064,23.313604 C 33.052162,23.343971 33.122002,23.370377 33.239547,23.406544 C 33.277333,23.431753 33.275453,23.48142 33.376224,23.494017 C 33.628144,23.48142 33.578986,23.430792 33.616773,23.330005 C 33.767926,23.229218 33.896077,23.164568 33.933863,23.051185 C 34.047402,23.025993 34.133784,22.988922 34.234551,22.963712 C 34.385704,22.925924 34.486178,22.885155 34.557109,22.881706 z M 44.452487,23.280802 C 44.7168,23.395492 44.968881,23.51515 45.201475,23.647095 C 46.646212,24.466665 47.440575,25.591877 47.257089,26.943732 L 47.262557,26.943732 C 47.080709,28.199789 45.855791,29.420933 44.015122,30.316909 C 43.810527,30.164009 43.642056,29.89956 43.566822,29.792071 C 43.529036,29.527518 43.68006,29.410794 43.856579,29.234431 C 43.932156,28.99507 43.809914,28.794678 43.708967,28.605719 C 43.595604,28.454548 43.516658,28.391078 43.441081,28.277695 C 43.478872,28.176927 43.580603,27.903328 43.517623,27.84033 C 43.328678,27.815138 43.151546,27.849121 43.025586,27.823929 C 42.987795,27.748353 42.973755,27.727184 42.910775,27.714588 C 42.192625,27.664204 41.363684,27.990075 40.784091,27.725522 C 40.481783,27.536564 40.255884,27.297185 39.991367,27.146013 C 39.903193,26.969651 40.167278,26.601206 40.24285,26.462631 C 40.217661,26.412246 40.204099,26.36376 40.166312,26.325954 C 40.267084,25.973229 40.696047,25.812287 41.237854,25.686309 C 41.288242,25.56033 41.290646,25.530143 41.429203,25.429356 C 41.756704,25.32857 41.852527,25.292435 41.751761,25.128668 C 41.625801,25.116072 41.563257,25.156004 41.500278,25.156004 C 41.500278,25.118214 41.515014,25.078984 41.527611,25.041195 C 41.376457,25.003407 41.628159,24.727429 41.653353,24.702238 C 41.905277,24.651836 42.220135,24.676581 42.522615,24.663969 C 42.598192,24.525394 42.371679,24.462404 42.396873,24.374214 C 42.548027,24.336426 42.585595,24.287939 42.522615,24.237537 C 42.434441,24.224941 42.344564,24.210202 42.243797,24.210202 C 42.13043,24.084223 42.294747,24.069239 42.446077,24.018855 C 42.509057,23.905473 42.282762,23.896917 42.194593,23.909514 C 42.169399,23.934706 42.159647,23.960842 42.134454,23.986052 C 41.958111,24.049033 41.932393,24.04381 41.806432,24.144597 C 41.730856,24.144597 41.715149,24.149583 41.702556,24.111795 C 41.715153,24.073989 41.742966,24.02384 41.768159,23.986052 C 41.919313,23.960842 41.96738,23.883841 42.156324,23.871244 C 42.168917,23.846052 42.181996,23.830849 42.194593,23.805639 C 42.068629,23.641873 42.281454,23.632355 42.53355,23.61976 C 42.53355,23.670144 42.498386,23.667764 42.599153,23.718167 C 42.58656,23.743358 42.573485,23.796848 42.560884,23.822041 C 42.661654,23.922827 42.999432,23.982974 42.949044,24.171932 C 42.911258,24.171932 42.877496,24.170271 42.839705,24.182866 C 42.814511,24.208059 42.82689,24.263211 42.965447,24.275807 C 43.406312,24.225404 43.65539,23.98439 44.184601,23.996987 C 44.184601,23.98439 44.208615,23.960379 44.233805,23.947783 C 44.296785,23.695843 44.275355,23.67086 43.960451,23.532286 C 43.792476,23.3403 44.215573,23.305608 44.452487,23.280802 z M 43.391876,24.663969 C 43.366687,24.689177 43.344334,24.726249 43.331742,24.751441 C 43.079817,24.864823 42.711336,24.824901 42.648356,25.01386 C 42.44682,25.039052 42.39775,25.031686 42.3094,25.14507 C 42.259017,25.157665 42.206708,25.166938 42.156324,25.166938 C 42.118533,25.204725 42.118051,25.204008 42.118051,25.254411 C 42.168439,25.267006 42.235489,25.291018 42.298464,25.303614 C 42.739505,25.25323 43.142843,25.296004 43.621494,25.270811 C 43.772648,25.233006 43.831646,25.203545 44.02059,25.216141 C 44.02059,25.266543 44.006814,25.304559 44.069794,25.380152 C 44.0446,25.405345 44.007515,25.420566 43.982321,25.445757 C 43.994918,25.458353 43.998724,25.471431 43.998724,25.484027 C 44.212858,25.547025 44.209446,25.546553 45.015593,25.735512 C 45.330675,25.722915 45.370739,25.64447 45.496695,25.505896 C 45.710828,25.493299 45.923171,25.631637 46.212881,25.631638 C 46.376632,25.606445 46.556126,25.506595 46.60651,25.418423 C 46.417393,25.418422 46.340986,25.35448 46.240215,25.341883 C 46.189832,25.07733 46.173828,24.953023 45.682576,25.041195 C 45.669979,25.066387 45.674486,25.16908 45.611506,25.194273 C 45.472949,25.181676 45.421336,25.077322 45.370953,25.052129 C 45.32057,24.825382 45.284311,24.854371 44.906255,24.778777 C 44.755101,24.703199 44.548755,24.727194 44.523561,24.82798 C 44.712501,24.89096 44.90153,24.927332 45.103067,25.002926 C 45.090474,25.015522 45.081201,25.01386 45.081201,25.01386 C 45.04341,25.026456 44.993249,25.028599 44.955459,25.041195 C 44.930265,25.078984 44.851801,25.166938 44.725842,25.166938 C 44.738439,25.116553 44.767438,25.068049 44.742244,25.030261 C 44.603687,24.979877 44.465302,24.92923 44.326745,24.86625 C 44.137805,24.740271 44.160548,24.639239 43.845644,24.702238 C 43.643931,24.702238 43.517836,24.663968 43.391876,24.663969 z"
       style="opacity:1;fill:#eeeeec;fill-opacity:1;stroke:none" />
    <text
       xml:space="preserve"
       style="font-size:10.19971370999999927px;font-style:normal;font-weight:normal;fill:#eeeeec;fill-opacity:1;stroke:none;stroke-width:1px;stroke-linecap:butt;stroke-linejoin:miter;stroke-opacity:1;font-family:Bitstream Vera Sans"
       x="620.74249"
       y="40.87484"
       id="text2929"><tspan
         sodipodi:role="line"
         id="tspan2931"
         x="620.74249"
         y="40.87484">Configuraçöes - Sair</tspan></text>
    <text
       sodipodi:linespacing="125%"
       id="text2953"
       y="39.766262"
       x="397.14435"
       style="font-size:12.93641376px;font-style:normal;font-variant:normal;font-weight:bold;font-stretch:normal;text-align:start;line-height:125%;writing-mode:lr-tb;text-anchor:start;opacity:1;fill:#eeeeec;fill-opacity:1;stroke:none;stroke-width:1px;stroke-linecap:butt;stroke-linejoin:miter;stroke-opacity:1;font-family:Bitstream Vera Sans"
       xml:space="preserve"><tspan
         id="tspan2955"
         sodipodi:role="line"
         x="397.14435"
         y="39.766262">Meu Empreendimento</tspan></text>
    <text
       xml:space="preserve"
       style="font-size:12px;font-style:normal;font-weight:normal;fill:#2e3436;fill-opacity:1;stroke:none;stroke-width:1px;stroke-linecap:butt;stroke-linejoin:miter;stroke-opacity:1;font-family:Bitstream Vera Sans"
       x="632.38727"
       y="28.362183"
       id="text2957"><tspan
         sodipodi:role="line"
         id="tspan2959"
         x="632.38727"
         y="28.362183">Valessio Brito</tspan></text>
    <rect
       transform="matrix(1.3877,0,0,0.4850859,-23.607059,-21.498848)"
       y="70.88784"
       x="17.041677"
       height="50.493855"
       width="536.49725"
       id="rect2961"
       style="fill:#eeeeec;fill-opacity:0.05416667;fill-rule:evenodd;stroke:none;stroke-width:1px;stroke-linecap:butt;stroke-linejoin:miter;stroke-opacity:1;filter:url(#filter4414)" />
    <text
       xml:space="preserve"
       style="font-size:7.66906165999999878px;font-style:normal;font-weight:normal;fill:#2e3436;fill-opacity:1;stroke:none;stroke-width:1px;stroke-linecap:butt;stroke-linejoin:miter;stroke-opacity:1;font-family:Bitstream Vera Sans"
       x="8.3795261"
       y="10.082085"
       id="text3358">Ir para: Conteúdo desta página | Menu desta página web | Empreendimento | Central de buscas</text>
    <text
       id="text3374"
       y="10.082085"
       x="670.37952"
       style="font-size:7.66906166px;font-style:normal;font-weight:normal;fill:#cc0000;fill-opacity:1;stroke:none;stroke-width:1px;stroke-linecap:butt;stroke-linejoin:miter;stroke-opacity:1;font-family:Bitstream Vera Sans"
       xml:space="preserve">Deficiente Visual?</text>
    <text
       sodipodi:linespacing="125%"
       id="text4426"
       y="41.020107"
       x="90.144333"
       style="font-size:12.93641376000000065px;font-style:normal;font-variant:normal;font-weight:bold;font-stretch:normal;text-align:start;line-height:125%;writing-mode:lr-tb;text-anchor:start;opacity:1;fill:#eeeeec;fill-opacity:1;stroke:none;stroke-width:1px;stroke-linecap:butt;stroke-linejoin:miter;stroke-opacity:1;font-family:Bitstream Vera Sans"
       xml:space="preserve"><tspan
         y="41.020107"
         x="90.144333"
         id="tspan4428"
         sodipodi:role="line">Minha rede</tspan></text>
    <rect
       y="12.88784"
       x="190.16632"
       height="98.493858"
       width="183.15155"
       id="rect3798"
       style="fill:url(#linearGradient4652);fill-opacity:1;fill-rule:evenodd;stroke:none;stroke-width:1px;stroke-linecap:butt;stroke-linejoin:miter;stroke-opacity:1;filter:url(#filter4622)" />
    <g
       id="g4635">
      <rect
         y="12.88784"
         x="190.16632"
         height="98.493858"
         width="183.15155"
         id="rect3774"
         style="fill:url(#linearGradient4656);fill-opacity:1;fill-rule:evenodd;stroke:none;stroke-width:1px;stroke-linecap:butt;stroke-linejoin:miter;stroke-opacity:1"
         ry="8" />
      <g
         id="g4626">
        <text
           xml:space="preserve"
           style="font-size:12.93641376px;font-style:normal;font-variant:normal;font-weight:bold;font-stretch:normal;text-align:start;line-height:125%;writing-mode:lr-tb;text-anchor:start;opacity:1;fill:#2e3436;fill-opacity:1;stroke:none;stroke-width:1px;stroke-linecap:butt;stroke-linejoin:miter;stroke-opacity:1;font-family:Bitstream Vera Sans"
           x="214.8429"
           y="39.974709"
           id="text2939"
           sodipodi:linespacing="125%"><tspan
             sodipodi:role="line"
             id="tspan2943"
             x="214.8429"
             y="39.974709">Minha página web</tspan></text>
        <rect
           style="opacity:1;fill:#cdd4dc;fill-opacity:1;stroke:#eeeeec;stroke-linecap:round;stroke-linejoin:round"
           id="rect3792"
           width="175"
           height="27"
           x="194.2421"
           y="51.362183"
           ry="5" />
        <text
           sodipodi:linespacing="125%"
           id="text2945"
           y="68.778023"
           x="203.20454"
           style="font-size:12.93641376000000065px;font-style:normal;font-variant:normal;font-weight:bold;font-stretch:normal;text-align:start;line-height:125%;writing-mode:lr-tb;text-anchor:start;opacity:1;fill:#3465a4;fill-opacity:1;stroke:none;stroke-width:1px;stroke-linecap:butt;stroke-linejoin:miter;stroke-opacity:1;font-family:Bitstream Vera Sans"
           xml:space="preserve"><tspan
             id="tspan2947"
             sodipodi:role="line"
             x="203.20454"
             y="68.778023">Navegar no conteúdo</tspan></text>
        <text
           xml:space="preserve"
           style="font-size:12.93641376000000065px;font-style:normal;font-variant:normal;font-weight:bold;font-stretch:normal;text-align:start;line-height:125%;writing-mode:lr-tb;text-anchor:start;opacity:1;fill:#204a87;fill-opacity:1;stroke:none;stroke-width:1px;stroke-linecap:butt;stroke-linejoin:miter;stroke-opacity:1;font-family:Bitstream Vera Sans"
           x="209.21164"
           y="94.194458"
           id="text2949"
           sodipodi:linespacing="125%"><tspan
             y="94.194458"
             x="209.21164"
             sodipodi:role="line"
             id="tspan2951">Modificar aparencia</tspan></text>
      </g>
    </g>
    <rect
       y="700.67621"
       x="-6.2854724"
       height="19.006174"
       width="757.15155"
       id="rect2317"
       style="fill:url(#linearGradient2369);fill-opacity:1;fill-rule:evenodd;stroke:none;stroke-width:1px;stroke-linecap:butt;stroke-linejoin:miter;stroke-opacity:1" />
    <rect
       style="fill:#204a87;fill-opacity:1;fill-rule:evenodd;stroke:none;stroke-width:1px;stroke-linecap:butt;stroke-linejoin:miter;stroke-opacity:1"
       id="rect2319"
       width="757.15155"
       height="34.493855"
       x="-6.2854724"
       y="712.88782" />
    <rect
       transform="matrix(1.3877,0,0,0.6831298,-23.607059,664.46225)"
       y="70.88784"
       x="17.041677"
       height="50.493855"
       width="536.49725"
       id="rect2321"
       style="fill:url(#linearGradient2371);fill-opacity:1;fill-rule:evenodd;stroke:none;stroke-width:1px;stroke-linecap:butt;stroke-linejoin:miter;stroke-opacity:1;filter:url(#filter4414)" />
    <path
       style="opacity:1;fill:#eeeeec;fill-opacity:1;stroke:none"
       d="M 42.320335,716.5837 C 42.238195,716.5855 42.153892,716.5906 42.068852,716.6001 C 41.38866,716.6756 40.882982,716.9647 40.920768,717.267 C 40.9467,717.386 41.070771,717.4861 41.248789,717.5623 C 39.739457,717.7541 38.237113,717.9445 36.738465,718.1363 C 36.310198,718.1993 35.957158,718.4049 35.994945,718.6065 C 36.020139,718.808 36.410573,718.9319 36.864206,718.8689 C 37.904952,718.746 38.954358,718.6163 40.002302,718.4862 C 39.750001,718.6526 39.497812,718.8247 39.236911,718.9946 C 39.205066,719.0104 39.171769,719.0257 39.143971,719.0438 C 38.28744,719.6359 37.394076,720.2269 36.486981,720.8316 C 36.406192,720.8888 36.349626,720.9509 36.317503,721.012 C 36.301931,720.9028 36.204925,720.8071 36.022278,720.7441 C 34.96403,720.404 33.928483,720.0657 32.933392,719.7382 C 32.912087,719.7308 32.890579,719.7275 32.867785,719.7217 C 32.632003,719.6414 32.394834,719.5615 32.15707,719.4812 C 33.171392,719.3166 34.184139,719.152 35.20222,718.9837 C 35.655854,718.9081 35.970452,718.6806 35.907472,718.4917 C 35.869686,718.3405 35.635222,718.2461 35.33343,718.2402 C 35.232831,718.2382 35.126602,718.2431 35.01634,718.262 C 33.529824,718.5014 32.0308,718.7443 30.544284,718.9837 C 30.527681,718.9865 30.511353,718.9914 30.49508,718.9946 C 30.742075,718.7549 30.694092,718.4964 30.35294,718.3659 C 29.91202,718.2021 29.156594,718.2763 28.65268,718.5409 C 28.148767,718.8054 28.087685,719.1736 28.516008,719.35 C 28.76026,719.4477 29.106122,719.464 29.456339,719.4156 C 29.45296,719.4174 29.448737,719.4192 29.445404,719.4211 C 28.324213,720.0887 27.165125,720.7821 25.968357,721.4876 C 25.628208,721.6892 25.589475,721.9575 25.891814,722.0835 C 26.194159,722.2095 26.738022,722.132 27.078167,721.9304 C 27.865619,721.458 28.64323,720.9996 29.412603,720.5418 C 29.404063,720.76 29.39381,720.9758 29.38527,721.1979 C 29.384885,721.203 29.38527,721.2091 29.38527,721.2142 C 29.38527,721.9071 29.370528,722.625 29.357931,723.3683 C 29.357931,723.4359 29.387758,723.4968 29.439937,723.5487 C 29.281306,723.4848 29.062354,723.4625 28.816695,723.494 C 27.367966,723.683 25.93006,723.8682 24.481317,724.0571 C 24.460685,724.0599 24.441628,724.0645 24.421177,724.0681 C 24.060202,724.1133 23.696316,724.1628 23.333233,724.2102 C 24.12153,723.6763 24.90194,723.1473 25.656734,722.6357 C 25.996865,722.4089 25.996865,722.1422 25.656734,722.0289 C 25.577997,722.0036 25.482391,721.9888 25.38338,721.9851 C 25.08635,721.9739 24.726976,722.0596 24.481317,722.2202 C 23.389306,722.9603 22.259339,723.699 21.097206,724.4617 C 20.941781,724.2666 20.569374,724.168 20.09673,724.2102 C 19.378668,724.2858 18.689792,724.6763 18.53862,725.0795 C 18.362258,725.4952 18.828637,725.7838 19.571892,725.7082 C 19.877941,725.6771 20.173926,725.5878 20.430223,725.4676 C 20.189587,726.4103 19.950277,727.3962 19.697639,728.4308 C 19.634654,728.7457 19.999523,728.9475 20.528631,728.8845 C 21.057735,728.8215 21.524577,728.5178 21.600172,728.1902 C 21.751777,727.4743 21.900628,726.8076 22.048473,726.1291 C 22.353115,726.283 22.656169,726.4345 22.972407,726.5884 C 22.980733,726.593 22.985388,726.6003 22.994272,726.6048 C 23.976892,727.0835 25.014017,727.5879 26.072228,728.0918 C 26.185679,728.1466 26.323889,728.168 26.471324,728.1738 C 26.199706,728.1927 25.920262,728.2787 25.705938,728.4308 C 24.49655,729.2622 23.233364,730.1184 21.961,731.0003 C 21.608811,731.2399 21.252101,731.4856 20.900389,731.7274 C 20.965049,730.9353 21.034281,730.1262 21.091738,729.3875 C 21.116927,729.0726 20.731356,728.8838 20.18967,728.972 C 19.660567,729.0602 19.194203,729.388 19.156398,729.7155 C 19.005225,730.8493 18.853803,732.0586 18.70263,733.3183 C 18.700685,733.3329 18.697701,733.3479 18.697163,733.3621 C 18.159018,733.2035 17.393223,733.3262 16.772758,733.7229 C 16.004299,734.2015 15.741871,734.9288 16.220587,735.3193 C 16.724491,735.735 17.783231,735.6498 18.576888,735.1334 C 19.016337,734.8453 19.266711,734.4872 19.309473,734.1603 C 19.320381,734.169 19.330165,734.1794 19.342279,734.1876 C 20.62724,735.0443 21.986216,735.9125 23.409771,736.8446 C 23.825493,737.1217 24.56025,737.0349 25.038956,736.6696 C 25.530273,736.3043 25.553086,735.8026 25.137364,735.538 C 24.19719,734.942 23.326341,734.3837 22.442101,733.8213 C 23.018055,733.7534 23.593736,733.6868 24.169694,733.619 C 24.182435,733.6177 24.195083,733.6207 24.207963,733.619 C 25.996837,733.3923 27.797014,733.1679 29.598484,732.9411 C 29.75874,732.9244 29.905475,732.8815 30.041317,732.8263 C 29.847861,732.9785 29.735161,733.1723 29.735161,733.3675 C 29.747758,734.6022 29.759172,735.8995 29.784366,737.2601 C 29.784611,737.2693 29.789165,737.2783 29.789828,737.2874 C 29.797028,737.6472 29.807503,738.0301 29.817167,738.4082 C 28.66478,737.8152 27.535379,737.2293 26.449458,736.6696 C 25.983349,736.4303 25.250254,736.5416 24.809338,736.9321 C 24.355807,737.3227 24.347016,737.8539 24.825741,738.1184 C 26.400598,738.9665 28.052758,739.8615 29.789828,740.8027 C 29.177393,741.0988 28.744679,741.6204 28.701885,742.2023 C 28.651502,743.0716 29.536238,743.7342 30.670026,743.6839 C 31.816429,743.6209 32.749172,742.8311 32.736576,741.9618 C 32.736576,741.6013 32.578065,741.2807 32.315613,741.0378 C 34.71988,740.7954 37.136684,740.5357 39.575867,740.2834 C 40.293846,740.2078 40.79905,739.719 40.685683,739.1899 C 40.597509,738.6861 39.929872,738.3216 39.236911,738.3972 C 37.612517,738.5622 36.019266,738.7152 34.420432,738.8729 C 34.858804,738.4784 35.29414,738.0931 35.732526,737.7138 C 35.730623,737.7101 35.728957,737.7066 35.727058,737.7029 C 35.737873,737.6937 35.749421,737.6851 35.759859,737.6756 C 37.032241,736.504 38.253498,735.3711 39.450127,734.2751 C 39.557284,734.1751 39.620802,734.0638 39.65241,733.9525 C 39.689951,734.1554 39.849598,734.3468 40.117109,734.4773 C 41.729584,735.2583 43.419609,736.0788 45.196007,736.9102 C 45.667027,737.1355 46.149716,737.3701 46.639311,737.6045 C 45.036759,737.8601 43.43985,738.1181 41.844701,738.3699 C 41.151913,738.4959 40.696878,738.9868 40.860628,739.4906 C 41.011959,740.0198 41.731728,740.371 42.46248,740.2451 C 44.93149,739.8418 47.410428,739.4509 49.892212,739.0478 C 49.922229,739.0431 49.950881,739.0375 49.979686,739.0314 C 49.730467,739.6228 50.064963,740.3429 50.914554,740.8137 C 51.947437,741.3805 53.367997,741.3168 53.997978,740.6114 C 54.640379,739.9562 54.276577,738.9756 53.243523,738.4464 C 52.658945,738.147 51.979147,738.049 51.38472,738.1348 C 51.395057,738.1247 51.407881,738.1181 51.417522,738.1075 C 52.715097,736.6588 53.963993,735.2588 55.173395,733.9361 C 55.500892,733.5834 55.247399,733.0657 54.604821,732.8263 C 53.98761,732.5869 53.22065,732.6611 52.855362,733.0012 C 52.056256,733.8247 51.22557,734.678 50.384249,735.5434 C 50.204383,735.0913 50.025882,734.6393 49.86488,734.1985 C 49.863111,734.1981 49.86118,734.1989 49.859411,734.1985 C 49.856659,734.1914 49.857017,734.1838 49.853943,734.1767 C 49.312137,732.8918 48.785419,731.6672 48.306764,730.5083 C 48.267112,730.4091 48.190574,730.3175 48.09355,730.2404 C 48.351289,730.3395 48.669777,730.382 48.984682,730.3442 C 50.811844,730.1358 52.675464,729.9247 54.539214,729.7046 C 54.590144,729.6986 54.641363,729.6941 54.692294,729.6882 C 54.698328,729.6875 54.702714,729.6835 54.708693,729.6827 C 55.214602,729.6243 55.722661,729.5692 56.228538,729.5132 C 55.622828,730.2823 55.004023,731.0623 54.375204,731.8696 C 54.098089,732.2223 54.392479,732.716 55.047654,732.9302 C 55.702652,733.1569 56.494322,733.0402 56.758844,732.6623 C 57.632914,731.4724 58.479396,730.3264 59.29556,729.218 C 59.787776,729.5169 60.52021,729.688 61.230897,729.6281 C 62.276553,729.5525 62.842676,728.9977 62.477383,728.4308 C 62.112096,727.8639 61.030538,727.4733 60.022676,727.5615 C 59.623339,727.5918 59.29562,727.6933 59.065941,727.8403 C 58.305823,726.6901 57.575736,725.6039 56.895521,724.5656 C 56.719173,724.301 56.226222,724.1208 55.725566,724.1227 C 55.654046,724.123 55.583203,724.1258 55.512352,724.1337 C 54.932754,724.2092 54.614355,724.4983 54.790702,724.8007 C 55.197327,725.5081 55.628541,726.2549 56.069991,727.0148 C 55.514153,726.8298 54.954235,726.64 54.413473,726.4626 C 54.411779,726.4631 54.409699,726.4622 54.408005,726.4626 C 54.396703,726.4589 54.386789,726.4553 54.375204,726.4517 C 52.724937,725.9226 51.137697,725.4177 49.613396,724.9264 C 49.483904,724.8866 49.344451,724.8642 49.203364,724.8553 C 49.463035,724.8221 49.69916,724.7399 49.843008,724.6148 C 50.686125,723.8815 51.501286,723.169 52.308654,722.4717 C 52.314164,722.4713 52.319543,722.472 52.325057,722.4717 C 52.558852,722.2671 52.791046,722.0659 53.024841,721.8648 C 53.483862,722.4661 53.939686,723.0598 54.429875,723.6963 C 54.644009,723.986 55.269747,724.1453 55.823975,724.0571 C 56.390971,723.9689 56.670146,723.6673 56.430818,723.3901 C 55.66228,722.4579 54.931311,721.5663 54.238527,720.7222 C 54.231147,720.7129 54.219663,720.7039 54.211193,720.6949 C 54.850739,720.7772 55.542651,720.6705 55.889578,720.4051 C 56.317849,720.0776 56.055384,719.65 55.337406,719.4484 C 54.631848,719.2342 53.710236,719.3374 53.281792,719.6397 C 53.043527,719.815 53.00077,720.0226 53.13418,720.2138 C 53.124372,720.2106 53.116964,720.2059 53.106846,720.2029 C 51.469176,719.7745 49.895012,719.3595 48.383306,718.9564 C 48.227428,718.9138 48.047159,718.8966 47.874867,718.9017 C 47.587714,718.9102 47.313074,718.9834 47.147751,719.1094 C 46.870636,719.2984 46.983563,719.5592 47.399234,719.6725 C 48.378911,719.9583 49.393367,720.2492 50.422518,720.5418 C 49.951721,720.5978 49.481824,720.6553 49.017483,720.7113 C 48.97345,720.7138 48.930544,720.7168 48.886274,720.7222 C 47.374565,720.9238 45.860321,721.1111 44.348616,721.3127 C 44.178553,721.3345 44.028174,721.3844 43.905783,721.4439 C 44.097972,721.3358 44.19846,721.1917 44.146332,721.0502 C 43.869218,720.3448 43.618607,719.6732 43.391876,719.0056 C 43.385513,718.9886 43.375886,718.9722 43.364543,718.9564 C 43.311436,718.8042 43.259107,718.6566 43.206,718.5081 C 44.138557,718.7228 45.062871,718.9363 46.037935,719.1586 C 46.466203,719.2594 47.00683,719.1689 47.246158,718.9673 C 47.485481,718.7657 47.335464,718.5142 46.907197,718.4261 C 45.526952,718.1207 44.196835,717.8275 42.899845,717.5459 C 43.268284,717.4116 43.492397,717.2099 43.441081,717.0046 C 43.374954,716.7401 42.895296,716.5709 42.320335,716.5837 z M 41.872035,719.8038 C 42.025092,720.2829 42.185371,720.7694 42.347669,721.2744 C 42.423422,721.5263 42.900629,721.6654 43.391876,721.6024 C 43.568869,721.5803 43.720766,721.5309 43.845644,721.4712 C 43.652833,721.5818 43.552587,721.7312 43.605096,721.8812 C 43.705862,722.1206 44.185873,722.2722 44.714905,722.2093 C 45.909752,722.0624 47.113092,721.9062 48.323167,721.75 C 48.849105,721.998 49.37256,722.2521 49.914083,722.51 C 49.308535,723.0177 48.696526,723.5329 48.066216,724.0462 C 47.776329,724.2981 47.913749,724.6259 48.405173,724.7897 C 48.536275,724.8334 48.676099,724.8566 48.820671,724.8663 C 48.56392,724.8992 48.331127,724.9817 48.181023,725.1068 C 47.878538,725.3713 48.02707,725.7194 48.530914,725.8831 C 49.713187,726.2804 50.964641,726.6952 52.215713,727.1132 C 52.258601,727.5757 52.304036,728.0604 52.346923,728.5511 C 51.027881,728.7039 49.711446,728.8602 48.405173,729.0212 C 47.800385,729.0842 47.424687,729.4377 47.563245,729.803 C 47.603866,729.9012 47.680339,729.9933 47.781927,730.0709 C 47.589659,729.9955 47.369445,729.9508 47.136814,729.9506 C 47.060226,729.9506 46.984347,729.9576 46.907197,729.967 C 46.289813,730.0426 45.886781,730.3965 46.037935,730.7871 C 46.357927,731.6793 46.706663,732.6268 47.065745,733.5972 C 46.401886,733.9994 45.730995,734.4031 45.048399,734.8054 C 43.851668,734.263 42.642856,733.7129 41.527611,733.2035 C 40.998573,732.9642 40.25444,733.0547 39.87656,733.3949 C 39.770949,733.4902 39.697126,733.5943 39.663341,733.701 C 39.621684,733.5097 39.472521,733.3333 39.220508,733.2199 C 38.716664,732.9806 37.998208,733.0657 37.607726,733.4058 C 36.685747,734.2211 35.718723,735.0698 34.748453,735.9207 C 33.856838,735.8771 32.975211,735.8353 32.102399,735.8004 C 32.042078,734.8755 31.982594,733.9716 31.938388,733.1051 C 31.92735,732.7634 31.532005,732.526 31.03632,732.5147 C 30.965505,732.5131 30.891651,732.5177 30.817638,732.5256 C 30.663314,732.5445 30.516161,732.583 30.385741,732.6349 C 30.566475,732.4879 30.676092,732.3028 30.670026,732.121 C 30.657434,731.7305 30.163234,731.4807 29.571146,731.5689 C 28.208465,731.7355 26.854458,731.9073 25.503654,732.0773 C 25.122288,731.6857 24.750828,731.3191 24.388377,730.9565 C 25.277058,730.3284 26.169592,729.6981 27.028963,729.0868 C 27.432092,728.8097 27.443492,728.4305 27.078167,728.2668 C 26.965445,728.2123 26.825704,728.1833 26.679071,728.1738 C 26.948146,728.1477 27.227367,728.0557 27.433526,727.9114 C 27.824059,727.6468 27.831652,727.2824 27.466327,727.1187 C 26.633344,726.7419 25.834567,726.3734 25.038956,726.0089 C 25.244466,725.6079 25.444735,725.2178 25.640331,724.8444 C 26.685546,724.7141 27.735152,724.5773 28.789357,724.4343 C 29.280679,724.3714 29.696892,724.1085 29.696892,723.8439 C 29.696892,723.7774 29.669243,723.7149 29.620351,723.6635 C 29.783089,723.7274 30.008883,723.7497 30.254531,723.7182 C 30.733252,723.6552 31.13639,723.3923 31.123793,723.1277 C 31.103979,722.5531 31.082814,721.9907 31.069121,721.4439 C 31.609411,721.2058 32.140537,720.968 32.670973,720.7386 C 33.400981,720.9882 34.129816,721.2414 34.890597,721.504 C 35.255885,721.63 35.794851,721.5525 36.109751,721.3509 C 36.195948,721.2923 36.250758,721.2276 36.284697,721.165 C 36.302795,721.2742 36.408211,721.3754 36.590853,721.4384 C 36.968913,721.5644 37.535037,721.4776 37.837345,721.2635 C 38.550361,720.7881 39.243962,720.3091 39.92576,719.8365 C 40.570222,719.8258 41.21175,719.8145 41.872035,719.8038 z M 38.493391,722.089 C 36.539811,722.1294 34.63385,722.501 33.026333,723.1113 C 31.189164,723.8088 29.742272,724.8167 29.090045,726.0307 C 28.731728,726.7054 28.648289,727.3935 28.811228,728.0426 C 28.974166,728.6917 29.383937,729.3016 30.003048,729.8358 C 31.241259,730.9042 33.320211,731.6779 36.016815,731.8805 C 38.872223,732.0958 41.61235,731.5828 43.698032,730.6613 C 45.783718,729.7398 47.223323,728.4127 47.432034,726.9711 L 47.432034,726.9656 C 47.626433,725.5334 46.770004,724.3342 45.288948,723.494 C 43.80789,722.6539 41.695785,722.1577 39.33532,722.0945 C 39.055148,722.0865 38.772473,722.0832 38.493391,722.089 z M 34.557109,722.8817 C 34.62804,722.8783 34.669423,722.9121 34.688318,723.0129 C 34.889855,723.0759 34.977151,722.9654 35.191286,722.9528 C 35.191286,722.9402 35.189624,722.9364 35.20222,722.9364 C 35.466914,722.8356 35.594452,723.0395 35.770795,723.1277 C 35.858969,723.1529 36.134245,723.1791 36.197224,723.2043 C 36.335781,723.3051 36.184585,723.4546 35.907472,723.505 C 35.894875,723.4798 35.898199,723.4683 35.885606,723.4557 C 35.721855,723.4306 35.707073,723.4562 35.568515,723.494 C 35.102285,723.5192 34.938358,723.5827 34.824996,723.822 C 34.824996,723.885 34.853508,723.958 34.803125,724.0462 C 34.639374,724.0588 34.484112,724.1201 34.332959,724.0571 C 34.106228,724.0571 33.792419,724.0338 33.704245,724.2102 C 33.704245,724.2102 33.676912,724.2102 33.676912,724.2102 C 33.613931,724.248 33.55401,724.2872 33.49103,724.325 C 33.024977,724.5014 32.938376,724.5492 32.90059,724.5492 C 32.762029,724.6877 32.797416,724.8047 32.709241,724.9811 C 32.633665,724.9811 32.63515,724.9811 32.534296,724.9811 C 32.483894,724.9181 32.492685,724.9166 32.517893,724.8663 C 32.253339,724.8285 31.993528,724.8133 31.741572,724.8007 C 31.590399,724.9518 31.502448,725.229 31.61583,725.3801 C 31.754406,725.4557 31.99046,725.5451 32.217205,725.6207 C 32.343184,725.6711 32.897745,725.861 32.960725,725.987 C 33.086685,725.9744 33.213652,725.9504 33.32702,725.9378 C 33.604133,725.9504 33.865986,726.0738 34.130679,726.1619 C 34.31962,726.1871 34.750379,726.1645 34.901533,726.2275 C 34.888936,726.2527 34.886791,726.2882 34.874199,726.326 C 34.949776,726.5905 35.68004,726.6033 35.994945,726.7797 C 36.007542,726.8427 36.024423,726.9081 36.049616,726.9711 C 36.276347,727.1096 36.51134,727.2206 36.864206,727.3592 C 36.864206,727.3718 36.864206,727.3849 36.864206,727.3975 C 37.027957,727.4605 37.34321,727.4329 37.607726,727.4959 C 37.88484,727.6093 38.300032,727.9509 37.984957,728.1902 C 37.733032,728.2784 37.636462,728.3048 37.460119,728.4308 C 37.346751,728.7331 37.145957,729.1479 36.503379,729.2235 C 35.835789,729.1983 35.858445,729.1491 35.442773,729.4641 C 35.127692,729.59 34.813535,729.7044 34.486034,729.8303 C 34.486034,729.8429 34.486034,729.8522 34.486034,729.8522 C 34.297094,729.89 34.210758,729.8543 34.059605,729.8795 C 34.009222,729.9299 33.955251,729.9932 33.91746,730.0436 C 33.703326,730.0813 33.490771,730.0414 33.32702,730.0162 C 33.276637,730.0414 33.274228,730.0445 33.135671,730.1201 C 32.883751,730.1957 32.330118,730.3728 32.468688,730.6121 C 32.404414,730.6871 32.180487,730.7768 32.020393,730.8253 C 31.80354,730.7366 31.598573,730.6453 31.402615,730.5465 C 31.545832,730.3316 31.691239,730.1078 31.774373,729.9178 C 31.925545,729.8296 31.953608,729.7053 32.003991,729.6171 C 32.24335,729.5163 32.281628,729.3385 32.332016,729.2126 C 32.533586,728.9606 33.051261,728.3426 32.862316,728.141 C 32.72376,728.0654 32.583824,728.0017 32.457758,727.9387 C 32.40737,727.8379 32.405945,727.8363 32.342947,727.6599 C 32.26737,727.5213 32.055798,727.2736 32.118797,727.1351 C 32.282566,727.0091 32.254295,727.0041 32.304678,726.8781 C 32.518849,726.727 32.520213,726.7291 32.709241,726.6157 C 32.810013,726.4393 32.632063,726.3621 32.43042,726.3369 C 32.090289,726.1479 31.876578,725.8829 31.599427,725.7191 C 31.309683,725.6939 31.119282,725.6728 30.905111,725.6098 C 30.867325,725.5594 30.82098,725.4923 30.795772,725.4294 C 30.740293,725.1409 30.581151,724.8906 30.58802,724.6202 C 31.244104,724.1181 32.060862,723.6743 32.988064,723.3136 C 33.052162,723.344 33.122002,723.3704 33.239547,723.4065 C 33.277333,723.4317 33.275453,723.4814 33.376224,723.494 C 33.628144,723.4814 33.578986,723.4308 33.616773,723.33 C 33.767926,723.2292 33.896077,723.1646 33.933863,723.0512 C 34.047402,723.026 34.133784,722.9889 34.234551,722.9637 C 34.385704,722.9259 34.486178,722.8851 34.557109,722.8817 z M 44.452487,723.2808 C 44.7168,723.3955 44.968881,723.5151 45.201475,723.6471 C 46.646212,724.4667 47.440575,725.5919 47.257089,726.9437 L 47.262557,726.9437 C 47.080709,728.1998 45.855791,729.4209 44.015122,730.3169 C 43.810527,730.164 43.642056,729.8996 43.566822,729.7921 C 43.529036,729.5275 43.68006,729.4108 43.856579,729.2344 C 43.932156,728.9951 43.809914,728.7947 43.708967,728.6057 C 43.595604,728.4546 43.516658,728.3911 43.441081,728.2777 C 43.478872,728.1769 43.580603,727.9033 43.517623,727.8403 C 43.328678,727.8151 43.151546,727.8491 43.025586,727.8239 C 42.987795,727.7483 42.973755,727.7272 42.910775,727.7146 C 42.192625,727.6642 41.363684,727.9901 40.784091,727.7255 C 40.481783,727.5366 40.255884,727.2972 39.991367,727.146 C 39.903193,726.9697 40.167278,726.6012 40.24285,726.4626 C 40.217661,726.4122 40.204099,726.3638 40.166312,726.326 C 40.267084,725.9732 40.696047,725.8123 41.237854,725.6863 C 41.288242,725.5603 41.290646,725.5301 41.429203,725.4294 C 41.756704,725.3286 41.852527,725.2924 41.751761,725.1287 C 41.625801,725.1161 41.563257,725.156 41.500278,725.156 C 41.500278,725.1182 41.515014,725.079 41.527611,725.0412 C 41.376457,725.0034 41.628159,724.7274 41.653353,724.7022 C 41.905277,724.6518 42.220135,724.6766 42.522615,724.664 C 42.598192,724.5254 42.371679,724.4624 42.396873,724.3742 C 42.548027,724.3364 42.585595,724.2879 42.522615,724.2375 C 42.434441,724.2249 42.344564,724.2102 42.243797,724.2102 C 42.13043,724.0842 42.294747,724.0692 42.446077,724.0189 C 42.509057,723.9055 42.282762,723.8969 42.194593,723.9095 C 42.169399,723.9347 42.159647,723.9608 42.134454,723.986 C 41.958111,724.049 41.932393,724.0438 41.806432,724.1446 C 41.730856,724.1446 41.715149,724.1496 41.702556,724.1118 C 41.715153,724.074 41.742966,724.0238 41.768159,723.986 C 41.919313,723.9608 41.96738,723.8838 42.156324,723.8712 C 42.168917,723.846 42.181996,723.8309 42.194593,723.8056 C 42.068629,723.6419 42.281454,723.6324 42.53355,723.6198 C 42.53355,723.6701 42.498386,723.6678 42.599153,723.7182 C 42.58656,723.7434 42.573485,723.7968 42.560884,723.822 C 42.661654,723.9228 42.999432,723.983 42.949044,724.1719 C 42.911258,724.1719 42.877496,724.1703 42.839705,724.1829 C 42.814511,724.2081 42.82689,724.2632 42.965447,724.2758 C 43.406312,724.2254 43.65539,723.9844 44.184601,723.997 C 44.184601,723.9844 44.208615,723.9604 44.233805,723.9478 C 44.296785,723.6958 44.275355,723.6709 43.960451,723.5323 C 43.792476,723.3403 44.215573,723.3056 44.452487,723.2808 z M 43.391876,724.664 C 43.366687,724.6892 43.344334,724.7263 43.331742,724.7514 C 43.079817,724.8648 42.711336,724.8249 42.648356,725.0139 C 42.44682,725.039 42.39775,725.0317 42.3094,725.1451 C 42.259017,725.1577 42.206708,725.1669 42.156324,725.1669 C 42.118533,725.2047 42.118051,725.204 42.118051,725.2544 C 42.168439,725.267 42.235489,725.291 42.298464,725.3036 C 42.739505,725.2532 43.142843,725.296 43.621494,725.2708 C 43.772648,725.233 43.831646,725.2035 44.02059,725.2161 C 44.02059,725.2665 44.006814,725.3046 44.069794,725.3801 C 44.0446,725.4053 44.007515,725.4206 43.982321,725.4458 C 43.994918,725.4583 43.998724,725.4714 43.998724,725.484 C 44.212858,725.547 44.209446,725.5466 45.015593,725.7355 C 45.330675,725.7229 45.370739,725.6445 45.496695,725.5059 C 45.710828,725.4933 45.923171,725.6316 46.212881,725.6316 C 46.376632,725.6064 46.556126,725.5066 46.60651,725.4184 C 46.417393,725.4184 46.340986,725.3545 46.240215,725.3419 C 46.189832,725.0773 46.173828,724.953 45.682576,725.0412 C 45.669979,725.0664 45.674486,725.1691 45.611506,725.1943 C 45.472949,725.1817 45.421336,725.0773 45.370953,725.0521 C 45.32057,724.8254 45.284311,724.8544 44.906255,724.7788 C 44.755101,724.7032 44.548755,724.7272 44.523561,724.828 C 44.712501,724.891 44.90153,724.9273 45.103067,725.0029 C 45.090474,725.0155 45.081201,725.0139 45.081201,725.0139 C 45.04341,725.0265 44.993249,725.0286 44.955459,725.0412 C 44.930265,725.079 44.851801,725.1669 44.725842,725.1669 C 44.738439,725.1165 44.767438,725.068 44.742244,725.0303 C 44.603687,724.9799 44.465302,724.9292 44.326745,724.8663 C 44.137805,724.7403 44.160548,724.6392 43.845644,724.7022 C 43.643931,724.7022 43.517836,724.664 43.391876,724.664 z"
       id="path2323" />
    <text
       id="text2325"
       y="739.79736"
       x="640.46564"
       style="font-size:9.07296753px;font-style:normal;font-weight:normal;fill:#eeeeec;fill-opacity:1;stroke:none;stroke-width:1px;stroke-linecap:butt;stroke-linejoin:miter;stroke-opacity:1;font-family:Bitstream Vera Sans"
       xml:space="preserve"><tspan
         y="739.79736"
         x="640.46564"
         id="tspan2327"
         sodipodi:role="line">Configuraçöes - Sair</tspan></text>
    <text
       xml:space="preserve"
       style="font-size:10.22413921px;font-style:normal;font-variant:normal;font-weight:bold;font-stretch:normal;text-align:start;line-height:125%;writing-mode:lr-tb;text-anchor:start;opacity:1;fill:#eeeeec;fill-opacity:1;stroke:none;stroke-width:1px;stroke-linecap:butt;stroke-linejoin:miter;stroke-opacity:1;font-family:Bitstream Vera Sans"
       x="485.0271"
       y="740.78119"
       id="text2329"
       sodipodi:linespacing="125%"><tspan
         y="740.78119"
         x="485.0271"
         sodipodi:role="line"
         id="tspan2331">Meu Empreendimento</tspan></text>
    <text
       id="text2333"
       y="728.66693"
       x="650.82404"
       style="font-size:10.67437935px;font-style:normal;font-weight:normal;fill:#2e3436;fill-opacity:1;stroke:none;stroke-width:1px;stroke-linecap:butt;stroke-linejoin:miter;stroke-opacity:1;font-family:Bitstream Vera Sans"
       xml:space="preserve"><tspan
         y="728.66693"
         x="650.82404"
         id="tspan2335"
         sodipodi:role="line">Valessio Brito</tspan></text>
    <rect
       style="fill:#eeeeec;fill-opacity:0.05416667;fill-rule:evenodd;stroke:none;stroke-width:1px;stroke-linecap:butt;stroke-linejoin:miter;stroke-opacity:1;filter:url(#filter4414)"
       id="rect2337"
       width="536.49725"
       height="50.493855"
       x="17.041677"
       y="70.88784"
       transform="matrix(1.3877,0,0,0.4850859,-23.607059,678.50115)" />
    <text
       id="text2339"
       y="710.08197"
       x="8.3795261"
       style="font-size:7.66906166px;font-style:normal;font-weight:normal;fill:#2e3436;fill-opacity:1;stroke:none;stroke-width:1px;stroke-linecap:butt;stroke-linejoin:miter;stroke-opacity:1;font-family:Bitstream Vera Sans"
       xml:space="preserve">Ir para: Conteúdo desta página | Menu desta página web | Empreendimento | Central de buscas</text>
    <text
       xml:space="preserve"
       style="font-size:7.66906166px;font-style:normal;font-weight:normal;fill:#cc0000;fill-opacity:1;stroke:none;stroke-width:1px;stroke-linecap:butt;stroke-linejoin:miter;stroke-opacity:1;font-family:Bitstream Vera Sans"
       x="670.37952"
       y="710.08197"
       id="text2341">Deficiente Visual?</text>
    <text
       xml:space="preserve"
       style="font-size:10.22413921px;font-style:normal;font-variant:normal;font-weight:bold;font-stretch:normal;text-align:start;line-height:125%;writing-mode:lr-tb;text-anchor:start;opacity:1;fill:#eeeeec;fill-opacity:1;stroke:none;stroke-width:1px;stroke-linecap:butt;stroke-linejoin:miter;stroke-opacity:1;font-family:Bitstream Vera Sans"
       x="244.39331"
       y="741.77222"
       id="text2343"
       sodipodi:linespacing="125%"><tspan
         sodipodi:role="line"
         id="tspan2345"
         x="244.39331"
         y="741.77222">Minha rede</tspan></text>
    <rect
       style="fill:url(#linearGradient3408);fill-opacity:1;fill-rule:evenodd;stroke:none;stroke-width:1px;stroke-linecap:butt;stroke-linejoin:miter;stroke-opacity:1;filter:url(#filter4622)"
       id="rect2347"
       width="183.15155"
       height="98.493858"
       x="190.16632"
       y="712.88782"
       transform="matrix(0.790338,0,0,0.6355061,177.14882,278.24375)" />
    <rect
       y="730.1131"
       x="327.44449"
       height="63.018608"
       width="144.75163"
       id="rect2351"
       style="fill:url(#linearGradient3406);fill-opacity:1;fill-rule:evenodd;stroke:none;stroke-width:1px;stroke-linecap:butt;stroke-linejoin:miter;stroke-opacity:1"
       ry="0" />
    <text
       sodipodi:linespacing="125%"
       id="text2355"
       y="740.94604"
       x="346.94733"
       style="font-size:10.22413921000000059px;font-style:normal;font-variant:normal;font-weight:bold;font-stretch:normal;text-align:start;line-height:125%;writing-mode:lr-tb;text-anchor:start;fill:#eeeeec;fill-opacity:1;stroke:none;stroke-width:1px;stroke-linecap:butt;stroke-linejoin:miter;stroke-opacity:1;font-family:Bitstream Vera Sans"
       xml:space="preserve"><tspan
         y="740.94604"
         x="346.94733"
         id="tspan2357"
         sodipodi:role="line">Minha página web</tspan></text>
    <rect
       ry="3.95169"
       y="749.94598"
       x="330.66574"
       height="21.339127"
       width="138.30914"
       id="rect2359"
       style="fill:#cdd4dc;fill-opacity:1;stroke:#eeeeec;stroke-width:0.79033798;stroke-linecap:round;stroke-linejoin:round" />
    <text
       xml:space="preserve"
       style="font-size:10.22413921px;font-style:normal;font-variant:normal;font-weight:bold;font-stretch:normal;text-align:start;line-height:125%;writing-mode:lr-tb;text-anchor:start;fill:#3465a4;fill-opacity:1;stroke:none;stroke-width:1px;stroke-linecap:butt;stroke-linejoin:miter;stroke-opacity:1;font-family:Bitstream Vera Sans"
       x="337.74908"
       y="763.71039"
       id="text2361"
       sodipodi:linespacing="125%"><tspan
         y="763.71039"
         x="337.74908"
         sodipodi:role="line"
         id="tspan2363">Navegar no conteúdo</tspan></text>
    <text
       sodipodi:linespacing="125%"
       id="text2365"
       y="783.79797"
       x="342.49673"
       style="font-size:10.22413921px;font-style:normal;font-variant:normal;font-weight:bold;font-stretch:normal;text-align:start;line-height:125%;writing-mode:lr-tb;text-anchor:start;fill:#204a87;fill-opacity:1;stroke:none;stroke-width:1px;stroke-linecap:butt;stroke-linejoin:miter;stroke-opacity:1;font-family:Bitstream Vera Sans"
       xml:space="preserve"><tspan
         id="tspan2367"
         sodipodi:role="line"
         x="342.49673"
         y="783.79797">Modificar aparencia</tspan></text>
    <path
       style="fill:none;fill-rule:evenodd;stroke:#eeeeec;stroke-width:1;stroke-linecap:round;stroke-linejoin:round;stroke-opacity:1;stroke-miterlimit:4;stroke-dasharray:none"
       d="M 631.07483,746.64458 L 631.07483,714.27026"
       id="path2390" />
    <path
       id="path3376"
       d="M 229.07483,746.64458 L 229.07483,714.27026"
       style="fill:none;fill-rule:evenodd;stroke:#eeeeec;stroke-width:1;stroke-linecap:round;stroke-linejoin:round;stroke-miterlimit:4;stroke-dasharray:none;stroke-opacity:1" />
    <text
       xml:space="preserve"
       style="font-size:13.72070122px;font-style:normal;font-weight:normal;text-align:center;text-anchor:middle;fill:#eeeeec;fill-opacity:1;stroke:none;stroke-width:1px;stroke-linecap:butt;stroke-linejoin:miter;stroke-opacity:1;font-family:Bitstream Vera Sans"
       x="143.07576"
       y="727.5199"
       id="text3378"><tspan
         sodipodi:role="line"
         id="tspan3380"
         x="143.07576"
         y="727.5199">Comunidade Virtual</tspan><tspan
         sodipodi:role="line"
         x="143.07576"
         y="744.67078"
         id="tspan3382"
         dy="-2.2629011">Anhéteguá</tspan></text>
    <text
       xml:space="preserve"
       style="font-size:9.82844353px;font-style:normal;font-weight:normal;fill:#000000;fill-opacity:1;stroke:none;stroke-width:1px;stroke-linecap:butt;stroke-linejoin:miter;stroke-opacity:1;font-family:Bitstream Vera Sans"
       x="241.09406"
       y="724.12213"
       id="text3429"><tspan
         sodipodi:role="line"
         id="tspan3431"
         x="241.09406"
         y="724.12213">Buscar:</tspan></text>
    <rect
       style="opacity:1;fill:#eeeeec;fill-opacity:1;stroke:#204a87;stroke-width:0.67837679;stroke-linecap:round;stroke-linejoin:round;stroke-miterlimit:4;stroke-dasharray:none"
       id="rect3433"
       width="140.33115"
       height="14.349003"
       x="282.34634"
       y="713.43469"
       ry="0" />
    <rect
       ry="0"
       y="713.41919"
       x="426.33084"
       height="14.380018"
       width="127.51692"
       id="rect3437"
       style="opacity:1;fill:#eeeeec;fill-opacity:1;stroke:#204a87;stroke-width:0.64736128;stroke-linecap:round;stroke-linejoin:round;stroke-miterlimit:4;stroke-dasharray:none" />
    <path
       style="opacity:1;fill:#3465a4;fill-opacity:1;stroke:#204a87;stroke-width:0.21666513;stroke-linecap:round;stroke-linejoin:round;stroke-miterlimit:4;stroke-dasharray:none"
       d="M 537.78125,713.43734 L 537.78125,727.78109 L 552.09375,727.78109 L 552.09375,713.43734 L 537.78125,713.43734 z M 539.9375,717.62484 L 545.1875,717.62484 L 550.4375,717.62484 L 547.8125,722.15609 L 545.1875,726.68734 L 542.5625,722.15609 L 539.9375,717.62484 z"
       id="rect3439" />
    <text
       xml:space="preserve"
       style="font-size:10.2332468px;font-style:normal;font-weight:normal;fill:#000000;fill-opacity:1;stroke:none;stroke-width:1px;stroke-linecap:butt;stroke-linejoin:miter;stroke-opacity:1;font-family:Bitstream Vera Sans"
       x="428.5127"
       y="724.26678"
       id="text3444"><tspan
         sodipodi:role="line"
         id="tspan3446"
         x="428.5127"
         y="724.26678">Em meus contatos...</tspan></text>
    <rect
       style="opacity:1;fill:url(#linearGradient3460);fill-opacity:1;stroke:#204a87;stroke-width:0.69999999000000002;stroke-linecap:round;stroke-linejoin:round;stroke-miterlimit:4;stroke-dasharray:none"
       id="rect3452"
       width="64.720238"
       height="15.315476"
       x="559.2619"
       y="712.95148" />
    <text
       xml:space="preserve"
       style="font-size:12px;font-style:normal;font-weight:normal;fill:#000000;fill-opacity:1;stroke:none;stroke-width:1px;stroke-linecap:butt;stroke-linejoin:miter;stroke-opacity:1;font-family:Bitstream Vera Sans"
       x="584.95239"
       y="724.98322"
       id="text3448"><tspan
         sodipodi:role="line"
         id="tspan3450"
         x="584.95239"
         y="724.98322">Ir</tspan></text>
  </g>
</svg>
