<?xml version="1.0" encoding="UTF-8" standalone="no"?>
<!-- Created with Inkscape (http://www.inkscape.org/) -->

<svg
   xmlns:dc="http://purl.org/dc/elements/1.1/"
   xmlns:cc="http://creativecommons.org/ns#"
   xmlns:rdf="http://www.w3.org/1999/02/22-rdf-syntax-ns#"
   xmlns:svg="http://www.w3.org/2000/svg"
   xmlns="http://www.w3.org/2000/svg"
   xmlns:sodipodi="http://sodipodi.sourceforge.net/DTD/sodipodi-0.dtd"
   xmlns:inkscape="http://www.inkscape.org/namespaces/inkscape"
   width="16"
   height="16"
   id="svg2"
   version="1.1"
   inkscape:version="0.48.3.1 r9886"
   sodipodi:docname="calendar.svg"
   inkscape:export-filename="/home/aurium/noosfero/public/images/calendar_date_select/calendar-16.png"
   inkscape:export-xdpi="90"
   inkscape:export-ydpi="90">
  <defs
     id="defs4" />
  <sodipodi:namedview
     id="base"
     pagecolor="#ffffff"
     bordercolor="#666666"
     borderopacity="1.0"
     inkscape:pageopacity="0.0"
     inkscape:pageshadow="2"
     inkscape:zoom="15.09375"
     inkscape:cx="24.5"
     inkscape:cy="2.3627199"
     inkscape:document-units="px"
     inkscape:current-layer="layer1"
     showgrid="true"
     inkscape:snap-bbox="true"
     inkscape:window-width="1366"
     inkscape:window-height="681"
     inkscape:window-x="0"
     inkscape:window-y="27"
     inkscape:window-maximized="1">
    <inkscape:grid
       type="xygrid"
       id="grid2985"
       empspacing="8"
       visible="true"
       enabled="true"
       snapvisiblegridlinesonly="true"
       originx="0.5px"
       originy="0.5px" />
  </sodipodi:namedview>
  <metadata
     id="metadata7">
    <rdf:RDF>
      <cc:Work
         rdf:about="">
        <dc:format>image/svg+xml</dc:format>
        <dc:type
           rdf:resource="http://purl.org/dc/dcmitype/StillImage" />
        <dc:title></dc:title>
      </cc:Work>
    </rdf:RDF>
  </metadata>
  <g
     inkscape:label="Camada 1"
     inkscape:groupmode="layer"
     id="layer1"
     transform="translate(0,-1036.3622)">
    <path
       transform="translate(0,1036.3622)"
       style="fill:#ffffff;fill-rule:evenodd;stroke:#b3b3b3;stroke-width:1px;stroke-linecap:butt;stroke-linejoin:miter;stroke-opacity:1;color:#000000;fill-opacity:1;stroke-miterlimit:4;stroke-dasharray:none;stroke-dashoffset:0;marker:none;visibility:visible;display:inline;overflow:visible;enable-background:accumulate"
       d="m 14.5,5 0,9.5 -13,0 0,-9.5"
       id="rect2989"
       inkscape:connector-curvature="0"
       sodipodi:nodetypes="cccc" />
    <path
       id="path3761"
       style="fill:none;stroke:#000000;stroke-width:1px;stroke-linecap:butt;stroke-linejoin:miter;stroke-opacity:0.35294118"
       d="m 9.5,1042.8622 0,6 m -3,-6 0,6 m -3,-3 9,0 m -9,-3 9,0 0,6 -9,0 z"
       inkscape:connector-curvature="0" />
    <g
       id="g3841"
       inkscape:export-filename="/home/aurium/noosfero/public/images/calendar_date_select/calendar-24.png"
       inkscape:export-xdpi="90"
       inkscape:export-ydpi="90">
      <rect
         inkscape:export-ydpi="90"
         inkscape:export-xdpi="90"
         inkscape:export-filename="/home/aurium/noosfero/public/images/calendar_date_select/alendar-32.png"
         transform="translate(0,1036.3622)"
         y="0.5"
         x="16.5"
         height="23"
         width="23"
         id="rect3767"
         style="fill:none;stroke:#ff00ff;stroke-opacity:0" />
      <path
         style="fill:#ffffff;fill-rule:evenodd;stroke:#b3b3b3;stroke-width:1px;stroke-linecap:butt;stroke-linejoin:miter;stroke-opacity:1"
         d="m 38.5,1043.3622 0,15.5 -21,0 0,-15.5"
         id="path3769"
         inkscape:connector-curvature="0"
         sodipodi:nodetypes="cccc" />
      <path
         sodipodi:nodetypes="ccccccc"
         inkscape:connector-curvature="0"
         id="rect3771"
         d="m 17.5,1039.8622 c 0,-1 1,-2 2,-2 l 17,0 c 1,0 2,1 2,2 l 0,3 -21,0 z"
         style="fill:#80b3ff;fill-opacity:1;stroke:#5f8dd3;stroke-width:1px;stroke-linecap:butt;stroke-linejoin:miter;stroke-opacity:1"
         inkscape:export-xdpi="90"
         inkscape:export-ydpi="90" />
      <path
         inkscape:connector-curvature="0"
         d="m 30.5,1045.8622 0,10 m -5,-10 0,10 m -5,-5 15,0 m -15,-5 15,0 0,10 -15,0 z"
         style="fill:none;stroke:#000000;stroke-width:1px;stroke-linecap:butt;stroke-linejoin:miter;stroke-opacity:0.35294118"
         id="path3857"
         sodipodi:nodetypes="ccccccccccc" />
    </g>
    <g
       inkscape:export-ydpi="90"
       inkscape:export-xdpi="90"
       inkscape:export-filename="/home/aurium/noosfero/public/images/calendar_date_select/calendar-32.png"
       id="g3847"
       transform="translate(24,0)">
      <rect
         style="fill:none;stroke:#ff00ff;stroke-opacity:0"
         id="rect3849"
         width="31"
         height="31"
         x="16.5"
         y="0.5"
         transform="translate(0,1036.3622)"
         inkscape:export-filename="/home/aurium/noosfero/public/images/calendar_date_select/alendar-32.png"
         inkscape:export-xdpi="90"
         inkscape:export-ydpi="90" />
      <path
         sodipodi:nodetypes="cccc"
         inkscape:connector-curvature="0"
         id="path3851"
         d="m 46.5,1043.3622 0,23.5 -29,0 0,-23.5"
         style="fill:#ffffff;fill-rule:evenodd;stroke:#b3b3b3;stroke-width:1px;stroke-linecap:butt;stroke-linejoin:miter;stroke-opacity:1" />
      <path
         style="fill:#80b3ff;fill-opacity:1;stroke:#5f8dd3;stroke-width:1px;stroke-linecap:butt;stroke-linejoin:miter;stroke-opacity:1"
         d="m 17.5,1040.8622 c 0,-2 1,-3 3,-3 l 23,0 c 2,0 3,1 3,3 l 0,2 -29,0 z"
         id="path3853"
         inkscape:connector-curvature="0"
         sodipodi:nodetypes="ccccccc" />
      <path
         d="m 19.5,1049.8622 25,0 m 0,5 -25,0 m 20,-10 0,20 m -5,-20 0,20 m -5,-20 0,20 m -5,-20 0,20 m -5,-5 25,0 m -25,-15 25,0 0,20 -25,0 z"
         style="color:#000000;fill:none;stroke:#000000;stroke-width:1px;stroke-linecap:butt;stroke-linejoin:miter;stroke-miterlimit:4;stroke-opacity:0.35294118;stroke-dasharray:none;stroke-dashoffset:0;marker:none;visibility:visible;display:inline;overflow:visible;enable-background:accumulate"
         id="path3855"
         inkscape:connector-curvature="0" />
    </g>
    <path
       sodipodi:nodetypes="ccccccc"
       inkscape:connector-curvature="0"
       id="rect3771-8"
       d="m 1.5,1038.8622 c 0,-1 1,-1 1,-1 l 11,0 c 0,0 1,0 1,1 l 0,2 -13,0 z"
       style="fill:#80b3ff;fill-opacity:1;stroke:#5f8dd3;stroke-width:1px;stroke-linecap:butt;stroke-linejoin:miter;stroke-opacity:1"
       inkscape:export-xdpi="90"
       inkscape:export-ydpi="90" />
  </g>
</svg>
