<?xml version="1.0" encoding="UTF-8" standalone="no"?>
<!-- Created with Inkscape (http://www.inkscape.org/) -->
<svg
   xmlns:dc="http://purl.org/dc/elements/1.1/"
   xmlns:cc="http://web.resource.org/cc/"
   xmlns:rdf="http://www.w3.org/1999/02/22-rdf-syntax-ns#"
   xmlns:svg="http://www.w3.org/2000/svg"
   xmlns="http://www.w3.org/2000/svg"
   xmlns:xlink="http://www.w3.org/1999/xlink"
   xmlns:sodipodi="http://sodipodi.sourceforge.net/DTD/sodipodi-0.dtd"
   xmlns:inkscape="http://www.inkscape.org/namespaces/inkscape"
   sodipodi:docname="friends.svg"
   sodipodi:docbase="/home/terceiro/src/noosfero/public/images/icons-app"
   inkscape:version="0.45.1"
   sodipodi:version="0.32"
   id="svg3335"
   height="102.40000pt"
   width="102.40000pt"
   inkscape:output_extension="org.inkscape.output.svg.inkscape">
  <defs
     id="defs3">
    <linearGradient
       id="linearGradient2091">
      <stop
         style="stop-color:#25a232;stop-opacity:1.0000000;"
         offset="0.0000000"
         id="stop2093" />
      <stop
         style="stop-color:#006500;stop-opacity:1.0000000;"
         offset="1.0000000"
         id="stop2095" />
    </linearGradient>
    <linearGradient
       id="linearGradient4130"
       inkscape:collect="always">
      <stop
         id="stop4132"
         offset="0"
         style="stop-color:#ffffff;stop-opacity:1;" />
      <stop
         id="stop4134"
         offset="1"
         style="stop-color:#ffffff;stop-opacity:0;" />
    </linearGradient>
    <linearGradient
       id="linearGradient4118">
      <stop
         id="stop4120"
         offset="0"
         style="stop-color:#ffd99b;stop-opacity:1;" />
      <stop
         id="stop4122"
         offset="1.0000000"
         style="stop-color:#b2986c;stop-opacity:1.0000000;" />
    </linearGradient>
    <linearGradient
       id="linearGradient4105">
      <stop
         id="stop4107"
         offset="0.0000000"
         style="stop-color:#25a2ff;stop-opacity:1.0000000;" />
      <stop
         id="stop4109"
         offset="1.0000000"
         style="stop-color:#00659a;stop-opacity:1.0000000;" />
    </linearGradient>
    <linearGradient
       gradientUnits="userSpaceOnUse"
       y2="85.068516"
       x2="100.61058"
       y1="85.068516"
       x1="16.062045"
       id="linearGradient4111"
       xlink:href="#linearGradient4105"
       inkscape:collect="always" />
    <linearGradient
       y2="8.2969255"
       x2="35.607880"
       y1="113.85787"
       x1="73.640739"
       gradientUnits="userSpaceOnUse"
       id="linearGradient4114"
       xlink:href="#linearGradient4105"
       inkscape:collect="always" />
    <radialGradient
       gradientUnits="userSpaceOnUse"
       r="27.627054"
       fy="45.286964"
       fx="57.106434"
       cy="45.286964"
       cx="57.106434"
       id="radialGradient4124"
       xlink:href="#linearGradient4118"
       inkscape:collect="always" />
    <linearGradient
       gradientUnits="userSpaceOnUse"
       y2="96.615082"
       x2="71.071434"
       y1="30.543657"
       x1="9.5745220"
       id="linearGradient4136"
       xlink:href="#linearGradient4130"
       inkscape:collect="always" />
    <linearGradient
       y2="8.2969255"
       x2="35.607880"
       y1="113.85787"
       x1="73.640739"
       gradientUnits="userSpaceOnUse"
       id="linearGradient4144"
       xlink:href="#linearGradient4105"
       inkscape:collect="always" />
    <linearGradient
       y2="96.615082"
       x2="71.071434"
       y1="30.543657"
       x1="9.5745220"
       gradientUnits="userSpaceOnUse"
       id="linearGradient4146"
       xlink:href="#linearGradient4130"
       inkscape:collect="always" />
    <radialGradient
       r="27.627054"
       fy="45.286964"
       fx="57.106434"
       cy="45.286964"
       cx="57.106434"
       gradientUnits="userSpaceOnUse"
       id="radialGradient4148"
       xlink:href="#linearGradient4118"
       inkscape:collect="always" />
    <linearGradient
       y2="8.2969255"
       x2="35.607880"
       y1="113.85787"
       x1="73.640739"
       gradientUnits="userSpaceOnUse"
       id="linearGradient4160"
       xlink:href="#linearGradient4105"
       inkscape:collect="always" />
    <linearGradient
       y2="96.615082"
       x2="71.071434"
       y1="30.543657"
       x1="9.5745220"
       gradientUnits="userSpaceOnUse"
       id="linearGradient4162"
       xlink:href="#linearGradient4130"
       inkscape:collect="always" />
    <radialGradient
       r="27.627054"
       fy="45.286964"
       fx="57.106434"
       cy="45.286964"
       cx="57.106434"
       gradientUnits="userSpaceOnUse"
       id="radialGradient4164"
       xlink:href="#linearGradient4118"
       inkscape:collect="always" />
    <linearGradient
       gradientTransform="translate(-84.09520,-4.477295)"
       y2="96.615082"
       x2="71.071434"
       y1="30.543657"
       x1="9.5745220"
       gradientUnits="userSpaceOnUse"
       id="linearGradient4169"
       xlink:href="#linearGradient4130"
       inkscape:collect="always" />
    <linearGradient
       gradientTransform="translate(-84.09520,-4.477295)"
       y2="8.2969255"
       x2="35.607880"
       y1="113.85787"
       x1="73.640739"
       gradientUnits="userSpaceOnUse"
       id="linearGradient4172"
       xlink:href="#linearGradient4105"
       inkscape:collect="always" />
    <linearGradient
       gradientTransform="translate(6.060915,-4.04061)"
       y2="96.615082"
       x2="71.071434"
       y1="30.543657"
       x1="9.5745220"
       gradientUnits="userSpaceOnUse"
       id="linearGradient4184"
       xlink:href="#linearGradient4130"
       inkscape:collect="always" />
    <linearGradient
       gradientTransform="translate(6.060915,-4.04061)"
       y2="127.09025"
       x2="84.893593"
       y1="81.000732"
       x1="53.640739"
       gradientUnits="userSpaceOnUse"
       id="linearGradient4187"
       xlink:href="#linearGradient4105"
       inkscape:collect="always" />
    <radialGradient
       inkscape:collect="always"
       xlink:href="#linearGradient4118"
       id="radialGradient1354"
       gradientUnits="userSpaceOnUse"
       cx="57.106434"
       cy="45.286964"
       fx="57.106434"
       fy="45.286964"
       r="27.627054" />
    <linearGradient
       inkscape:collect="always"
       xlink:href="#linearGradient4130"
       id="linearGradient1359"
       gradientUnits="userSpaceOnUse"
       gradientTransform="translate(160.9926,-28.93271)"
       x1="9.5745220"
       y1="30.543657"
       x2="71.071434"
       y2="96.615082" />
    <linearGradient
       inkscape:collect="always"
       xlink:href="#linearGradient2091"
       id="linearGradient1362"
       gradientUnits="userSpaceOnUse"
       gradientTransform="translate(160.9926,-28.93271)"
       x1="53.640739"
       y1="81.000732"
       x2="84.893593"
       y2="127.09025" />
    <linearGradient
       inkscape:collect="always"
       xlink:href="#linearGradient2091"
       id="linearGradient2104"
       gradientUnits="userSpaceOnUse"
       gradientTransform="translate(160.9926,-28.93271)"
       x1="53.640739"
       y1="81.000732"
       x2="84.893593"
       y2="127.09025" />
    <linearGradient
       inkscape:collect="always"
       xlink:href="#linearGradient4130"
       id="linearGradient2106"
       gradientUnits="userSpaceOnUse"
       gradientTransform="translate(160.9926,-28.93271)"
       x1="9.5745220"
       y1="30.543657"
       x2="71.071434"
       y2="96.615082" />
    <radialGradient
       inkscape:collect="always"
       xlink:href="#linearGradient4118"
       id="radialGradient2108"
       gradientUnits="userSpaceOnUse"
       cx="57.106434"
       cy="45.286964"
       fx="57.106434"
       fy="45.286964"
       r="27.627054" />
  </defs>
  <sodipodi:namedview
     inkscape:window-y="106"
     inkscape:window-x="167"
     inkscape:window-height="603"
     inkscape:window-width="844"
     inkscape:current-layer="layer1"
     inkscape:document-units="px"
     inkscape:cy="64"
     inkscape:cx="64"
     inkscape:zoom="2.9609375"
     inkscape:pageshadow="2"
     inkscape:pageopacity="0.0"
     borderopacity="1.0"
     bordercolor="#666666"
     pagecolor="#ffffff"
     id="base" />
  <metadata
     id="metadata4">
    <rdf:RDF>
      <cc:Work
         rdf:about="">
        <dc:format>image/svg+xml</dc:format>
        <dc:type
           rdf:resource="http://purl.org/dc/dcmitype/StillImage" />
      </cc:Work>
    </rdf:RDF>
  </metadata>
  <g
     id="layer1"
     inkscape:groupmode="layer"
     inkscape:label="Layer 1">
    <g
       id="g1331"
       transform="matrix(0.742448,0,0,0.742448,45.262994,17.778284)">
      <path
         style="fill:#000000;fill-opacity:0.29288701;stroke:none;stroke-width:3.23125005;stroke-linecap:round;stroke-linejoin:round;stroke-miterlimit:4;stroke-opacity:1"
         d="M 68.558242,8.805839 C 60.941054,8.6767932 53.580563,10.953161 49.026992,15.149589 C 44.741278,20.62578 46.391442,15.470152 42.105728,20.946342 C 46.470909,20.597127 44.56407,22.893394 44.558242,34.837089 C 44.393109,36.020805 44.183242,37.201875 44.183242,38.430839 C 44.183242,46.070874 47.552349,52.861194 52.808242,57.618339 C 37.160471,66.058052 30.261301,87.850195 29.558242,122.55584 C 29.558242,124.77183 31.342242,126.55584 33.558242,126.55584 L 106.87074,126.55584 C 109.08674,126.55584 110.87074,124.77183 110.87074,122.55584 C 110.35674,87.282722 103.49106,65.792389 87.714492,57.524589 C 92.897694,52.771456 97.351713,73.537728 97.351713,65.951578 C 97.351713,64.031478 97.122101,48.285684 96.726713,46.483736 C 96.925138,33.454469 95.089337,29.876563 95.506077,29.428954 C 93.273934,13.43193 81.253555,9.0209153 68.558242,8.805839 z "
         id="path4152"
         sodipodi:nodetypes="ccccsccccccsccc" />
      <path
         style="fill:url(#linearGradient4187);fill-opacity:1;stroke:#070707;stroke-width:3.23125005;stroke-linecap:round;stroke-linejoin:round;stroke-miterlimit:4;stroke-opacity:1"
         d="M 105.05587,117.43401 C 105.05587,119.65001 103.27187,121.43401 101.05587,121.43401 L 27.738585,121.43401 C 25.522585,121.43401 23.738585,119.65001 23.738585,117.43401 C 24.664559,71.724607 36.323403,48.36483 64.58663,48.491099 C 92.849857,48.617368 104.38243,71.219531 105.05587,117.43401 z "
         id="rect3345"
         sodipodi:nodetypes="cccczc" />
      <path
         style="fill:url(#linearGradient4184);fill-opacity:1;fill-rule:evenodd;stroke:none;stroke-width:0.25pt;stroke-linecap:butt;stroke-linejoin:miter;stroke-opacity:1"
         d="M 26.7752,114.67367 C 40.703772,89.435578 87.846629,104.19748 90.346629,65.030818 C 86.418058,55.030818 76.060915,53.602247 68.560915,51.816533 C 30.346629,44.91177 26.060915,96.93558 26.7752,114.67367 z "
         id="path4128"
         sodipodi:nodetypes="cccc" />
      <path
         sodipodi:type="arc"
         style="fill:url(#radialGradient4148);fill-opacity:1;stroke:#070707;stroke-width:3.23125005;stroke-linecap:round;stroke-linejoin:round;stroke-miterlimit:4;stroke-dasharray:none;stroke-opacity:1"
         id="path4116"
         sodipodi:cx="63.892147"
         sodipodi:cy="53.501251"
         sodipodi:rx="26.011429"
         sodipodi:ry="26.011429"
         d="M 89.903576 53.501251 A 26.011429 26.011429 0 1 1  37.880718,53.501251 A 26.011429 26.011429 0 1 1  89.903576 53.501251 z"
         transform="translate(0.505076,-20.20305)" />
      <path
         style="fill:#000000;fill-opacity:1;fill-rule:evenodd;stroke:#000000;stroke-width:0.25pt;stroke-linecap:butt;stroke-linejoin:miter;stroke-opacity:1"
         d="M 45.933103,7.3014874 C 41.647383,12.777677 38.391493,15.929087 37.771893,21.285207 C 37.113473,26.976837 27.164044,90.564213 46.747935,83.010033 C 51.453774,81.194823 42.398189,46.480217 44.544877,33.803377 C 45.644327,27.310787 52.682087,19.656737 55.575963,17.301487 C 64.007716,10.439097 68.602358,13.537107 74.147383,15.515777 C 76.283466,16.278007 81.8515,21.844937 83.731513,30.793127 C 86.731795,45.073417 80.004834,83.598073 84.191444,83.797343 C 97.770914,84.443723 96.316543,46.299947 93.450103,24.767487 C 90.583653,3.2350274 58.075963,-3.8889926 45.933103,7.3014874 z "
         id="path4126"
         sodipodi:nodetypes="czsszzsszc" />
    </g>
    <g
       id="g2201"
       transform="matrix(0.742448,0,0,0.742448,-15.002776,18.294973)">
      <path
         style="fill:#000000;fill-opacity:0.29288701;stroke:none;stroke-width:3.23125005;stroke-linecap:round;stroke-linejoin:round;stroke-miterlimit:4;stroke-opacity:1"
         d="M 68.558242,8.805839 C 60.941054,8.6767932 53.580563,10.953161 49.026992,15.149589 C 44.741278,20.62578 35.474124,16.607373 35.737292,25.040336 C 39.647585,34.471218 44.56407,22.893394 44.558242,34.837089 C 44.393109,36.020805 44.183242,37.201875 44.183242,38.430839 C 44.183242,46.070874 47.552349,52.861194 52.808242,57.618339 C 37.160471,66.058052 30.261301,87.850195 29.558242,122.55584 C 29.558242,124.77183 31.342242,126.55584 33.558242,126.55584 L 106.87074,126.55584 C 109.08674,126.55584 110.87074,124.77183 110.87074,122.55584 C 110.35674,87.282722 103.49106,65.792389 87.714492,57.524589 C 92.897694,52.771456 96.214492,46.016989 96.214492,38.430839 C 96.214492,36.510739 94.467879,31.515801 94.072491,29.713853 C 94.498361,29.421457 97.243032,26.500151 95.799918,23.542719 C 94.33922,20.549249 81.253555,9.0209153 68.558242,8.805839 z "
         id="path2203"
         sodipodi:nodetypes="ccccsccccccsczc" />
      <path
         style="fill:#d40000;fill-opacity:1;stroke:#070707;stroke-width:3.23125005;stroke-linecap:round;stroke-linejoin:round;stroke-miterlimit:4;stroke-opacity:1"
         d="M 105.05587,117.43401 C 105.05587,119.65001 103.27187,121.43401 101.05587,121.43401 L 27.738585,121.43401 C 25.522585,121.43401 23.738585,119.65001 23.738585,117.43401 C 24.664559,71.724607 36.323403,48.36483 64.58663,48.491099 C 92.849857,48.617368 104.38243,71.219531 105.05587,117.43401 z "
         id="path2205"
         sodipodi:nodetypes="cccczc" />
      <path
         style="fill:#ff2a2a;fill-opacity:1;fill-rule:evenodd;stroke:none;stroke-width:0.25pt;stroke-linecap:butt;stroke-linejoin:miter;stroke-opacity:1"
         d="M 26.7752,114.67367 C 40.703772,89.435578 87.846629,104.19748 90.346629,65.030818 C 86.418058,55.030818 76.060915,53.602247 68.560915,51.816533 C 30.346629,44.91177 26.060915,96.93558 26.7752,114.67367 z "
         id="path2207"
         sodipodi:nodetypes="cccc" />
      <path
         sodipodi:type="arc"
         style="fill:#784421;fill-opacity:1;stroke:#070707;stroke-width:3.23125005;stroke-linecap:round;stroke-linejoin:round;stroke-miterlimit:4;stroke-dasharray:none;stroke-opacity:1"
         id="path2209"
         sodipodi:cx="63.892147"
         sodipodi:cy="53.501251"
         sodipodi:rx="26.011429"
         sodipodi:ry="26.011429"
         d="M 89.903576 53.501251 A 26.011429 26.011429 0 1 1  37.880718,53.501251 A 26.011429 26.011429 0 1 1  89.903576 53.501251 z"
         transform="translate(0.505076,-20.20305)" />
      <path
         style="opacity:1;fill:#000000;fill-opacity:1;stroke:#000000;stroke-width:1.5;stroke-miterlimit:4;stroke-dasharray:none;stroke-dashoffset:0;stroke-opacity:1"
         d="M 148.59375,21.9375 C 147.42858,21.9375 146.5,22.944472 146.5,24.15625 C 146.5,25.368028 147.42858,26.343749 148.59375,26.34375 C 149.27403,26.34375 149.86389,25.988935 150.25,25.46875 C 150.59615,26.189748 151.32916,26.6875 152.15625,26.6875 C 153.03013,26.6875 153.77317,26.131571 154.09375,25.34375 C 154.28812,25.655431 154.55867,25.886596 154.875,26.0625 C 153.94227,26.289782 153.25,27.148482 153.25,28.1875 C 153.25,29.399278 154.17858,30.406249 155.34375,30.40625 C 156.03113,30.40625 156.64575,30.060755 157.03125,29.53125 C 157.41635,29.957317 157.95629,30.21875 158.5625,30.21875 C 159.43638,30.21875 160.17942,29.662821 160.5,28.875 C 160.60686,28.612393 160.6875,28.334195 160.6875,28.03125 C 160.6875,26.819472 159.72767,25.84375 158.5625,25.84375 C 157.87284,25.84375 157.26027,26.186251 156.875,26.71875 C 156.72392,26.55105 156.56988,26.393184 156.375,26.28125 C 157.29003,26.040909 157.96875,25.182202 157.96875,24.15625 C 157.96875,22.944472 157.04018,21.937501 155.875,21.9375 C 155.01018,21.9375 154.23229,22.475189 153.90625,23.25 C 153.5268,22.666029 152.88448,22.281249 152.15625,22.28125 C 151.46887,22.28125 150.85425,22.626745 150.46875,23.15625 C 150.12177,22.437746 149.41908,21.937501 148.59375,21.9375 z M 160.5,28.875 C 160.39314,29.137607 160.34375,29.415805 160.34375,29.71875 C 160.34375,30.930528 161.27233,31.906249 162.4375,31.90625 C 163.60267,31.90625 164.5625,30.930528 164.5625,29.71875 C 164.5625,28.506972 163.60267,27.531251 162.4375,27.53125 C 161.56362,27.53125 160.82058,28.087179 160.5,28.875 z M 160.9375,22.125 C 159.77233,22.125 158.81249,23.100722 158.8125,24.3125 C 158.8125,25.524278 159.77233,26.5 160.9375,26.5 C 162.10267,26.5 163.03125,25.524279 163.03125,24.3125 C 163.03125,23.100722 162.10267,22.125001 160.9375,22.125 z M 143.875,22.78125 C 142.70983,22.78125 141.74999,23.788221 141.75,25 C 141.75,26.211778 142.70983,27.187501 143.875,27.1875 C 145.04017,27.1875 145.96875,26.211778 145.96875,25 C 145.96875,23.788222 145.04017,22.78125 143.875,22.78125 z M 165.65625,23.46875 C 164.49108,23.46875 163.53125,24.444472 163.53125,25.65625 C 163.53125,26.868028 164.49108,27.874999 165.65625,27.875 C 166.82142,27.875 167.78126,26.868029 167.78125,25.65625 C 167.78125,24.444472 166.82142,23.468751 165.65625,23.46875 z M 140.59375,26.5 C 139.42858,26.5 138.46875,27.506971 138.46875,28.71875 C 138.46875,29.070354 138.54601,29.392785 138.6875,29.6875 C 138.30544,29.29016 137.80133,29.03125 137.21875,29.03125 C 136.05358,29.03125 135.09375,30.038222 135.09375,31.25 C 135.09375,31.87179 135.35014,32.412958 135.75,32.8125 C 134.78842,33.01731 134.09375,33.908443 134.09375,34.96875 C 134.09375,36.180528 135.02233,37.156252 136.1875,37.15625 C 136.43146,37.15625 136.65695,37.079295 136.875,37 C 137.19558,37.78782 137.93863,38.343749 138.8125,38.34375 C 139.97767,38.34375 140.90625,37.336778 140.90625,36.125 C 140.90625,36.071177 140.90992,36.021606 140.90625,35.96875 C 140.93698,35.970133 140.96895,35.96875 141,35.96875 C 142.12293,35.96875 143.02859,35.057193 143.09375,33.90625 C 143.24003,33.939646 143.37537,33.9375 143.53125,33.9375 C 144.69642,33.9375 145.65625,32.961778 145.65625,31.75 C 145.65625,30.538222 144.69642,29.5625 143.53125,29.5625 C 143.09431,29.5625 142.68066,29.700722 142.34375,29.9375 C 142.57142,29.587118 142.6875,29.173167 142.6875,28.71875 C 142.6875,27.506972 141.75892,26.5 140.59375,26.5 z M 151.125,26.6875 C 150.21727,26.6875 149.45418,27.288275 149.15625,28.125 C 148.82159,27.371975 148.09961,26.84375 147.25,26.84375 C 146.08483,26.84375 145.125,27.819471 145.125,29.03125 C 145.125,30.243028 146.08483,31.250001 147.25,31.25 C 148.16797,31.25 148.92837,30.632832 149.21875,29.78125 C 149.55341,30.534276 150.2754,31.0625 151.125,31.0625 C 152.29017,31.0625 153.25,30.086778 153.25,28.875 C 153.25,27.663222 152.29017,26.6875 151.125,26.6875 z M 168.1875,27.03125 C 167.02233,27.03125 166.09374,28.006971 166.09375,29.21875 C 166.09375,29.597431 166.18121,29.938956 166.34375,30.25 C 165.25128,30.333069 164.375,31.28025 164.375,32.4375 C 164.375,33.649278 165.33482,34.625002 166.5,34.625 C 167.66517,34.625 168.625,33.649277 168.625,32.4375 C 168.625,32.068917 168.49829,31.711337 168.34375,31.40625 C 169.43717,31.32419 170.3125,30.376705 170.3125,29.21875 C 170.3125,28.006972 169.35267,27.03125 168.1875,27.03125 z M 139.09375,30.25 C 139.47581,30.64734 140.01116,30.90625 140.59375,30.90625 C 141.03874,30.90625 141.44075,30.776069 141.78125,30.53125 C 141.57515,30.848432 141.46,31.219472 141.4375,31.625 C 141.30013,31.595741 141.14565,31.5625 141,31.5625 C 139.83483,31.5625 138.90624,32.569472 138.90625,33.78125 C 138.90625,33.845837 138.90099,33.905574 138.90625,33.96875 C 138.87214,33.967043 138.84702,33.9375 138.8125,33.9375 C 138.56854,33.9375 138.34305,34.014455 138.125,34.09375 C 138.01253,33.81736 137.8613,33.57988 137.65625,33.375 C 138.59878,33.155187 139.3125,32.296253 139.3125,31.25 C 139.3125,30.896565 139.23663,30.545855 139.09375,30.25 z M 172.0625,30.40625 C 170.89733,30.40625 169.96876,31.38197 169.96875,32.59375 C 169.96875,32.791073 169.98424,32.974295 170.03125,33.15625 C 169.92321,33.138497 169.83156,33.09375 169.71875,33.09375 C 168.55358,33.09375 167.59374,34.06947 167.59375,35.28125 C 167.59375,36.493028 168.55358,37.499998 169.71875,37.5 C 170.24018,37.5 170.69407,37.294987 171.0625,36.96875 C 171.41604,37.666689 172.09548,38.156249 172.90625,38.15625 C 174.07142,38.15625 175.03126,37.180528 175.03125,35.96875 C 175.03125,35.049272 174.49044,34.264171 173.71875,33.9375 C 173.99972,33.564644 174.1875,33.103843 174.1875,32.59375 C 174.1875,31.381972 173.22767,30.40625 172.0625,30.40625 z "
         id="path3192"
         transform="matrix(1.3468957,0,0,1.3468957,-143.2569,-27.301779)" />
    </g>
  </g>
</svg>
