<?xml version="1.0" encoding="UTF-8" standalone="no"?>
<svg
   xmlns:dc="http://purl.org/dc/elements/1.1/"
   xmlns:cc="http://creativecommons.org/ns#"
   xmlns:rdf="http://www.w3.org/1999/02/22-rdf-syntax-ns#"
   xmlns:svg="http://www.w3.org/2000/svg"
   xmlns="http://www.w3.org/2000/svg"
   xmlns:xlink="http://www.w3.org/1999/xlink"
   xmlns:sodipodi="http://sodipodi.sourceforge.net/DTD/sodipodi-0.dtd"
   xmlns:inkscape="http://www.inkscape.org/namespaces/inkscape"
   id="svg2"
   sodipodi:version="0.32"
   inkscape:version="0.45+devel"
   width="1200"
   height="110"
   sodipodi:docname="bg-top.svg"
   inkscape:output_extension="org.inkscape.output.svg.inkscape"
   version="1.0"
   inkscape:export-filename="/home/aurium/noosfero/public/artwork/screens/bg-top.png"
   inkscape:export-xdpi="90"
   inkscape:export-ydpi="90">
  <metadata
     id="metadata7">
    <rdf:RDF>
      <cc:Work
         rdf:about="">
        <dc:format></dc:format>
        <dc:type
           rdf:resource="" />
        <dc:title></dc:title>
        <dc:date></dc:date>
        <dc:creator>
          <cc:Agent>
            <dc:title></dc:title>
          </cc:Agent>
        </dc:creator>
        <dc:rights>
          <cc:Agent>
            <dc:title></dc:title>
          </cc:Agent>
        </dc:rights>
        <dc:publisher>
          <cc:Agent>
            <dc:title></dc:title>
          </cc:Agent>
        </dc:publisher>
        <dc:identifier></dc:identifier>
        <dc:source></dc:source>
        <dc:relation></dc:relation>
        <dc:language></dc:language>
        <dc:subject>
          <rdf:Bag />
        </dc:subject>
        <dc:coverage></dc:coverage>
        <dc:description></dc:description>
        <dc:contributor>
          <cc:Agent>
            <dc:title></dc:title>
          </cc:Agent>
        </dc:contributor>
        <cc:license
           rdf:resource="" />
      </cc:Work>
    </rdf:RDF>
  </metadata>
  <defs
     id="defs5">
    <inkscape:perspective
       sodipodi:type="inkscape:persp3d"
       id="perspective83"
       inkscape:vp_x="-50 : 600 : 1"
       inkscape:vp_y="0 : 1000 : 0"
       inkscape:vp_z="700 : 600 : 1"
       inkscape:persp3d-origin="300 : 400 : 1" />
    <linearGradient
       id="linearGradient4380"
       inkscape:collect="always">
      <stop
         id="stop4382"
         offset="0"
         style="stop-color:#3465a4;stop-opacity:1" />
      <stop
         id="stop4384"
         offset="1"
         style="stop-color:#ffffff;stop-opacity:0" />
    </linearGradient>
    <linearGradient
       inkscape:collect="always"
       id="linearGradient3742">
      <stop
         style="stop-color:#ffffff;stop-opacity:1;"
         offset="0"
         id="stop3744" />
      <stop
         style="stop-color:#ffffff;stop-opacity:0;"
         offset="1"
         id="stop3746" />
    </linearGradient>
    <linearGradient
       inkscape:collect="always"
       xlink:href="#linearGradient3742"
       id="linearGradient3748"
       x1="0"
       y1="160"
       x2="0"
       y2="30"
       gradientUnits="userSpaceOnUse"
       gradientTransform="matrix(1.6000003,0,0,0.7692309,0,-13.076924)" />
    <linearGradient
       inkscape:collect="always"
       xlink:href="#linearGradient4380"
       id="linearGradient4378"
       gradientUnits="userSpaceOnUse"
       gradientTransform="matrix(1.6000004,0,0,0.7692309,0,-23.076924)"
       x1="0"
       y1="29.999996"
       x2="0"
       y2="159.99997" />
  </defs>
  <sodipodi:namedview
     inkscape:window-height="699"
     inkscape:window-width="1024"
     inkscape:pageshadow="2"
     inkscape:pageopacity="1"
     guidetolerance="10.0"
     gridtolerance="10.0"
     objecttolerance="10.0"
     borderopacity="1.0"
     bordercolor="#666666"
     pagecolor="#ffffff"
     id="base"
     showgrid="false"
     inkscape:zoom="0.70710678"
     inkscape:cx="587.61905"
     inkscape:cy="55"
     inkscape:window-x="0"
     inkscape:window-y="0"
     inkscape:current-layer="svg2" />
  <rect
     y="0"
     x="0"
     height="100"
     width="1200"
     id="rect4376"
     style="opacity:1;fill:url(#linearGradient4378);fill-opacity:1;fill-rule:evenodd;stroke:none;stroke-width:1.5;stroke-linecap:round;stroke-linejoin:round;marker:none;marker-start:none;marker-mid:none;marker-end:none;stroke-miterlimit:4;stroke-dasharray:none;stroke-dashoffset:0;stroke-opacity:1;visibility:visible;display:inline;overflow:visible;enable-background:accumulate" />
  <path
     style="fill:#3465a4;fill-opacity:1;stroke:#ffffff;stroke-width:1.5;stroke-linecap:round;stroke-linejoin:round;stroke-miterlimit:4;stroke-dasharray:none;stroke-opacity:1"
     d="M 581.59041,-108.6875 C 575.96126,-108.6875 571.39589,-104.11847 571.39588,-98.48483 C 571.39588,-94.8321 573.33595,-91.64563 576.22096,-89.84228 L 554.39675,-80.58063 C 551.94174,-79.53998 550.40497,-76.19504 551.79863,-72.85434 C 553.11962,-69.68783 556.89354,-68.24271 559.24658,-69.28835 L 571.64332,-74.78591 C 567.56552,-62.02486 563.98397,-49.10761 560.21159,-36.2535 C 559.36961,-33.30379 560.88677,-30.39886 563.57678,-29.06222 C 566.29441,-27.63007 569.51446,-29.12751 570.43835,-31.99183 C 572.59242,-38.84691 574.58144,-45.06578 576.86431,-52.22612 C 580.81864,-52.56542 584.10581,-52.62065 587.9594,-53.01107 C 590.30065,-46.06321 592.31368,-39.5833 594.43484,-33.05897 C 595.27014,-30.48972 598.41772,-28.87864 600.56906,-29.27011 C 604.12394,-29.91699 605.20462,-33.66971 604.28066,-36.67448 L 592.57675,-74.73638 L 604.67656,-68.47115 C 607.269,-67.12757 611.13186,-67.81777 612.02553,-70.60083 C 612.92617,-73.40562 611.97655,-77.12588 609.69959,-78.50047 C 602.69022,-82.73203 595.31917,-85.75611 587.6032,-90.26326 C 590.13567,-92.12081 591.80968,-95.104 591.80968,-98.48483 C 591.80968,-104.11848 587.21956,-108.6875 581.59041,-108.6875 z"
     id="path2383"
     sodipodi:nodetypes="csccscccccccsssccsscsc"
     inkscape:tile-cx="447.81639"
     inkscape:tile-cy="-260.59962"
     inkscape:tile-w="61.091797"
     inkscape:tile-h="80.175764"
     inkscape:tile-x0="417.27049"
     inkscape:tile-y0="-300.6875" />
  <g
     id="g2436"
     style="opacity:0.5">
    <use
       height="110"
       width="1100"
       style="opacity:0.57999997999999997;fill:#3dae00;stroke:#3dae00"
       id="use4296"
       transform="matrix(-0.72,0,0,0.72,758.0588,72.21623)"
       xlink:href="#path2383"
       inkscape:tiled-clone-of="#path2383"
       y="0"
       x="0" />
    <use
       height="110"
       width="1100"
       style="opacity:0.33999998999999997;fill:#3dae00;stroke:#3dae00"
       id="use4330"
       transform="matrix(0.56,0,0,0.56,697.64161,66.2906)"
       xlink:href="#path2383"
       inkscape:tiled-clone-of="#path2383"
       y="0"
       x="0" />
    <use
       height="110"
       width="1100"
       style="opacity:0.43000003999999997;fill:#3dae00;stroke:#3dae00"
       id="use4318"
       transform="matrix(0.62,0,0,0.62,602.41566,68.64814)"
       xlink:href="#path2383"
       inkscape:tiled-clone-of="#path2383"
       y="0"
       x="0" />
    <use
       height="110"
       width="1100"
       style="opacity:0.76000000999999995;fill:#3dae00;stroke:#3dae00"
       id="use4274"
       transform="matrix(0.84,0,0,0.84,256.95255,92.01236)"
       xlink:href="#path2383"
       inkscape:tiled-clone-of="#path2383"
       y="0"
       x="0" />
    <use
       height="110"
       width="1100"
       style="opacity:0.48999999000000000;fill:#3dae00;stroke:#3dae00"
       id="use4308"
       transform="matrix(-0.66,0,0,0.66,667.5543,75.15262)"
       xlink:href="#path2383"
       inkscape:tiled-clone-of="#path2383"
       y="0"
       x="0" />
    <use
       height="110"
       width="1100"
       style="opacity:0.73000003999999996;fill:#3dae00;stroke:#3dae00"
       id="use4276"
       transform="matrix(-0.82,0,0,0.82,910.6428,76.9472)"
       xlink:href="#path2383"
       inkscape:tiled-clone-of="#path2383"
       y="0"
       x="0" />
    <use
       height="110"
       width="1100"
       style="opacity:0.76000000999999995;fill:#3dae00;stroke:#3dae00"
       id="use4272"
       transform="matrix(-0.84,0,0,0.84,939.6212,95.67017)"
       xlink:href="#path2383"
       inkscape:tiled-clone-of="#path2383"
       y="0"
       x="0" />
    <use
       height="110"
       width="1100"
       style="opacity:0.81999971999999999;fill:#3dae00;stroke:#3dae00"
       id="use4266"
       transform="matrix(0.88,0,0,0.88,181.2534,88.19027)"
       xlink:href="#path2383"
       inkscape:tiled-clone-of="#path2383"
       y="0"
       x="0" />
    <use
       height="110"
       width="1100"
       style="opacity:0.91000000999999997;fill:#3dae00;stroke:#3dae00"
       id="use4252"
       transform="matrix(-0.94,0,0,0.94,1075.4704,92.91116)"
       xlink:href="#path2383"
       inkscape:tiled-clone-of="#path2383"
       y="0"
       x="0" />
    <use
       height="110"
       width="1100"
       style="opacity:0.97000001999999996;fill:#3dae00;stroke:#3dae00"
       id="use4244"
       transform="matrix(-0.98,0,0,0.98,1133.7059,107.02425)"
       xlink:href="#path2383"
       inkscape:tiled-clone-of="#path2383"
       y="0"
       x="0" />
    <use
       height="110"
       width="1100"
       style="opacity:0.97000001999999996;fill:#3dae00;stroke:#3dae00"
       id="use4246"
       transform="matrix(0.98,0,0,0.98,25.40862,103.70923)"
       xlink:href="#path2383"
       inkscape:tiled-clone-of="#path2383"
       y="0"
       x="0" />
    <use
       height="110"
       width="1100"
       style="opacity:0.93999999000000001;fill:#3dae00;stroke:#3dae00"
       id="use4248"
       transform="matrix(-0.96,0,0,0.96,1100.787,127.17746)"
       xlink:href="#path2383"
       inkscape:tiled-clone-of="#path2383"
       y="0"
       x="0" />
    <use
       height="110"
       width="1100"
       style="opacity:0.93999999000000001;fill:#3dae00;stroke:#3dae00"
       id="use4250"
       transform="matrix(0.96,0,0,0.96,75.49012,110.69009)"
       xlink:href="#path2383"
       inkscape:tiled-clone-of="#path2383"
       y="0"
       x="0" />
    <use
       height="110"
       width="1100"
       style="opacity:0.87999998000000001;fill:#3dae00;stroke:#3dae00"
       id="use4258"
       transform="matrix(0.92,0,0,0.92,135.79301,106.07766)"
       xlink:href="#path2383"
       inkscape:tiled-clone-of="#path2383"
       y="0"
       x="0" />
    <use
       height="110"
       width="1100"
       style="opacity:0.84999999999999998;fill:#3dae00;stroke:#3dae00"
       id="use4260"
       transform="matrix(-0.9,0,0,0.9,1017.2338,110.49209)"
       xlink:href="#path2383"
       inkscape:tiled-clone-of="#path2383"
       y="0"
       x="0" />
    <use
       height="110"
       width="1100"
       style="opacity:0.81999971999999999;fill:#3dae00;stroke:#3dae00"
       id="use4264"
       transform="matrix(-0.88,0,0,0.88,981.9665,113.01269)"
       xlink:href="#path2383"
       inkscape:tiled-clone-of="#path2383"
       y="0"
       x="0" />
    <use
       height="110"
       width="1100"
       style="opacity:0.79000004999999995;fill:#3dae00;stroke:#3dae00"
       id="use4270"
       transform="matrix(0.86,0,0,0.86,227.46846,118.75474)"
       xlink:href="#path2383"
       inkscape:tiled-clone-of="#path2383"
       y="0"
       x="0" />
    <use
       height="110"
       width="1100"
       style="opacity:0.73000003999999996;fill:#3dae00;stroke:#3dae00"
       id="use4278"
       transform="matrix(0.82,0,0,0.82,290.7561,103.88781)"
       xlink:href="#path2383"
       inkscape:tiled-clone-of="#path2383"
       y="0"
       x="0" />
    <use
       height="110"
       width="1100"
       style="opacity:0.69999999999999996;fill:#3dae00;stroke:#3dae00"
       id="use4280"
       transform="matrix(-0.8,0,0,0.8,865.1784,88.01207)"
       xlink:href="#path2383"
       inkscape:tiled-clone-of="#path2383"
       y="0"
       x="0" />
    <use
       height="110"
       width="1100"
       style="opacity:0.67000002000000003;fill:#3dae00;stroke:#3dae00"
       id="use4284"
       transform="matrix(-0.78,0,0,0.78,816.0613,89.16391)"
       xlink:href="#path2383"
       inkscape:tiled-clone-of="#path2383"
       y="0"
       x="0" />
    <use
       height="110"
       width="1100"
       style="opacity:0.67000002000000003;fill:#3dae00;stroke:#3dae00"
       id="use4286"
       transform="matrix(0.78,0,0,0.78,352.14269,85.73183)"
       xlink:href="#path2383"
       inkscape:tiled-clone-of="#path2383"
       y="0"
       x="0" />
    <use
       height="110"
       width="1100"
       style="opacity:0.61000001000000004;fill:#3dae00;stroke:#3dae00"
       id="use4292"
       transform="matrix(-0.74,0,0,0.74,774.6387,116.04143)"
       xlink:href="#path2383"
       inkscape:tiled-clone-of="#path2383"
       y="0"
       x="0" />
    <use
       height="110"
       width="1100"
       style="opacity:0.61000001000000004;fill:#3dae00;stroke:#3dae00"
       id="use4294"
       transform="matrix(0.74,0,0,0.74,400.55433,95.61108)"
       xlink:href="#path2383"
       inkscape:tiled-clone-of="#path2383"
       y="0"
       x="0" />
    <use
       height="110"
       width="1100"
       style="opacity:0.57999997999999997;fill:#3dae00;stroke:#3dae00"
       id="use4298"
       transform="matrix(0.72,0,0,0.72,451.87641,80.68823)"
       xlink:href="#path2383"
       inkscape:tiled-clone-of="#path2383"
       y="0"
       x="0" />
    <use
       height="110"
       width="1100"
       style="opacity:0.55000000000000004;fill:#3dae00;stroke:#3dae00"
       id="use4300"
       transform="matrix(-0.7,0,0,0.7,714.8167,86.96713)"
       xlink:href="#path2383"
       inkscape:tiled-clone-of="#path2383"
       y="0"
       x="0" />
    <use
       height="110"
       width="1100"
       style="opacity:0.55000000000000004;fill:#3dae00;stroke:#3dae00"
       id="use4302"
       transform="matrix(0.7,0,0,0.7,470.36087,113.27339)"
       xlink:href="#path2383"
       inkscape:tiled-clone-of="#path2383"
       y="0"
       x="0" />
    <use
       height="110"
       width="1100"
       style="opacity:0.51999996000000004;fill:#3dae00;stroke:#3dae00"
       id="use4304"
       transform="matrix(-0.68,0,0,0.68,679.0063,119.93576)"
       xlink:href="#path2383"
       inkscape:tiled-clone-of="#path2383"
       y="0"
       x="0" />
    <use
       height="110"
       width="1100"
       style="opacity:0.51999996000000004;fill:#3dae00;stroke:#3dae00"
       id="use4306"
       transform="matrix(0.68,0,0,0.68,513.09468,80.63472)"
       xlink:href="#path2383"
       inkscape:tiled-clone-of="#path2383"
       y="0"
       x="0" />
    <use
       height="110"
       width="1100"
       style="opacity:0.48999999000000000;fill:#3dae00;stroke:#3dae00"
       id="use4310"
       transform="matrix(0.66,0,0,0.66,546.16945,87.45004)"
       xlink:href="#path2383"
       inkscape:tiled-clone-of="#path2383"
       y="0"
       x="0" />
    <use
       height="110"
       width="1100"
       style="opacity:0.46000001000000001;fill:#3dae00;stroke:#3dae00"
       id="use4312"
       transform="matrix(-0.64,0,0,0.64,621.0677,84.71451)"
       xlink:href="#path2383"
       inkscape:tiled-clone-of="#path2383"
       y="0"
       x="0" />
    <use
       height="110"
       width="1100"
       style="opacity:0.43000003999999997;fill:#3dae00;stroke:#3dae00"
       id="use4316"
       transform="matrix(-0.62,0,0,0.62,590.39719,113.26931)"
       xlink:href="#path2383"
       inkscape:tiled-clone-of="#path2383"
       y="0"
       x="0" />
    <use
       height="110"
       width="1100"
       style="opacity:0.40000000000000002;fill:#3dae00;stroke:#3dae00"
       id="use4320"
       transform="matrix(-0.6,0,0,0.6,556.91951,76.46879)"
       xlink:href="#path2383"
       inkscape:tiled-clone-of="#path2383"
       y="0"
       x="0" />
    <use
       height="110"
       width="1100"
       style="opacity:0.40000000000000002;fill:#3dae00;stroke:#3dae00"
       id="use4322"
       transform="matrix(0.6,0,0,0.6,625.826,95.85549)"
       xlink:href="#path2383"
       inkscape:tiled-clone-of="#path2383"
       y="0"
       x="0" />
    <use
       height="110"
       width="1100"
       style="opacity:0.37000001999999999;fill:#3dae00;stroke:#3dae00"
       id="use4324"
       transform="matrix(-0.58,0,0,0.58,530.42185,94.19491)"
       xlink:href="#path2383"
       inkscape:tiled-clone-of="#path2383"
       y="0"
       x="0" />
    <use
       height="110"
       width="1100"
       style="opacity:0.37000001999999999;fill:#3dae00;stroke:#3dae00"
       id="use4326"
       transform="matrix(0.58,0,0,0.58,662.29543,87.25565)"
       xlink:href="#path2383"
       inkscape:tiled-clone-of="#path2383"
       y="0"
       x="0" />
    <use
       height="110"
       width="1100"
       style="opacity:0.33999998999999997;fill:#3dae00;stroke:#3dae00"
       id="use4328"
       transform="matrix(-0.56,0,0,0.56,493.02892,66.32948)"
       xlink:href="#path2383"
       inkscape:tiled-clone-of="#path2383"
       y="0"
       x="0" />
    <use
       height="110"
       width="1100"
       style="opacity:0.31000000999999999;fill:#3dae00;stroke:#3dae00"
       id="use4332"
       transform="matrix(-0.54,0,0,0.54,478.02119,112.92213)"
       xlink:href="#path2383"
       inkscape:tiled-clone-of="#path2383"
       y="0"
       x="0" />
    <use
       height="110"
       width="1100"
       style="opacity:0.27999997999999998;fill:#3dae00;stroke:#3dae00"
       id="use4336"
       transform="matrix(-0.52,0,0,0.52,440.5863,95.17032)"
       xlink:href="#path2383"
       inkscape:tiled-clone-of="#path2383"
       y="0"
       x="0" />
    <use
       height="110"
       width="1100"
       style="opacity:0.27999997999999998;fill:#3dae00;stroke:#3dae00"
       id="use4338"
       transform="matrix(0.52,0,0,0.52,748.64706,94.95174)"
       xlink:href="#path2383"
       inkscape:tiled-clone-of="#path2383"
       y="0"
       x="0" />
    <use
       height="110"
       width="1100"
       style="opacity:0.25000000000000000;fill:#3dae00;stroke:#3dae00"
       id="use4340"
       transform="matrix(-0.5,0,0,0.5,428.18,57.15079)"
       xlink:href="#path2383"
       inkscape:tiled-clone-of="#path2383"
       y="0"
       x="0" />
    <use
       height="110"
       width="1100"
       style="opacity:0.25000000000000000;fill:#3dae00;stroke:#3dae00"
       id="use4342"
       transform="matrix(0.5,0,0,0.5,777.35081,59.12225)"
       xlink:href="#path2383"
       inkscape:tiled-clone-of="#path2383"
       y="0"
       x="0" />
    <use
       height="110"
       width="1100"
       style="opacity:0.22000001999999999;fill:#3dae00;stroke:#3dae00"
       id="use4344"
       transform="matrix(-0.48,0,0,0.48,380.77229,89.35633)"
       xlink:href="#path2383"
       inkscape:tiled-clone-of="#path2383"
       y="0"
       x="0" />
    <use
       height="110"
       width="1100"
       style="opacity:0.18999999000000001;fill:#3dae00;stroke:#3dae00"
       id="use4348"
       transform="matrix(-0.46,0,0,0.46,381.2781,66.27996)"
       xlink:href="#path2383"
       inkscape:tiled-clone-of="#path2383"
       y="0"
       x="0" />
    <use
       height="110"
       width="1100"
       style="opacity:0.18999999000000001;fill:#3dae00;stroke:#3dae00"
       id="use4350"
       transform="matrix(0.46,0,0,0.46,840.315,97.48542)"
       xlink:href="#path2383"
       inkscape:tiled-clone-of="#path2383"
       y="0"
       x="0" />
    <use
       height="110"
       width="1100"
       style="opacity:0.16000001000000000;fill:#3dae00;stroke:#3dae00"
       id="use4352"
       transform="matrix(-0.44,0,0,0.44,332.07652,107.40798)"
       xlink:href="#path2383"
       inkscape:tiled-clone-of="#path2383"
       y="0"
       x="0" />
    <use
       height="110"
       width="1100"
       style="opacity:0.16000001000000000;fill:#3dae00;stroke:#3dae00"
       id="use4354"
       transform="matrix(0.44,0,0,0.44,871.99686,57.97341)"
       xlink:href="#path2383"
       inkscape:tiled-clone-of="#path2383"
       y="0"
       x="0" />
    <use
       height="110"
       width="1100"
       style="opacity:0.12999997999999999;fill:#3dae00;stroke:#3dae00"
       id="use4356"
       transform="matrix(-0.42,0,0,0.42,315.89692,64.748)"
       xlink:href="#path2383"
       inkscape:tiled-clone-of="#path2383"
       y="0"
       x="0" />
    <use
       height="110"
       width="1100"
       style="opacity:0.12999997999999999;fill:#3dae00;stroke:#3dae00"
       id="use4358"
       transform="matrix(0.42,0,0,0.42,881.01725,80.17083)"
       xlink:href="#path2383"
       inkscape:tiled-clone-of="#path2383"
       y="0"
       x="0" />
    <use
       height="110"
       width="1100"
       style="opacity:0.10000000000000001;fill:#3dae00;stroke:#3dae00"
       id="use4360"
       transform="matrix(-0.4,0,0,0.4,282.41432,52.12608)"
       xlink:href="#path2383"
       inkscape:tiled-clone-of="#path2383"
       y="0"
       x="0" />
    <use
       height="110"
       width="1100"
       style="opacity:0.10000000000000001;fill:#3dae00;stroke:#3dae00"
       id="use4362"
       transform="matrix(0.4,0,0,0.4,918.9514,54.97962)"
       xlink:href="#path2383"
       inkscape:tiled-clone-of="#path2383"
       y="0"
       x="0" />
    <use
       height="110"
       width="1100"
       style="opacity:0.07000002000000000;fill:#3dae00;stroke:#3dae00"
       id="use4364"
       transform="matrix(-0.38,0,0,0.38,256.33252,92.93411)"
       xlink:href="#path2383"
       inkscape:tiled-clone-of="#path2383"
       y="0"
       x="0" />
    <use
       height="110"
       width="1100"
       style="opacity:0.07000002000000000;fill:#3dae00;stroke:#3dae00"
       id="use4366"
       transform="matrix(0.38,0,0,0.38,959.7041,68.97314)"
       xlink:href="#path2383"
       inkscape:tiled-clone-of="#path2383"
       y="0"
       x="0" />
    <use
       height="110"
       width="1100"
       style="opacity:0.03999999000000000;fill:#3dae00;stroke:#3dae00"
       id="use4368"
       transform="matrix(-0.36,0,0,0.36,222.66091,53.97533)"
       xlink:href="#path2383"
       inkscape:tiled-clone-of="#path2383"
       y="0"
       x="0" />
    <use
       height="110"
       width="1100"
       style="opacity:0.03999999000000000;fill:#3dae00;stroke:#3dae00"
       id="use4370"
       transform="matrix(0.36,0,0,0.36,949.4652,94.41618)"
       xlink:href="#path2383"
       inkscape:tiled-clone-of="#path2383"
       y="0"
       x="0" />
    <use
       height="110"
       width="1100"
       style="fill:#3dae00;stroke:#3dae00"
       id="use4242"
       transform="translate(19.12135,125.11733)"
       xlink:href="#path2383"
       inkscape:tiled-clone-of="#path2383"
       y="0"
       x="0" />
    <use
       height="110"
       width="1100"
       style="fill:#3dae00;stroke:#3dae00"
       id="use4240"
       transform="matrix(-1,0,0,1,1160.0703,136.07597)"
       xlink:href="#path2383"
       inkscape:tiled-clone-of="#path2383"
       y="0"
       x="0" />
    <use
       height="110"
       width="1100"
       style="opacity:0.87999998000000001;fill:#3dae00;stroke:#3dae00"
       id="use4256"
       transform="matrix(-0.92,0,0,0.92,1043.7278,125.72997)"
       xlink:href="#path2383"
       inkscape:tiled-clone-of="#path2383"
       y="0"
       x="0" />
    <use
       height="110"
       width="1100"
       style="opacity:0.84999999999999998;fill:#3dae00;stroke:#3dae00"
       id="use4262"
       transform="matrix(0.9,0,0,0.9,171.74242,130.52151)"
       xlink:href="#path2383"
       inkscape:tiled-clone-of="#path2383"
       y="0"
       x="0" />
    <use
       height="110"
       width="1100"
       style="opacity:0.91000000999999997;fill:#3dae00;stroke:#3dae00"
       id="use4254"
       transform="matrix(0.94,0,0,0.94,101.81128,130.92865)"
       xlink:href="#path2383"
       inkscape:tiled-clone-of="#path2383"
       y="0"
       x="0" />
    <use
       height="110"
       width="1100"
       style="opacity:0.79000004999999995;fill:#3dae00;stroke:#3dae00"
       id="use4268"
       transform="matrix(-0.86,0,0,0.86,920.9622,122.24642)"
       xlink:href="#path2383"
       inkscape:tiled-clone-of="#path2383"
       y="0"
       x="0" />
    <use
       height="110"
       width="1100"
       style="opacity:0.63999998999999996;fill:#3dae00;stroke:#3dae00"
       id="use4288"
       transform="matrix(-0.76,0,0,0.76,823.0797,125.43709)"
       xlink:href="#path2383"
       inkscape:tiled-clone-of="#path2383"
       y="0"
       x="0" />
    <use
       height="110"
       width="1100"
       style="opacity:0.69999999999999996;fill:#3dae00;stroke:#3dae00"
       id="use4282"
       transform="matrix(0.8,0,0,0.8,325.31745,121.49672)"
       xlink:href="#path2383"
       inkscape:tiled-clone-of="#path2383"
       y="0"
       x="0" />
    <use
       height="110"
       width="1100"
       style="opacity:0.63999998999999996;fill:#3dae00;stroke:#3dae00"
       id="use4290"
       transform="matrix(0.76,0,0,0.76,408.57026,125.06171)"
       xlink:href="#path2383"
       inkscape:tiled-clone-of="#path2383"
       y="0"
       x="0" />
    <use
       height="110"
       width="1100"
       style="opacity:0.46000001000000001;fill:#3dae00;stroke:#3dae00"
       id="use4314"
       transform="matrix(0.64,0,0,0.64,562.40311,117.81201)"
       xlink:href="#path2383"
       inkscape:tiled-clone-of="#path2383"
       y="0"
       x="0" />
    <use
       height="110"
       width="1100"
       style="opacity:0.31000000999999999;fill:#3dae00;stroke:#3dae00"
       id="use4334"
       transform="matrix(0.54,0,0,0.54,711.41522,110.7179)"
       xlink:href="#path2383"
       inkscape:tiled-clone-of="#path2383"
       y="0"
       x="0" />
    <use
       height="110"
       width="1100"
       style="opacity:0.22000001999999999;fill:#3dae00;stroke:#3dae00"
       id="use4346"
       transform="matrix(0.48,0,0,0.48,802.53081,77.93997)"
       xlink:href="#path2383"
       inkscape:tiled-clone-of="#path2383"
       y="0"
       x="0" />
  </g>
  <rect
     style="opacity:1;fill:url(#linearGradient3748);fill-opacity:1;fill-rule:evenodd;stroke:none;stroke-width:1.5;stroke-linecap:round;stroke-linejoin:round;marker:none;marker-start:none;marker-mid:none;marker-end:none;stroke-miterlimit:4;stroke-dasharray:none;stroke-dashoffset:0;stroke-opacity:1;visibility:visible;display:inline;overflow:visible;enable-background:accumulate"
     id="rect3740"
     width="1200"
     height="100"
     x="0"
     y="10" />
</svg>
