<?xml version="1.0" encoding="UTF-8" standalone="no"?>
<!-- Created with Inkscape (http://www.inkscape.org/) -->

<svg
   xmlns:dc="http://purl.org/dc/elements/1.1/"
   xmlns:cc="http://creativecommons.org/ns#"
   xmlns:rdf="http://www.w3.org/1999/02/22-rdf-syntax-ns#"
   xmlns:svg="http://www.w3.org/2000/svg"
   xmlns="http://www.w3.org/2000/svg"
   xmlns:xlink="http://www.w3.org/1999/xlink"
   xmlns:sodipodi="http://sodipodi.sourceforge.net/DTD/sodipodi-0.dtd"
   xmlns:inkscape="http://www.inkscape.org/namespaces/inkscape"
   width="64"
   height="64"
   id="svg2"
   sodipodi:version="0.32"
   inkscape:version="0.47 r22583"
   version="1.0"
   sodipodi:docname="unknown-input.svg"
   inkscape:output_extension="org.inkscape.output.svg.inkscape"
   inkscape:export-filename="unknown-input.png"
   inkscape:export-xdpi="70.309998"
   inkscape:export-ydpi="70.309998">
  <sodipodi:namedview
     id="base"
     pagecolor="#ffffff"
     bordercolor="#666666"
     borderopacity="1.0"
     gridtolerance="10"
     guidetolerance="10"
     objecttolerance="10"
     inkscape:pageopacity="0.0"
     inkscape:pageshadow="2"
     inkscape:zoom="3.59"
     inkscape:cx="61.060718"
     inkscape:cy="30.989093"
     inkscape:document-units="px"
     inkscape:current-layer="layer1"
     showgrid="true"
     inkscape:window-width="1278"
     inkscape:window-height="760"
     inkscape:window-x="0"
     inkscape:window-y="19"
     inkscape:window-maximized="0">
    <inkscape:grid
       spacingy="2px"
       spacingx="2px"
       enabled="true"
       visible="true"
       empspacing="5"
       id="grid2474"
       type="xygrid" />
  </sodipodi:namedview>
  <defs
     id="defs4">
    <inkscape:perspective
       id="perspective10"
       inkscape:persp3d-origin="372.04724 : 350.78739 : 1"
       inkscape:vp_z="160.0831 : 69.421134 : 1"
       inkscape:vp_y="6.1230318e-14 : 1000 : 0"
       inkscape:vp_x="-70.566221 : 70.12254 : 1"
       sodipodi:type="inkscape:persp3d" />
    <inkscape:perspective
       sodipodi:type="inkscape:persp3d"
       inkscape:vp_x="0 : 0.5 : 1"
       inkscape:vp_y="0 : 1000 : 0"
       inkscape:vp_z="1 : 0.5 : 1"
       inkscape:persp3d-origin="0.5 : 0.33333333 : 1"
       id="perspective3291" />
    <inkscape:perspective
       sodipodi:type="inkscape:persp3d"
       inkscape:vp_x="0 : 0.5 : 1"
       inkscape:vp_y="0 : 1000 : 0"
       inkscape:vp_z="1 : 0.5 : 1"
       inkscape:persp3d-origin="0.5 : 0.33333333 : 1"
       id="perspective3313" />
    <inkscape:perspective
       id="perspective3538"
       inkscape:persp3d-origin="0.5 : 0.33333333 : 1"
       inkscape:vp_z="1 : 0.5 : 1"
       inkscape:vp_y="0 : 1000 : 0"
       inkscape:vp_x="0 : 0.5 : 1"
       sodipodi:type="inkscape:persp3d" />
    <filter
       inkscape:collect="always"
       id="filter3152">
      <feGaussianBlur
         inkscape:collect="always"
         stdDeviation="0.5503125"
         id="feGaussianBlur3154" />
    </filter>
    <filter
       inkscape:collect="always"
       id="filter3164">
      <feGaussianBlur
         inkscape:collect="always"
         stdDeviation="0.37617186"
         id="feGaussianBlur3166" />
    </filter>
    <filter
       inkscape:collect="always"
       id="filter3176">
      <feGaussianBlur
         inkscape:collect="always"
         stdDeviation="0.52195313"
         id="feGaussianBlur3178" />
    </filter>
  </defs>
  <metadata
     id="metadata7">
    <rdf:RDF>
      <cc:Work
         rdf:about="">
        <dc:format>image/svg+xml</dc:format>
        <dc:type
           rdf:resource="http://purl.org/dc/dcmitype/StillImage" />
        <dc:title />
      </cc:Work>
      <cc:Work
         rdf:about="">
        <dc:format>image/svg+xml</dc:format>
        <dc:type
           rdf:resource="http://purl.org/dc/dcmitype/StillImage" />
      </cc:Work>
    </rdf:RDF>
  </metadata>
  <g
     id="layer1"
     inkscape:groupmode="layer"
     inkscape:label="Layer 1">
    <path
       d="M 1.9999996,43.033084 30,62.000001 62.145228,45.339361 32.270628,33.754801 z"
       style="color:#000000;fill:#ced5dd;fill-opacity:0.70588235;fill-rule:evenodd;stroke:#969aa2;stroke-width:2;stroke-linecap:round;stroke-linejoin:round;stroke-miterlimit:4;stroke-opacity:1;stroke-dasharray:none;stroke-dashoffset:0;marker:none;visibility:visible"
       id="path3262" />
    <path
       d="m 1.9999996,14 0,29.033084 30.270628,-9.278283 0,-23.473667 z"
       style="opacity:1;color:#000000;fill:#ced5dd;fill-opacity:0.70588237;fill-rule:evenodd;stroke:#969aa2;stroke-width:2;stroke-linecap:round;stroke-linejoin:round;stroke-miterlimit:4;stroke-opacity:1;stroke-dasharray:none;stroke-dashoffset:0;marker:none;marker-start:none;marker-mid:none;marker-end:none;visibility:visible"
       id="path3264" />
    <path
       d="m 32.270628,10.281134 29.874599,4.765346 0,30.292881 -29.874599,-11.584559 z"
       style="color:#000000;fill:#ced5dd;fill-opacity:0.70588237;fill-rule:evenodd;stroke:#969aa2;stroke-width:2;stroke-linecap:round;stroke-linejoin:round;stroke-miterlimit:4;stroke-opacity:1;stroke-dasharray:none;stroke-dashoffset:0;marker:none;visibility:visible"
       id="path3266" />
    <path
       d="M 1.9999996,14 30,21.764373 62.145228,15.04648 32.270628,10.281134 z"
       style="color:#000000;fill:#ced5dd;fill-opacity:0.70588237;fill-rule:evenodd;stroke:none;stroke-width:2;marker:none;visibility:visible"
       id="path3268" />
    <path
       d="m 30,21.764373 0,40.235628 32.14523,-16.66064 0,-30.292881 z"
       style="color:#000000;fill:#ced5dd;fill-opacity:0.70588235;fill-rule:evenodd;stroke:none;stroke-width:2;marker:none;visibility:visible"
       id="path3270" />
    <path
       d="M 2,14 30,21.764373 30,62.000001 2,43.033084 z"
       style="color:#000000;fill:#ced5dd;fill-opacity:0.70588235;fill-rule:evenodd;stroke:none;stroke-width:2;marker:none;visibility:visible"
       id="path3272" />
    <path
       d="m 32.3125,12.3125 -20,2.46875 17.75,4.90625 L 51.09375,15.28125 32.3125,12.3125 z"
       inkscape:href="#path3268"
       id="path3280"
       style="opacity:0.5;color:#000000;fill:none;stroke:#ffffff;stroke-width:2;stroke-linecap:round;stroke-linejoin:miter;stroke-miterlimit:10;stroke-opacity:1;stroke-dasharray:none;stroke-dashoffset:0;marker:none;visibility:visible;filter:url(#filter3164)"
       xlink:href="#path3268"
       inkscape:original="M 32.28125 10.28125 L 2 14 L 30 21.75 L 62.15625 15.03125 L 32.28125 10.28125 z "
       inkscape:radius="-2"
       sodipodi:type="inkscape:offset" />
    <path
       d="M 80.15625,17.5 52,23.375 52,58.71875 80.15625,44.125 l 0,-26.625 z"
       inkscape:href="#path3270"
       id="path3282"
       style="opacity:0.5;color:#000000;fill:none;stroke:#ffffff;stroke-width:2;stroke-linecap:round;stroke-linejoin:miter;stroke-miterlimit:10;stroke-opacity:1;stroke-dasharray:none;stroke-dashoffset:0;marker:none;visibility:visible;display:inline;overflow:visible;filter:url(#filter3152);enable-background:accumulate"
       xlink:href="#path3270"
       inkscape:original="M 62.15625 15.03125 L 30 21.75 L 30 62 L 62.15625 45.34375 L 62.15625 15.03125 z "
       inkscape:radius="-2"
       sodipodi:type="inkscape:offset" />
    <path
       d="m -16,16.625 0,25.34375 24,16.25 0,-34.9375 -24,-6.65625 z"
       inkscape:href="#path3272"
       id="path3304"
       style="opacity:0.5;color:#000000;fill:none;stroke:#ffffff;stroke-width:2;stroke-linecap:round;stroke-linejoin:miter;stroke-miterlimit:10;stroke-opacity:1;stroke-dasharray:none;stroke-dashoffset:0;marker:none;visibility:visible;display:inline;overflow:visible;filter:url(#filter3176);enable-background:accumulate"
       xlink:href="#path3272"
       inkscape:original="M 2 14 L 2 43.03125 L 30 62 L 30 21.75 L 2 14 z "
       inkscape:radius="-2"
       sodipodi:type="inkscape:offset" />
    <path
       sodipodi:nodetypes="csccccccssscssscccssscc"
       style="font-size:40px;font-style:normal;font-variant:normal;font-weight:normal;font-stretch:normal;text-align:start;line-height:100%;writing-mode:lr-tb;text-anchor:start;opacity:0.5;color:#000000;fill:none;stroke:#ffffff;stroke-width:2;stroke-linecap:round;stroke-linejoin:miter;stroke-miterlimit:10;stroke-opacity:1;stroke-dasharray:none;stroke-dashoffset:0;marker:none;marker-start:none;marker-mid:none;marker-end:none;visibility:visible;display:inline;overflow:visible;enable-background:accumulate;font-family:Century Schoolbook L;-inkscape-font-specification:Century Schoolbook L"
       d="m 46.944866,22 c 5.591204,-1.135643 8.98231,0.515248 8.98231,3.980486 0,2.3323718 -0.95966843,3.7547214 -5.4515283,8.2573632 -3.2023149,3.1431717 -3.7466988,4.3621986 -3.6942603,7.9672972 0,0 -2.3943534,1.01053 -2.3943534,1.01053 0,0 0,-1.2156764 0,-1.2156764 0,-1.7837808 0.22357721,-2.8767873 0.76944626,-4.1380563 C 45.856731,36.296268 45.88346,36.289126 49.676265,31.326262 c 0.972577,-1.332952 1.547499,-2.837994 1.547498,-4.281519 0,-2.7110111 -2.0154697,-3.8724462 -5.687238,-3.0598662 -2.657455,0.5881072 -5.241145,2.1101842 -5.241147,3.1396672 0,0.3167642 0.084367725,0.37030759 0.97535543,0.62215663 1.1057179,0.34355215 1.6723491,0.85803415 1.6723477,1.6286848 0,1.1945078 -1.4447893,2.5312172 -3.3564008,3.0921728 C 37.28069,33.144244 35.473491,32.289744 35.473492,30.46236 c 0,-3.571704 5.165942,-7.181648 11.471374,-8.46236 0,0 0,0 0,0 M 45.49445,45.766533 c 1.796697,-0.816336 3.211126,-0.426745 3.211123,0.804701 0,1.2676639 -1.4030927,2.9716033 -3.2532357,3.905074 -1.8702703,0.943625 -3.4966463,0.69365 -3.4966493,-0.668862 0,-1.3235841 1.6141071,-3.1664368 3.5387624,-4.0409125 0,0 0,0 0,0"
       id="path3529" />
    <path
       id="text3326"
       d="m 46.944866,22 c 5.591204,-1.135643 8.98231,0.515248 8.98231,3.980486 0,2.3323718 -0.95966843,3.7547214 -5.4515283,8.2573632 -3.2023149,3.1431717 -3.7466988,4.3621986 -3.6942603,7.9672972 0,0 -2.3943534,1.01053 -2.3943534,1.01053 0,0 0,-1.2156764 0,-1.2156764 0,-1.7837808 0.22357721,-2.8767873 0.76944626,-4.1380563 C 45.856731,36.296268 45.88346,36.289126 49.676265,31.326262 c 0.972577,-1.332952 1.547499,-2.837994 1.547498,-4.281519 0,-2.7110111 -2.0154697,-3.8724462 -5.687238,-3.0598662 C 42.87907,24.572984 40.29538,26.095061 40.295378,27.124544 c 0,0.3167642 0.084367725,0.37030759 0.97535543,0.62215663 1.1057179,0.34355215 1.6723491,0.85803415 1.6723477,1.6286848 0,1.1945078 -1.4447893,2.5312172 -3.3564008,3.0921728 C 37.28069,33.144244 35.473491,32.289744 35.473492,30.46236 c 0,-3.571704 5.165942,-7.181648 11.471374,-8.46236 0,0 0,0 0,0 M 45.49445,45.766533 c 1.796697,-0.816336 3.211126,-0.426745 3.211123,0.804701 0,1.2676639 -1.4030927,2.9716033 -3.2532357,3.905074 -1.8702703,0.943625 -3.4966463,0.69365 -3.4966493,-0.668862 0,-1.3235841 1.6141071,-3.1664368 3.5387624,-4.0409125 0,0 0,0 0,0"
       style="font-size:40px;font-style:normal;font-variant:normal;font-weight:normal;font-stretch:normal;text-align:start;line-height:100%;writing-mode:lr-tb;text-anchor:start;fill:#8e9299;fill-opacity:1;stroke:none;font-family:Century Schoolbook L;-inkscape-font-specification:Century Schoolbook L"
       sodipodi:nodetypes="csccccccssscssscccssscc" />
    <path
       id="path3180"
       style="color:#000000;fill:none;stroke:#969aa2;stroke-width:2;stroke-linecap:round;stroke-linejoin:round;stroke-miterlimit:4;stroke-opacity:1;stroke-dasharray:none;stroke-dashoffset:0;marker:none;visibility:visible"
       d="m 30,21.764373 0,40.235628 32.14523,-16.66064 0,-30.292881 L 30,21.764373 z" />
    <path
       id="path3182"
       style="color:#000000;fill:none;stroke:#969aa2;stroke-width:2;stroke-linecap:round;stroke-linejoin:round;stroke-miterlimit:4;stroke-opacity:1;stroke-dasharray:none;stroke-dashoffset:0;marker:none;visibility:visible;display:inline;overflow:visible;enable-background:accumulate"
       d="M 1.9999996,14 30,21.764373 62.145228,15.04648 32.270628,10.281134 1.9999996,14 z" />
    <path
       id="path3184"
       style="color:#000000;fill:none;stroke:#969aa2;stroke-width:2;stroke-linecap:round;stroke-linejoin:round;stroke-miterlimit:4;stroke-opacity:1;stroke-dasharray:none;stroke-dashoffset:0;marker:none;visibility:visible;display:inline;overflow:visible;enable-background:accumulate"
       d="M 2,14 30,21.764373 30,62.000001 2,43.033084 2,14 z" />
  </g>
</svg>
