<?xml version="1.0" encoding="UTF-8" standalone="no"?>
<svg
   xmlns:dc="http://purl.org/dc/elements/1.1/"
   xmlns:cc="http://web.resource.org/cc/"
   xmlns:rdf="http://www.w3.org/1999/02/22-rdf-syntax-ns#"
   xmlns:svg="http://www.w3.org/2000/svg"
   xmlns="http://www.w3.org/2000/svg"
   xmlns:sodipodi="http://sodipodi.sourceforge.net/DTD/sodipodi-0.dtd"
   xmlns:inkscape="http://www.inkscape.org/namespaces/inkscape"
   width="277.379"
   height="173.497"
   id="svg2319"
   sodipodi:version="0.32"
   inkscape:version="0.45.1"
   sodipodi:docname="FBES_logo_2.svg"
   sodipodi:docbase="/home/valessio/Desktop"
   inkscape:output_extension="org.inkscape.output.svg.inkscape"
   inkscape:export-filename="/home/valessio/Desktop/FBES_logo_2_veio.png"
   inkscape:export-xdpi="97.5233"
   inkscape:export-ydpi="97.5233">
  <metadata
     id="metadata2440">
    <rdf:RDF>
      <cc:Work
         rdf:about="">
        <dc:format>image/svg+xml</dc:format>
        <dc:type
           rdf:resource="http://purl.org/dc/dcmitype/StillImage" />
      </cc:Work>
    </rdf:RDF>
  </metadata>
  <sodipodi:namedview
     inkscape:window-height="590"
     inkscape:window-width="831"
     inkscape:pageshadow="2"
     inkscape:pageopacity="0.0"
     guidetolerance="10.0"
     gridtolerance="10.0"
     objecttolerance="10.0"
     borderopacity="1.0"
     bordercolor="#666666"
     pagecolor="#ffffff"
     id="base"
     inkscape:zoom="1.0922379"
     inkscape:cx="-6.4568961"
     inkscape:cy="50.728912"
     inkscape:window-x="0"
     inkscape:window-y="48"
     inkscape:current-layer="svg2319" />
  <defs
     id="defs2321">
    <marker
       id="ArrowEnd"
       viewBox="0 0 10 10"
       refX="0"
       refY="5"
       markerUnits="strokeWidth"
       markerWidth="4"
       markerHeight="3"
       orient="auto">
      <path
         d="M 0 0 L 10 5 L 0 10 z"
         id="path2324" />
    </marker>
    <marker
       id="ArrowStart"
       viewBox="0 0 10 10"
       refX="10"
       refY="5"
       markerUnits="strokeWidth"
       markerWidth="4"
       markerHeight="3"
       orient="auto">
      <path
         d="M 10 0 L 0 5 L 10 10 z"
         id="path2327" />
    </marker>
  </defs>
  <path
     style="fill:#015c93;stroke:none;fill-opacity:1"
     d="M 184.487,59.2912 C 182.183,75.2052 152.227,89.3909 119.751,86.9426 C 89.0751,84.6384 72.5851,69.3004 80.5781,54.2506 C 87.851,40.7129 113.198,31.2797 138.689,31.9998 C 165.549,32.7199 186.647,43.3772 184.487,59.2912 z "
     id="path2333" />
  <path
     style="fill:#c5224f;stroke:none;fill-opacity:1"
     d="M 155.75 0 C 155.2805 0.010407634 154.79862 0.039743437 154.3125 0.09375 C 150.4245 0.5258025 147.53401 2.17804 147.75 3.90625 C 147.89824 4.5863412 148.60742 5.1584351 149.625 5.59375 C 140.99756 6.6901402 132.41009 7.7786093 123.84375 8.875 C 121.39575 9.23504 119.37775 10.4104 119.59375 11.5625 C 119.73775 12.7147 121.9695 13.4225 124.5625 13.0625 C 130.51146 12.359879 136.50992 11.61877 142.5 10.875 C 141.05784 11.826289 139.61632 12.810084 138.125 13.78125 C 137.94296 13.871429 137.75263 13.958876 137.59375 14.0625 C 132.69776 17.4469 127.59125 20.82485 122.40625 24.28125 C 120.67825 25.50545 120.912 27.03 123 27.75 C 125.161 28.4701 128.397 27.9742 130.125 26.75 C 134.20063 24.033125 138.1653 21.29472 142.0625 18.59375 C 145.74626 18.532282 149.41328 18.467718 153.1875 18.40625 C 154.06238 21.145176 154.97855 23.925969 155.90625 26.8125 C 156.33925 28.2527 159.06699 29.047499 161.875 28.6875 C 164.756 28.3274 166.69149 26.899351 166.1875 25.53125 C 164.6035 21.49875 163.17099 17.66025 161.875 13.84375 C 161.83861 13.746712 161.7836 13.653022 161.71875 13.5625 C 161.41518 12.692983 161.11607 11.84909 160.8125 11 C 166.14305 12.227314 171.42647 13.447612 177 14.71875 C 179.448 15.29485 182.53825 14.7771 183.90625 13.625 C 185.27425 12.4728 184.41675 11.03535 181.96875 10.53125 C 174.0792 8.7857546 166.47619 7.1100824 159.0625 5.5 C 161.16852 4.7323 162.44957 3.5797004 162.15625 2.40625 C 161.77825 0.8940645 159.03651 -0.072853438 155.75 0 z "
     id="path2335" />
  <path
     style="fill:#0093c9;stroke:none;fill-opacity:1"
     d="M 187.5 13.25 C 185.85861 13.298509 184.28875 13.717375 183.34375 14.4375 C 181.75975 15.5176 182.40526 17.00815 184.78125 17.65625 C 190.38113 19.289553 196.17983 20.952504 202.0625 22.625 C 199.3714 22.944865 196.68543 23.273937 194.03125 23.59375 C 193.77956 23.608041 193.53431 23.625399 193.28125 23.65625 C 184.64025 24.80845 175.98475 25.87905 167.34375 27.03125 C 164.53575 27.39125 162.58975 28.84105 163.09375 30.28125 C 163.66974 31.649349 166.4135 32.51625 169.4375 32.15625 C 176.26731 31.316539 183.14566 30.424192 190.0625 29.53125 C 193.0688 30.94878 196.06088 32.401158 199.15625 33.875 C 195.69492 36.777517 192.19664 39.722111 188.59375 42.65625 C 186.93675 44.09645 187.72225 45.970148 190.53125 46.90625 C 193.33925 47.84245 197.094 47.346451 198.75 45.90625 C 203.56929 41.715078 208.22878 37.642225 212.84375 33.65625 C 212.87525 33.654122 212.90599 33.658386 212.9375 33.65625 C 214.27388 32.486744 215.60112 31.336633 216.9375 30.1875 C 219.56129 33.624196 222.1668 37.018157 224.96875 40.65625 C 226.19276 42.31245 229.7695 43.22285 232.9375 42.71875 C 236.17849 42.214751 237.77425 40.49045 236.40625 38.90625 C 232.01324 33.577649 227.835 28.48085 223.875 23.65625 C 223.83281 23.602809 223.76718 23.551434 223.71875 23.5 C 227.37443 23.970412 231.32943 23.360374 233.3125 21.84375 C 235.7605 19.97155 234.26024 17.5272 230.15625 16.375 C 226.12325 15.1509 220.85525 15.740551 218.40625 17.46875 C 217.04431 18.470342 216.79992 19.657265 217.5625 20.75 C 217.50644 20.731944 217.46408 20.704688 217.40625 20.6875 C 208.04525 18.2391 199.04725 15.8668 190.40625 13.5625 C 189.51525 13.319463 188.48483 13.220895 187.5 13.25 z "
     id="path2347" />
  <path
     style="fill:#e67817;stroke:none;fill-opacity:1"
     d="M 232.375 43.09375 C 231.96618 43.095301 231.56125 43.111237 231.15625 43.15625 C 227.84325 43.58825 226.02324 45.24055 227.03125 46.96875 C 229.35555 51.012427 231.8204 55.281328 234.34375 59.625 C 231.16654 58.567795 227.96602 57.482906 224.875 56.46875 C 224.86531 56.471256 224.85344 56.466243 224.84375 56.46875 C 224.77915 56.447191 224.72248 56.42686 224.65625 56.40625 C 215.22325 53.381849 206.1505 50.4959 197.4375 47.6875 C 194.62849 46.823399 190.978 47.27855 189.25 48.71875 C 187.52099 50.230852 188.37 52.22015 191.25 53.15625 C 198.00792 55.427404 205.16129 57.798359 212.3125 60.1875 C 212.55764 62.830896 212.81736 65.601833 213.0625 68.40625 C 205.52277 69.279981 197.99798 70.173139 190.53125 71.09375 C 187.07425 71.45375 184.92675 73.474299 185.71875 75.5625 C 186.58275 77.6508 190.24374 79.088352 193.84375 78.65625 C 204.28791 77.464759 214.94046 76.257987 225.59375 75 C 225.88487 74.965974 226.17763 74.9399 226.46875 74.90625 C 226.50325 74.902192 226.52831 74.879349 226.5625 74.875 C 229.45429 74.541129 232.35838 74.225947 235.25 73.90625 C 231.78773 78.302452 228.25061 82.760881 224.65625 87.375 C 223.07225 89.391198 224.755 92.2133 228.5 93.4375 C 232.244 94.7336 236.76925 94.06645 238.28125 91.90625 C 243.27748 85.104963 248.11603 78.554219 252.78125 72.21875 C 255.59479 73.926857 259.78143 74.905117 263.84375 74.5625 C 269.82075 74.1304 273.05675 70.959148 270.96875 67.71875 C 268.88075 64.47835 262.69849 62.245999 256.9375 62.75 C 254.65486 62.923375 252.78161 63.503097 251.46875 64.34375 C 247.12387 57.768979 242.95065 51.560311 239.0625 45.625 C 238.0545 44.112825 235.23677 43.082895 232.375 43.09375 z "
     id="path2359" />
  <path
     style="fill:#c4be66;stroke:none;fill-opacity:1"
     d="M 183.28125 76.40625 C 182.84346 76.405963 182.40975 76.446 181.96875 76.5 C 178.43975 76.932103 176.136 78.9552 177 81.1875 C 178.82908 86.287367 180.82249 91.703507 182.875 97.25 C 179.08037 99.549332 175.24551 101.85706 171.34375 104.15625 C 164.50319 101.05625 157.59356 97.91136 151.21875 95 C 148.19475 93.6318 143.94125 94.149451 141.78125 96.09375 C 139.54825 98.10995 140.20424 100.84025 143.15625 102.28125 C 152.37325 106.74525 162.0335 111.4355 172.1875 116.1875 C 174.87988 117.47548 177.63895 118.81664 180.4375 120.15625 C 171.27721 121.61705 162.14922 123.09178 153.03125 124.53125 C 149.07125 125.25125 146.47025 128.0575 147.40625 130.9375 C 148.27126 133.9625 152.3855 135.97 156.5625 135.25 C 170.6755 132.945 184.84525 130.71025 199.03125 128.40625 C 199.20283 128.37916 199.36659 128.34724 199.53125 128.3125 C 198.10671 131.69295 200.01869 135.80899 204.875 138.5 C 210.779 141.74 218.899 141.37575 222.5 137.34375 C 226.172 133.59875 224.0925 127.99375 218.1875 124.96875 C 214.84602 123.25726 210.96026 122.69692 207.5625 123.1875 C 207.62157 123.1296 207.69489 123.09187 207.75 123.03125 C 215.167 114.75025 222.30575 106.7483 229.21875 99.1875 C 231.09075 97.1712 229.64175 94.211953 225.96875 92.84375 C 222.44075 91.47555 218.05675 91.899551 215.96875 93.84375 C 211.40103 98.550954 206.65278 103.42796 201.84375 108.375 C 200.81562 105.79072 199.79531 103.20691 198.875 100.6875 C 198.8649 100.68518 198.85385 100.68982 198.84375 100.6875 C 198.82802 100.64658 198.83005 100.60347 198.8125 100.5625 C 195.7155 93.217898 192.70475 86.21855 189.96875 79.59375 C 189.21274 77.703573 186.3458 76.408259 183.28125 76.40625 z "
     id="path2371" />
  <path
     style="fill:#4b9f30;stroke:none;fill-opacity:1"
     d="M 91.25 91.0625 C 90.845235 91.053222 90.42305 91.079987 90 91.125 C 86.4715 91.557 83.812503 93.705198 83.8125 95.9375 C 83.8845 102.9947 83.949751 110.4105 84.09375 118.1875 C 84.095169 118.24001 84.121193 118.29187 84.125 118.34375 C 84.166125 120.40053 84.226017 122.5888 84.28125 124.75 C 77.694146 121.36067 71.238449 118.01185 65.03125 114.8125 C 62.366949 113.4445 58.17655 114.0805 55.65625 116.3125 C 53.063852 118.5455 53.0136 121.58175 55.75 123.09375 C 64.75198 127.94136 74.195792 133.05731 84.125 138.4375 C 80.624279 140.12974 78.150862 143.11106 77.90625 146.4375 C 77.61825 151.4065 82.675448 155.19424 89.15625 154.90625 C 95.70915 154.54625 101.04075 150.0315 100.96875 145.0625 C 100.96875 143.00231 100.0627 141.16927 98.5625 139.78125 C 112.30541 138.39554 126.11998 136.91088 140.0625 135.46875 C 144.1665 135.03675 147.05425 132.24274 146.40625 129.21875 C 145.90225 126.33875 142.08599 124.2555 138.125 124.6875 C 128.83986 125.63068 119.73277 126.50515 110.59375 127.40625 C 113.09952 125.15175 115.58792 122.94918 118.09375 120.78125 C 118.08288 120.75994 118.07335 120.74005 118.0625 120.71875 C 118.12432 120.66614 118.19031 120.61705 118.25 120.5625 C 125.523 113.8655 132.50375 107.39 139.34375 101.125 C 141.50474 99.109202 140.91225 96.38985 138.03125 95.09375 C 135.15125 93.725553 131.0445 94.21205 128.8125 96.15625 C 123.54241 100.81636 118.01484 105.66772 112.46875 110.53125 C 107.37221 110.28255 102.3328 110.04313 97.34375 109.84375 C 96.998946 104.55692 96.658935 99.390372 96.40625 94.4375 C 96.343162 92.484237 94.083358 91.127443 91.25 91.0625 z "
     id="path2383" />
  <path
     style="fill:#87583a;stroke:none;fill-opacity:1"
     d="M 65.8125 66.21875 C 64.072752 66.217337 62.176437 66.728624 60.78125 67.71875 C 53.86835 72.47135 46.647899 77.365553 39.375 82.40625 C 37.361883 83.776007 35.322895 85.180285 33.3125 86.5625 C 33.682105 82.034568 34.077827 77.409765 34.40625 73.1875 C 34.55025 71.387296 32.3463 70.3085 29.25 70.8125 C 26.225599 71.316601 23.55985 73.1902 23.34375 75.0625 C 22.47965 81.543297 21.6141 88.45535 20.75 95.65625 C 20.738882 95.739644 20.721812 95.825283 20.71875 95.90625 C 17.642679 94.999649 13.26537 95.701297 9.71875 97.96875 C 5.3262 100.70475 3.8261498 104.86175 6.5625 107.09375 C 9.44285 109.46975 15.494651 108.98325 20.03125 106.03125 C 22.543165 104.38432 23.974321 102.33753 24.21875 100.46875 C 24.281083 100.51902 24.337002 100.57802 24.40625 100.625 C 31.75115 105.522 39.519152 110.4845 47.65625 115.8125 C 50.03255 117.3965 54.232451 116.9005 56.96875 114.8125 C 59.77715 112.7245 59.907552 109.85675 57.53125 108.34375 C 52.157169 104.93739 47.179359 101.74624 42.125 98.53125 C 45.417187 98.143361 48.707812 97.762336 52 97.375 C 52.072849 97.367427 52.14513 97.384399 52.21875 97.375 C 62.444049 96.078896 72.73395 94.7961 83.03125 93.5 C 86.487652 93.139901 89.22835 90.9727 89.15625 88.8125 C 89.084248 86.580197 86.2594 85.15215 82.875 85.65625 C 75.085839 86.608836 67.346273 87.590545 59.625 88.5625 C 57.445081 86.324012 55.321796 84.228691 53.25 82.15625 C 58.329769 78.565675 63.43153 74.963029 68.34375 71.46875 C 70.64805 69.88455 70.713197 67.717352 68.625 66.78125 C 67.841887 66.403212 66.856349 66.219598 65.8125 66.21875 z "
     id="path2395" />
  <path
     style="fill:#f6b801;stroke:none;fill-opacity:1"
     d="M 58.9375 30.875 C 57.23965 30.810866 55.185475 31.300675 53.78125 32.21875 C 47.53928 36.449474 41.080307 40.671873 34.4375 45.03125 C 33.54909 43.91622 31.420402 43.352561 28.71875 43.59375 C 24.61425 44.02585 20.6766 46.258302 19.8125 48.5625 C 18.8044 50.9388 21.470251 52.58825 25.71875 52.15625 C 27.468117 51.978328 29.160007 51.468341 30.625 50.78125 C 29.249513 56.169807 27.881606 61.804906 26.4375 67.71875 C 26.0775 69.51905 28.163101 70.672499 31.1875 70.3125 C 34.2119 69.9524 36.880399 68.215951 37.3125 66.34375 C 38.179079 62.251354 39.029912 58.440386 39.875 54.5625 C 41.616335 55.441912 43.348631 56.308149 45.15625 57.1875 C 45.203859 57.214136 45.230468 57.25586 45.28125 57.28125 C 50.897949 60.017651 56.8262 62.90085 62.875 65.78125 C 64.963201 66.789347 68.49605 66.2622 70.65625 64.75 C 72.88855 63.237799 72.93195 61.15485 70.84375 60.21875 C 66.082358 58.064838 61.516495 55.958704 56.96875 53.875 C 58.143468 51.583086 59.288197 49.35327 60.40625 47.21875 C 66.38076 46.474106 72.380352 45.692036 78.40625 44.875 C 81.21465 44.5149 83.593748 43.012199 83.59375 41.5 C 83.59375 40.0598 81.370902 39.139999 78.5625 39.5 C 70.2815 40.5801 62.062351 41.638651 53.78125 42.71875 C 53.663334 42.734687 53.554395 42.760906 53.4375 42.78125 C 51.37416 43.039999 49.294171 43.3228 47.21875 43.59375 C 51.724712 40.541755 56.185556 37.517956 60.5 34.59375 C 62.444202 33.297552 62.4442 31.7731 60.5 31.125 C 60.049925 30.980975 59.50345 30.896378 58.9375 30.875 z "
     id="path2407" />
  <path
     style="fill:#6d5394;stroke:none;fill-opacity:1"
     d="M 115.8125 9.46875 C 115.23748 9.4574997 114.63025 9.4857375 114 9.59375 C 105.503 10.96187 96.9345 12.35055 88.4375 13.71875 C 88.342581 13.735019 88.249257 13.76278 88.15625 13.78125 C 89.568086 12.410693 89.293787 10.933171 87.34375 10.1875 C 84.82345 9.25143 80.505398 9.6752896 77.625 11.1875 C 74.7446 12.6997 74.395447 14.8044 76.84375 15.8125 C 78.239914 16.37101 80.21688 16.463994 82.21875 16.1875 C 82.199415 16.198005 82.175298 16.208083 82.15625 16.21875 C 75.74745 20.03525 69.12205 23.998749 62.28125 28.03125 C 60.33695 29.18335 60.115549 30.7174 61.84375 31.4375 C 63.57195 32.1576 66.680697 31.714599 68.625 30.5625 C 73.126111 27.86182 77.570973 25.242014 81.96875 22.625 C 81.919931 23.871959 81.861318 25.105538 81.8125 26.375 C 81.810305 26.404337 81.8125 26.439402 81.8125 26.46875 C 81.8125 30.429251 81.72825 34.53275 81.65625 38.78125 C 81.656247 40.22145 83.97295 41.14125 86.78125 40.78125 C 89.517652 40.421149 91.822 38.91835 91.75 37.40625 C 91.636747 34.121489 91.515753 30.906817 91.4375 27.78125 C 94.525821 26.420419 97.56177 25.06112 100.59375 23.75 C 104.76653 25.176842 108.93258 26.623706 113.28125 28.125 C 115.36925 28.8451 118.45 28.4021 120.25 27.25 C 122.05 26.0258 121.838 24.501349 119.75 23.78125 C 113.701 21.83705 107.78175 19.903549 102.09375 18.03125 C 101.97199 17.989095 101.84904 17.970634 101.71875 17.9375 C 100.37099 17.478444 99.015344 17.021556 97.65625 16.5625 C 103.45417 15.621956 109.2431 14.680657 115.0625 13.71875 C 117.6555 13.28665 119.45375 11.98645 119.09375 10.90625 C 118.87775 10.042167 117.53755 9.5025009 115.8125 9.46875 z "
     id="path2419" />
  <path
     style="fill:#71b0d3;fill-opacity:1;stroke:none"
     d="M 136.1875,31.96875 C 123.7414,31.940226 111.68969,34.214531 101.96875,38.0625 C 101.89675,38.1345 101.96875,38.178001 101.96875,38.25 C 102.47275,38.538 102.90775,38.712 103.84375,39 C 104.05975,39.1441 104.049,39.427999 104.625,39.5 C 106.065,39.428 105.784,39.138599 106,38.5625 C 106.864,37.9864 107.5965,37.616851 107.8125,36.96875 C 108.4615,36.82475 108.95525,36.612852 109.53125,36.46875 C 111.25925,36.03675 111.909,35.597801 112.125,36.75 C 113.277,37.11 113.776,36.47825 115,36.40625 C 115,36.33425 114.9905,36.312499 115.0625,36.3125 C 116.5755,35.7364 117.3045,36.902149 118.3125,37.40625 C 118.8165,37.55025 120.39,37.69975 120.75,37.84375 C 121.542,38.41985 120.67775,39.274501 119.09375,39.5625 C 119.02175,39.4185 119.04075,39.353249 118.96875,39.28125 C 118.03275,39.13725 117.94825,39.283999 117.15625,39.5 C 114.49125,39.644 113.55425,40.006899 112.90625,41.375 C 112.90625,41.7351 113.06925,42.152149 112.78125,42.65625 C 111.84525,42.72825 110.95775,43.078851 110.09375,42.71875 C 108.79775,42.71875 107.004,42.585649 106.5,43.59375 C 106.5,43.59375 106.34375,43.593749 106.34375,43.59375 C 105.98375,43.80975 105.64125,44.034001 105.28125,44.25 C 102.61725,45.2581 102.12225,45.531252 101.90625,45.53125 C 101.11425,46.32335 101.3165,46.991798 100.8125,48 C 100.3805,48 100.389,47.999998 99.8125,48 C 99.5244,47.6399 99.574652,47.63175 99.71875,47.34375 C 98.20655,47.12775 96.721451,47.04085 95.28125,46.96875 C 94.41715,47.83295 93.914402,49.41705 94.5625,50.28125 C 95.3546,50.71325 96.703896,51.224251 98,51.65625 C 98.7201,51.94435 101.89,53.029902 102.25,53.75 C 102.97,53.678 103.69575,53.54075 104.34375,53.46875 C 105.92775,53.54075 107.4245,54.245999 108.9375,54.75 C 110.0175,54.894 112.47975,54.7649 113.34375,55.125 C 113.27175,55.269 113.2595,55.471499 113.1875,55.6875 C 113.6195,57.1997 117.79375,57.27305 119.59375,58.28125 C 119.66575,58.64125 119.76225,59.014999 119.90625,59.375 C 121.20225,60.1671 122.5455,60.801649 124.5625,61.59375 C 124.5625,61.66575 124.5625,61.740499 124.5625,61.8125 C 125.4985,62.1725 127.30049,62.0149 128.8125,62.375 C 130.3965,63.0231 132.76976,64.975551 130.96875,66.34375 C 129.52875,66.84775 128.97675,66.998648 127.96875,67.71875 C 127.32075,69.44705 126.173,71.818 122.5,72.25 C 118.684,72.106 118.8135,71.824798 116.4375,73.625 C 114.6365,74.3451 112.84075,74.998752 110.96875,75.71875 C 110.96875,75.79075 110.96875,75.843748 110.96875,75.84375 C 109.88875,76.05975 109.39525,75.856001 108.53125,76 C 108.24325,76.288 107.93475,76.649497 107.71875,76.9375 C 106.49475,77.1535 105.27975,76.925252 104.34375,76.78125 C 104.05575,76.92525 104.042,76.942998 103.25,77.375 C 101.81,77.8071 98.645403,78.819302 99.4375,80.1875 C 99.0055,80.6916 97.270353,81.31515 96.40625,81.53125 C 96.40625,81.60325 96.406253,81.677997 96.40625,81.75 C 102.81515,84.4143 110.749,86.217404 119.75,86.9375 C 136.888,88.1617 153.74851,84.995798 166.0625,78.875 C 164.6225,78.1549 163.379,76.220098 162.875,75.5 C 162.659,73.9878 163.52225,73.320601 164.53125,72.3125 C 164.96325,70.9443 164.26451,69.798847 163.6875,68.71875 C 163.0395,67.85465 162.58825,67.491853 162.15625,66.84375 C 162.37225,66.26775 162.95376,64.703848 162.59375,64.34375 C 161.51375,64.19975 160.50126,64.393996 159.78125,64.25 C 159.56525,63.818 159.485,63.697002 159.125,63.625 C 155.02,63.337 150.28175,65.199699 146.96875,63.6875 C 145.24075,62.6074 143.94949,61.2391 142.4375,60.375 C 141.9335,59.3669 143.44301,57.26085 143.875,56.46875 C 143.731,56.18075 143.6535,55.903599 143.4375,55.6875 C 144.0135,53.6713 146.4655,52.751351 149.5625,52.03125 C 149.8505,51.31115 149.86424,51.138602 150.65625,50.5625 C 152.52825,49.9864 153.076,49.779851 152.5,48.84375 C 151.78,48.77175 151.4225,49 151.0625,49 C 151.0625,48.784 151.14676,48.559752 151.21875,48.34375 C 150.35475,48.12775 151.7935,46.55025 151.9375,46.40625 C 153.3775,46.11815 155.17725,46.259599 156.90625,46.1875 C 157.33825,45.3954 156.0435,45.035349 156.1875,44.53125 C 157.0515,44.31525 157.26625,44.038098 156.90625,43.75 C 156.40225,43.678 155.8885,43.593749 155.3125,43.59375 C 154.6645,42.87365 155.60375,42.788 156.46875,42.5 C 156.82875,41.8519 155.53525,41.802998 155.03125,41.875 C 154.88725,42.019 154.8315,42.1684 154.6875,42.3125 C 153.6795,42.6725 153.53251,42.64265 152.8125,43.21875 C 152.3805,43.21875 152.29074,43.24725 152.21875,43.03125 C 152.29075,42.81515 152.44974,42.5285 152.59375,42.3125 C 153.45775,42.1684 153.7325,41.728252 154.8125,41.65625 C 154.8845,41.51225 154.95925,41.425352 155.03125,41.28125 C 154.31125,40.34515 155.52775,40.290749 156.96875,40.21875 C 156.96875,40.50675 156.76775,40.493149 157.34375,40.78125 C 157.27175,40.92525 157.19701,41.230999 157.125,41.375 C 157.701,41.9511 159.63175,42.294899 159.34375,43.375 C 159.12775,43.375 158.93476,43.3655 158.71875,43.4375 C 158.57475,43.5815 158.64551,43.89675 159.4375,43.96875 C 161.9575,43.68065 163.38126,42.303001 166.40625,42.375 C 166.40625,42.303 166.5435,42.165749 166.6875,42.09375 C 167.0475,40.65365 166.925,40.51085 165.125,39.71875 C 164.117,38.56665 166.86024,38.394001 168.15625,38.25 C 168.15625,38.178 168.15624,38.2066 168.15625,38.0625 C 160.30725,34.5341 150.0655,32.216 138.6875,32 C 137.85494,31.977494 137.01724,31.970652 136.1875,31.96875 z M 88.5625,45.3125 C 85.106,47.9769 82.362698,50.937501 80.5625,54.25 C 75.4498,63.9712 80.36715,73.634702 92.96875,80.1875 C 93.04075,80.0435 93.115496,80.03125 93.1875,80.03125 C 94.0517,78.73505 94.964748,77.370847 95.46875,76.21875 C 96.33285,75.71465 96.493252,75.0041 96.78125,74.5 C 98.14945,73.9239 98.368252,72.907599 98.65625,72.1875 C 99.80845,70.7473 102.7675,67.214702 101.6875,66.0625 C 100.8955,65.6305 100.0956,65.266252 99.375,64.90625 C 99.087,64.33015 99.078853,64.3206 98.71875,63.3125 C 98.28675,62.5204 97.0774,61.104599 97.4375,60.3125 C 98.3736,59.5924 98.211999,59.56385 98.5,58.84375 C 99.7242,57.97965 99.731996,57.991849 100.8125,57.34375 C 101.3885,56.33565 100.37135,55.894101 99.21875,55.75 C 97.27455,54.6699 96.05295,53.154851 94.46875,52.21875 C 92.81255,52.07475 91.724203,51.953849 90.5,51.59375 C 90.284,51.30575 90.019097,50.922502 89.875,50.5625 C 89.515,48.6903 88.421248,47.1128 88.78125,45.3125 C 88.70925,45.3125 88.706502,45.3125 88.5625,45.3125 z M 161.875,46.1875 C 161.731,46.3316 161.60324,46.543498 161.53125,46.6875 C 160.09125,47.3356 157.98499,47.107399 157.625,48.1875 C 156.473,48.3315 156.1925,48.289398 155.6875,48.9375 C 155.3995,49.0095 155.1005,49.062501 154.8125,49.0625 C 154.5965,49.2785 154.59375,49.2744 154.59375,49.5625 C 154.88175,49.6345 155.26501,49.771748 155.625,49.84375 C 158.146,49.55575 160.4515,49.800252 163.1875,49.65625 C 164.0515,49.44015 164.38874,49.271749 165.46875,49.34375 C 165.46875,49.63185 165.39,49.84915 165.75,50.28125 C 165.606,50.42525 165.394,50.512249 165.25,50.65625 C 165.322,50.72825 165.34376,50.803 165.34375,50.875 C 166.56775,51.2351 166.54826,51.232399 171.15625,52.3125 C 172.95725,52.2405 173.18626,51.792099 173.90625,51 C 175.13025,50.928 176.344,51.718748 178,51.71875 C 178.936,51.57475 179.962,51.004 180.25,50.5 C 179.169,50.5 178.73226,50.134499 178.15625,50.0625 C 177.86825,48.5503 177.77676,47.839752 174.96875,48.34375 C 174.89675,48.48775 174.9225,49.07475 174.5625,49.21875 C 173.7705,49.14675 173.47549,48.550249 173.1875,48.40625 C 172.8995,47.11015 172.69225,47.275851 170.53125,46.84375 C 169.66725,46.41175 168.48776,46.5489 168.34375,47.125 C 169.42375,47.485 170.50424,47.692901 171.65625,48.125 C 171.58425,48.197 171.53126,48.187499 171.53125,48.1875 C 171.31525,48.2595 171.02851,48.271752 170.8125,48.34375 C 170.6685,48.55975 170.22,49.062501 169.5,49.0625 C 169.572,48.7745 169.73776,48.49725 169.59375,48.28125 C 168.80175,47.99325 168.01075,47.70375 167.21875,47.34375 C 166.13875,46.62365 166.26876,46.04615 164.46875,46.40625 C 163.31575,46.40625 162.59499,46.187499 161.875,46.1875 z "
     id="path2431" />
  <path
     style="font-size:13.78898907px;font-style:normal;font-weight:normal;fill:#005735;fill-opacity:1;stroke:none;stroke-width:1px;stroke-linecap:butt;stroke-linejoin:miter;stroke-opacity:1;font-family:Bitstream Vera Sans"
     d="M 4.8399476,159.75722 L 10.61678,159.75722 L 10.61678,160.90182 L 6.1999944,160.90182 L 6.1999944,163.86429 L 10.185874,163.86429 L 10.185874,165.00889 L 6.1999944,165.00889 L 6.1999944,169.80945 L 4.8399476,169.80945 L 4.8399476,159.75722 M 15.168224,163.13714 C 14.503907,163.13715 13.978741,163.39748 13.592724,163.91816 C 13.206702,164.43435 13.013692,165.14355 13.013694,166.04575 C 13.013692,166.94797 13.204458,167.65941 13.585991,168.18009 C 13.972008,168.69628 14.499418,168.95437 15.168224,168.95437 C 15.828044,168.95437 16.350965,168.69403 16.736991,168.17335 C 17.123004,167.65268 17.316014,166.94348 17.31602,166.04575 C 17.316014,165.15253 17.123004,164.44557 16.736991,163.92489 C 16.350965,163.39973 15.828044,163.13715 15.168224,163.13714 M 15.168224,162.08681 C 16.245483,162.08681 17.091584,162.43692 17.706529,163.13714 C 18.32146,163.83737 18.628929,164.8069 18.628937,166.04575 C 18.628929,167.28012 18.32146,168.24966 17.706529,168.95437 C 17.091584,169.65459 16.245483,170.0047 15.168224,170.0047 C 14.086467,170.0047 13.238122,169.65459 12.623186,168.95437 C 12.012735,168.24966 11.70751,167.28012 11.707511,166.04575 C 11.70751,164.8069 12.012735,163.83737 12.623186,163.13714 C 13.238122,162.43692 14.086467,162.08681 15.168224,162.08681 M 16.104098,158.78095 L 17.443946,158.78095 L 15.249019,161.31252 L 14.218884,161.31252 L 16.104098,158.78095 M 25.045396,163.42665 C 24.906243,163.34587 24.753631,163.28751 24.587558,163.2516 C 24.425963,163.21121 24.246419,163.19101 24.048926,163.191 C 23.3487,163.19101 22.810068,163.41993 22.433029,163.87776 C 22.060472,164.33111 21.874195,164.9842 21.874198,165.83703 L 21.874198,169.80945 L 20.62861,169.80945 L 20.62861,162.26859 L 21.874198,162.26859 L 21.874198,163.44012 C 22.134534,162.98229 22.473423,162.6434 22.890866,162.42345 C 23.308302,162.19903 23.815514,162.08681 24.412503,162.08681 C 24.497781,162.08681 24.592042,162.09355 24.695285,162.10701 C 24.798517,162.11599 24.912976,162.1317 25.038663,162.15414 L 25.045396,163.42665 M 26.230387,166.8335 L 26.230387,162.26859 L 27.469241,162.26859 L 27.469241,166.78637 C 27.469239,167.50006 27.608385,168.03645 27.886681,168.39554 C 28.164972,168.75014 28.582411,168.92744 29.139002,168.92744 C 29.807799,168.92744 30.335209,168.71423 30.721234,168.28781 C 31.111737,167.8614 31.306991,167.28012 31.306997,166.54399 L 31.306997,162.26859 L 32.545851,162.26859 L 32.545851,169.80945 L 31.306997,169.80945 L 31.306997,168.65139 C 31.006255,169.10923 30.656144,169.45036 30.256664,169.67479 C 29.861662,169.89473 29.401581,170.0047 28.876418,170.0047 C 28.010115,170.0047 27.352535,169.73539 26.903677,169.19675 C 26.454815,168.65812 26.230386,167.87037 26.230387,166.8335 M 40.982182,163.71617 C 41.291888,163.15959 41.662198,162.74888 42.093111,162.48405 C 42.524008,162.21923 43.03122,162.08681 43.614748,162.08681 C 44.400243,162.08681 45.006204,162.36286 45.432632,162.91495 C 45.859037,163.46257 46.072246,164.24359 46.072258,165.258 L 46.072258,169.80945 L 44.826671,169.80945 L 44.826671,165.2984 C 44.82666,164.57574 44.698735,164.03935 44.442895,163.68924 C 44.187034,163.33913 43.796526,163.16408 43.27137,163.16407 C 42.629491,163.16408 42.122279,163.37729 41.749733,163.8037 C 41.377172,164.23012 41.190895,164.81139 41.190902,165.54752 L 41.190902,169.80945 L 39.945315,169.80945 L 39.945315,165.2984 C 39.945309,164.57125 39.817383,164.03487 39.561539,163.68924 C 39.305683,163.33913 38.910687,163.16408 38.376548,163.16407 C 37.743651,163.16408 37.240928,163.37953 36.868377,163.81043 C 36.49582,164.23685 36.309544,164.81588 36.309546,165.54752 L 36.309546,169.80945 L 35.063959,169.80945 L 35.063959,162.26859 L 36.309546,162.26859 L 36.309546,163.44012 C 36.592325,162.9778 36.931214,162.63667 37.326215,162.41672 C 37.721208,162.19678 38.190266,162.08681 38.733392,162.08681 C 39.280996,162.08681 39.745566,162.22596 40.127103,162.50425 C 40.513116,162.78255 40.798142,163.18652 40.982182,163.71617 M 54.353731,165.00889 L 54.353731,168.69179 L 56.535192,168.69179 C 57.266828,168.69179 57.807705,168.54142 58.157822,168.24068 C 58.512415,167.93546 58.689714,167.47089 58.689721,166.84697 C 58.689714,166.21857 58.512415,165.75624 58.157822,165.45999 C 57.807705,165.15926 57.266828,165.00889 56.535192,165.00889 L 54.353731,165.00889 M 54.353731,160.87488 L 54.353731,163.90469 L 56.366869,163.90469 C 57.031177,163.9047 57.524923,163.78126 57.848108,163.53438 C 58.17577,163.28303 58.339603,162.90149 58.33961,162.38979 C 58.339603,161.88258 58.17577,161.5033 57.848108,161.25193 C 57.524923,161.00057 57.031177,160.87489 56.366869,160.87488 L 54.353731,160.87488 M 52.993684,159.75722 L 56.467863,159.75722 C 57.504724,159.75723 58.303695,159.97268 58.864777,160.40358 C 59.425844,160.8345 59.706382,161.44719 59.70639,162.24166 C 59.706382,162.85661 59.562747,163.34587 59.275484,163.70944 C 58.988206,164.07302 58.566278,164.29969 58.009698,164.38946 C 58.678493,164.5331 59.196926,164.83384 59.564999,165.29167 C 59.937545,165.74502 60.123821,166.31283 60.12383,166.99509 C 60.123821,167.89282 59.818597,168.58631 59.208155,169.07556 C 58.597698,169.56482 57.729154,169.80945 56.602521,169.80945 L 52.993684,169.80945 L 52.993684,159.75722 M 66.762475,163.42665 C 66.623323,163.34587 66.47071,163.28751 66.304637,163.2516 C 66.143043,163.21121 65.963499,163.19101 65.766005,163.191 C 65.065779,163.19101 64.527147,163.41993 64.150108,163.87776 C 63.777551,164.33111 63.591274,164.9842 63.591277,165.83703 L 63.591277,169.80945 L 62.345689,169.80945 L 62.345689,162.26859 L 63.591277,162.26859 L 63.591277,163.44012 C 63.851613,162.98229 64.190502,162.6434 64.607945,162.42345 C 65.025381,162.19903 65.532593,162.08681 66.129582,162.08681 C 66.21486,162.08681 66.309121,162.09355 66.412364,162.10701 C 66.515596,162.11599 66.630056,162.1317 66.755742,162.15414 L 66.762475,163.42665 M 71.50244,166.01882 C 70.501477,166.01883 69.807989,166.13329 69.421972,166.3622 C 69.03595,166.59112 68.84294,166.98163 68.842942,167.53373 C 68.84294,167.97361 68.986575,168.32372 69.273848,168.58406 C 69.565605,168.83991 69.960601,168.96784 70.458839,168.96784 C 71.145591,168.96784 71.695445,168.72545 72.108401,168.24068 C 72.525835,167.75143 72.734555,167.10282 72.734561,166.29487 L 72.734561,166.01882 L 71.50244,166.01882 M 73.973416,165.50712 L 73.973416,169.80945 L 72.734561,169.80945 L 72.734561,168.66485 C 72.451774,169.12269 72.099419,169.46158 71.677495,169.68152 C 71.255562,169.89698 70.739373,170.0047 70.128927,170.0047 C 69.356885,170.0047 68.741947,169.78925 68.284111,169.35834 C 67.830761,168.92295 67.604087,168.34168 67.604088,167.61452 C 67.604087,166.76618 67.886869,166.12655 68.452434,165.69564 C 69.022484,165.26474 69.870829,165.04929 70.997472,165.04928 L 72.734561,165.04928 L 72.734561,164.92809 C 72.734555,164.35805 72.546034,163.91816 72.168997,163.60844 C 71.796438,163.29425 71.271272,163.13715 70.593497,163.13714 C 70.162588,163.13715 69.742904,163.18877 69.334444,163.292 C 68.925979,163.39524 68.533227,163.5501 68.156186,163.75657 L 68.156186,162.61197 C 68.609533,162.43692 69.049416,162.30676 69.475835,162.22146 C 69.902249,162.1317 70.317445,162.08681 70.721423,162.08681 C 71.812148,162.08681 72.626829,162.3696 73.165467,162.93515 C 73.704093,163.50072 73.973408,164.35805 73.973416,165.50712 M 81.339213,162.49078 L 81.339213,163.66231 C 80.989096,163.48277 80.625519,163.34811 80.248482,163.25833 C 79.871435,163.16857 79.480927,163.12368 79.076957,163.12367 C 78.462015,163.12368 77.999689,163.21794 77.689978,163.40646 C 77.384751,163.59498 77.232139,163.87777 77.232141,164.2548 C 77.232139,164.54208 77.34211,164.76875 77.562053,164.93483 C 77.781992,165.09642 78.224119,165.25128 78.888435,165.3994 L 79.312608,165.49366 C 80.19237,165.68218 80.816285,165.94925 81.184356,166.29487 C 81.556904,166.63601 81.743181,167.11404 81.743187,167.72898 C 81.743181,168.4292 81.464887,168.98355 80.908307,169.39201 C 80.356204,169.80047 79.595386,170.0047 78.625852,170.0047 C 78.221875,170.0047 77.799947,169.9643 77.360066,169.88351 C 76.92467,169.8072 76.464588,169.6905 75.979821,169.5334 L 75.979821,168.25415 C 76.437657,168.49204 76.888761,168.67159 77.333134,168.79278 C 77.777504,168.90948 78.217386,168.96784 78.652784,168.96784 C 79.236298,168.96784 79.685158,168.86909 79.999365,168.67159 C 80.313562,168.4696 80.470663,168.18682 80.470668,167.82324 C 80.470663,167.4866 80.356204,167.2285 80.12729,167.04896 C 79.902855,166.86942 79.406865,166.69661 78.639318,166.53052 L 78.208412,166.42953 C 77.440859,166.26794 76.886517,166.02107 76.545385,165.68891 C 76.20425,165.35227 76.033683,164.89219 76.033684,164.30867 C 76.033683,163.59947 76.285045,163.05186 76.787769,162.66584 C 77.290491,162.27982 78.004178,162.08681 78.928833,162.08681 C 79.386666,162.08681 79.817572,162.12048 80.221551,162.1878 C 80.625519,162.25514 80.998073,162.35613 81.339213,162.49078 M 83.722661,162.26859 L 84.961516,162.26859 L 84.961516,169.80945 L 83.722661,169.80945 L 83.722661,162.26859 M 83.722661,159.33305 L 84.961516,159.33305 L 84.961516,160.90182 L 83.722661,160.90182 L 83.722661,159.33305 M 87.546949,159.33305 L 88.785803,159.33305 L 88.785803,169.80945 L 87.546949,169.80945 L 87.546949,159.33305 M 97.821367,165.72931 L 97.821367,166.33527 L 92.125329,166.33527 C 92.17919,167.18811 92.43504,167.83895 92.89288,168.28781 C 93.355203,168.73218 93.997073,168.95437 94.818491,168.95437 C 95.294278,168.95437 95.754359,168.89602 96.198736,168.77931 C 96.64759,168.66261 97.091961,168.48756 97.531852,168.25415 L 97.531852,169.42567 C 97.087473,169.61419 96.63188,169.75783 96.165072,169.85658 C 95.698252,169.95533 95.224704,170.0047 94.744429,170.0047 C 93.54148,170.0047 92.587653,169.65459 91.882944,168.95437 C 91.182721,168.25415 90.832611,167.30705 90.832611,166.11308 C 90.832611,164.87872 91.164767,163.90021 91.829081,163.17754 C 92.497881,162.45039 93.397845,162.08681 94.528976,162.08681 C 95.543395,162.08681 96.34461,162.41448 96.932623,163.06981 C 97.525111,163.72066 97.821359,164.60716 97.821367,165.72931 M 96.582512,165.36573 C 96.573528,164.68796 96.382763,164.14708 96.010215,163.7431 C 95.642144,163.33913 95.152887,163.13715 94.542442,163.13714 C 93.851193,163.13715 93.296851,163.3324 92.879414,163.7229 C 92.46646,164.11342 92.228565,164.66327 92.165726,165.37246 L 96.582512,165.36573 M 99.854703,162.26859 L 101.09356,162.26859 L 101.09356,169.80945 L 99.854703,169.80945 L 99.854703,162.26859 M 99.854703,159.33305 L 101.09356,159.33305 L 101.09356,160.90182 L 99.854703,160.90182 L 99.854703,159.33305 M 108.04865,163.42665 C 107.90949,163.34587 107.75688,163.28751 107.59081,163.2516 C 107.42921,163.21121 107.24967,163.19101 107.05218,163.191 C 106.35195,163.19101 105.81332,163.41993 105.43628,163.87776 C 105.06372,164.33111 104.87745,164.9842 104.87745,165.83703 L 104.87745,169.80945 L 103.63186,169.80945 L 103.63186,162.26859 L 104.87745,162.26859 L 104.87745,163.44012 C 105.13778,162.98229 105.47667,162.6434 105.89412,162.42345 C 106.31155,162.19903 106.81876,162.08681 107.41575,162.08681 C 107.50103,162.08681 107.59529,162.09355 107.69853,162.10701 C 107.80177,162.11599 107.91623,162.1317 108.04191,162.15414 L 108.04865,163.42665 M 111.98739,163.13714 C 111.32308,163.13715 110.79791,163.39748 110.41189,163.91816 C 110.02587,164.43435 109.83286,165.14355 109.83286,166.04575 C 109.83286,166.94797 110.02363,167.65941 110.40516,168.18009 C 110.79118,168.69628 111.31859,168.95437 111.98739,168.95437 C 112.64721,168.95437 113.17013,168.69403 113.55616,168.17335 C 113.94217,167.65268 114.13518,166.94348 114.13519,166.04575 C 114.13518,165.15253 113.94217,164.44557 113.55616,163.92489 C 113.17013,163.39973 112.64721,163.13715 111.98739,163.13714 M 111.98739,162.08681 C 113.06465,162.08681 113.91075,162.43692 114.5257,163.13714 C 115.14063,163.83737 115.4481,164.8069 115.44811,166.04575 C 115.4481,167.28012 115.14063,168.24966 114.5257,168.95437 C 113.91075,169.65459 113.06465,170.0047 111.98739,170.0047 C 110.90564,170.0047 110.05729,169.65459 109.44236,168.95437 C 108.8319,168.24966 108.52668,167.28012 108.52668,166.04575 C 108.52668,164.8069 108.8319,163.83737 109.44236,163.13714 C 110.05729,162.43692 110.90564,162.08681 111.98739,162.08681 M 126.84691,163.41319 L 126.84691,159.33305 L 128.08577,159.33305 L 128.08577,169.80945 L 126.84691,169.80945 L 126.84691,168.67832 C 126.58657,169.12718 126.25666,169.46158 125.85718,169.68152 C 125.46217,169.89698 124.98638,170.0047 124.4298,170.0047 C 123.51861,170.0047 122.77575,169.64113 122.20121,168.91397 C 121.63116,168.18682 121.34613,167.23075 121.34613,166.04575 C 121.34613,164.86077 121.63116,163.9047 122.20121,163.17754 C 122.77575,162.45039 123.51861,162.08681 124.4298,162.08681 C 124.98638,162.08681 125.46217,162.19678 125.85718,162.41672 C 126.25666,162.63218 126.58657,162.96434 126.84691,163.41319 M 122.62538,166.04575 C 122.62538,166.95694 122.81166,167.67288 123.18421,168.19355 C 123.56125,168.70974 124.07744,168.96784 124.73278,168.96784 C 125.38811,168.96784 125.9043,168.70974 126.28135,168.19355 C 126.65839,167.67288 126.84691,166.95694 126.84691,166.04575 C 126.84691,165.13457 126.65839,164.42089 126.28135,163.90469 C 125.9043,163.38402 125.38811,163.12368 124.73278,163.12367 C 124.07744,163.12368 123.56125,163.38402 123.18421,163.90469 C 122.81166,164.42089 122.62538,165.13457 122.62538,166.04575 M 137.08766,165.72931 L 137.08766,166.33527 L 131.39163,166.33527 C 131.44549,167.18811 131.70134,167.83895 132.15918,168.28781 C 132.6215,168.73218 133.26337,168.95437 134.08479,168.95437 C 134.56057,168.95437 135.02066,168.89602 135.46503,168.77931 C 135.91389,168.66261 136.35826,168.48756 136.79815,168.25415 L 136.79815,169.42567 C 136.35377,169.61419 135.89818,169.75783 135.43137,169.85658 C 134.96455,169.95533 134.491,170.0047 134.01073,170.0047 C 132.80778,170.0047 131.85395,169.65459 131.14924,168.95437 C 130.44902,168.25415 130.09891,167.30705 130.09891,166.11308 C 130.09891,164.87872 130.43106,163.90021 131.09538,163.17754 C 131.76418,162.45039 132.66414,162.08681 133.79527,162.08681 C 134.80969,162.08681 135.61091,162.41448 136.19892,163.06981 C 136.79141,163.72066 137.08766,164.60716 137.08766,165.72931 M 135.84881,165.36573 C 135.83982,164.68796 135.64906,164.14708 135.27651,163.7431 C 134.90844,163.33913 134.41918,163.13715 133.80874,163.13714 C 133.11749,163.13715 132.56315,163.3324 132.14571,163.7229 C 131.73276,164.11342 131.49486,164.66327 131.43202,165.37246 L 135.84881,165.36573 M 143.56472,159.75722 L 149.92059,159.75722 L 149.92059,160.90182 L 144.92477,160.90182 L 144.92477,163.87776 L 149.71187,163.87776 L 149.71187,165.02235 L 144.92477,165.02235 L 144.92477,168.66485 L 150.04178,168.66485 L 150.04178,169.80945 L 143.56472,169.80945 L 143.56472,159.75722 M 157.66343,162.55811 L 157.66343,163.71617 C 157.31331,163.52317 156.96096,163.37953 156.60636,163.28526 C 156.25625,163.18652 155.90165,163.13715 155.54256,163.13714 C 154.7391,163.13715 154.11518,163.393 153.67082,163.90469 C 153.22644,164.41191 153.00426,165.1256 153.00426,166.04575 C 153.00426,166.96592 153.22644,167.68185 153.67082,168.19355 C 154.11518,168.70076 154.7391,168.95437 155.54256,168.95437 C 155.90165,168.95437 156.25625,168.90724 156.60636,168.81298 C 156.96096,168.71423 157.31331,168.56835 157.66343,168.37534 L 157.66343,169.51993 C 157.3178,169.68152 156.95871,169.80272 156.58616,169.88351 C 156.21809,169.9643 155.82534,170.0047 155.40791,170.0047 C 154.27229,170.0047 153.37008,169.64786 152.70128,168.93417 C 152.03247,168.22048 151.69807,167.25768 151.69807,166.04575 C 151.69807,164.81588 152.03472,163.84859 152.70801,163.14387 C 153.38579,162.43917 154.31268,162.08681 155.4887,162.08681 C 155.87023,162.08681 156.24278,162.12721 156.60636,162.208 C 156.96993,162.28431 157.32229,162.40102 157.66343,162.55811 M 162.7535,163.13714 C 162.08918,163.13715 161.56402,163.39748 161.178,163.91816 C 160.79198,164.43435 160.59897,165.14355 160.59897,166.04575 C 160.59897,166.94797 160.78973,167.65941 161.17127,168.18009 C 161.55728,168.69628 162.08469,168.95437 162.7535,168.95437 C 163.41332,168.95437 163.93624,168.69403 164.32227,168.17335 C 164.70828,167.65268 164.90129,166.94348 164.9013,166.04575 C 164.90129,165.15253 164.70828,164.44557 164.32227,163.92489 C 163.93624,163.39973 163.41332,163.13715 162.7535,163.13714 M 162.7535,162.08681 C 163.83076,162.08681 164.67686,162.43692 165.2918,163.13714 C 165.90674,163.83737 166.2142,164.8069 166.21421,166.04575 C 166.2142,167.28012 165.90674,168.24966 165.2918,168.95437 C 164.67686,169.65459 163.83076,170.0047 162.7535,170.0047 C 161.67174,170.0047 160.8234,169.65459 160.20846,168.95437 C 159.59801,168.24966 159.29279,167.28012 159.29279,166.04575 C 159.29279,164.8069 159.59801,163.83737 160.20846,163.13714 C 160.8234,162.43692 161.67174,162.08681 162.7535,162.08681 M 174.52935,165.258 L 174.52935,169.80945 L 173.29049,169.80945 L 173.29049,165.2984 C 173.29049,164.58472 173.15134,164.05058 172.87305,163.69597 C 172.59475,163.34138 172.17732,163.16408 171.62073,163.16407 C 170.95193,163.16408 170.42452,163.37729 170.0385,163.8037 C 169.65248,164.23012 169.45947,164.81139 169.45947,165.54752 L 169.45947,169.80945 L 168.21388,169.80945 L 168.21388,162.26859 L 169.45947,162.26859 L 169.45947,163.44012 C 169.75572,162.98678 170.10358,162.64789 170.50307,162.42345 C 170.90704,162.19903 171.37161,162.08681 171.89678,162.08681 C 172.76308,162.08681 173.41841,162.35613 173.86279,162.89475 C 174.30716,163.42891 174.52934,164.21665 174.52935,165.258 M 179.93587,163.13714 C 179.27156,163.13715 178.74639,163.39748 178.36037,163.91816 C 177.97435,164.43435 177.78134,165.14355 177.78134,166.04575 C 177.78134,166.94797 177.97211,167.65941 178.35364,168.18009 C 178.73966,168.69628 179.26707,168.95437 179.93587,168.95437 C 180.59569,168.95437 181.11861,168.69403 181.50464,168.17335 C 181.89065,167.65268 182.08366,166.94348 182.08367,166.04575 C 182.08366,165.15253 181.89065,164.44557 181.50464,163.92489 C 181.11861,163.39973 180.59569,163.13715 179.93587,163.13714 M 179.93587,162.08681 C 181.01313,162.08681 181.85923,162.43692 182.47418,163.13714 C 183.08911,163.83737 183.39658,164.8069 183.39659,166.04575 C 183.39658,167.28012 183.08911,168.24966 182.47418,168.95437 C 181.85923,169.65459 181.01313,170.0047 179.93587,170.0047 C 178.85412,170.0047 178.00577,169.65459 177.39083,168.95437 C 176.78038,168.24966 176.47516,167.28012 176.47516,166.04575 C 176.47516,164.8069 176.78038,163.83737 177.39083,163.13714 C 178.00577,162.43692 178.85412,162.08681 179.93587,162.08681 M 191.31448,163.71617 C 191.62419,163.15959 191.9945,162.74888 192.42541,162.48405 C 192.85631,162.21923 193.36352,162.08681 193.94705,162.08681 C 194.73254,162.08681 195.3385,162.36286 195.76493,162.91495 C 196.19134,163.46257 196.40454,164.24359 196.40456,165.258 L 196.40456,169.80945 L 195.15897,169.80945 L 195.15897,165.2984 C 195.15896,164.57574 195.03103,164.03935 194.77519,163.68924 C 194.51933,163.33913 194.12882,163.16408 193.60367,163.16407 C 192.96179,163.16408 192.45458,163.37729 192.08203,163.8037 C 191.70947,164.23012 191.52319,164.81139 191.5232,165.54752 L 191.5232,169.80945 L 190.27761,169.80945 L 190.27761,165.2984 C 190.27761,164.57125 190.14968,164.03487 189.89384,163.68924 C 189.63798,163.33913 189.24298,163.16408 188.70885,163.16407 C 188.07595,163.16408 187.57323,163.37953 187.20068,163.81043 C 186.82812,164.23685 186.64184,164.81588 186.64184,165.54752 L 186.64184,169.80945 L 185.39626,169.80945 L 185.39626,162.26859 L 186.64184,162.26859 L 186.64184,163.44012 C 186.92462,162.9778 187.26351,162.63667 187.65851,162.41672 C 188.05351,162.19678 188.52256,162.08681 189.06569,162.08681 C 189.61329,162.08681 190.07786,162.22596 190.4594,162.50425 C 190.84541,162.78255 191.13044,163.18652 191.31448,163.71617 M 198.88226,162.26859 L 200.12112,162.26859 L 200.12112,169.80945 L 198.88226,169.80945 L 198.88226,162.26859 M 198.88226,159.33305 L 200.12112,159.33305 L 200.12112,160.90182 L 198.88226,160.90182 L 198.88226,159.33305 M 206.1336,166.01882 C 205.13264,166.01883 204.43915,166.13329 204.05314,166.3622 C 203.66711,166.59112 203.4741,166.98163 203.47411,167.53373 C 203.4741,167.97361 203.61774,168.32372 203.90501,168.58406 C 204.19677,168.83991 204.59177,168.96784 205.09,168.96784 C 205.77676,168.96784 206.32661,168.72545 206.73957,168.24068 C 207.157,167.75143 207.36572,167.10282 207.36573,166.29487 L 207.36573,166.01882 L 206.1336,166.01882 M 208.60458,165.50712 L 208.60458,169.80945 L 207.36573,169.80945 L 207.36573,168.66485 C 207.08294,169.12269 206.73058,169.46158 206.30866,169.68152 C 205.88673,169.89698 205.37054,170.0047 204.76009,170.0047 C 203.98805,170.0047 203.37311,169.78925 202.91528,169.35834 C 202.46193,168.92295 202.23525,168.34168 202.23525,167.61452 C 202.23525,166.76618 202.51803,166.12655 203.0836,165.69564 C 203.65365,165.26474 204.50199,165.04929 205.62864,165.04928 L 207.36573,165.04928 L 207.36573,164.92809 C 207.36572,164.35805 207.1772,163.91816 206.80016,163.60844 C 206.4276,163.29425 205.90244,163.13715 205.22466,163.13714 C 204.79375,163.13715 204.37407,163.18877 203.96561,163.292 C 203.55714,163.39524 203.16439,163.5501 202.78735,163.75657 L 202.78735,162.61197 C 203.2407,162.43692 203.68058,162.30676 204.107,162.22146 C 204.53341,162.1317 204.94861,162.08681 205.35259,162.08681 C 206.44331,162.08681 207.25799,162.3696 207.79663,162.93515 C 208.33526,163.50072 208.60457,164.35805 208.60458,165.50712 M 221.63276,160.08713 L 221.63276,161.41352 C 221.11656,161.16665 220.62955,160.98262 220.17172,160.86142 C 219.71388,160.74023 219.27175,160.67964 218.84534,160.67963 C 218.10471,160.67964 217.53242,160.82327 217.12845,161.11054 C 216.72896,161.39781 216.52921,161.80628 216.52922,162.33592 C 216.52921,162.7803 216.66163,163.11695 216.92646,163.34586 C 217.19577,163.5703 217.70298,163.75208 218.44809,163.89122 L 219.26951,164.05955 C 220.28393,164.25256 221.03128,164.5937 221.51157,165.08295 C 221.99633,165.56772 222.23871,166.21857 222.23872,167.03549 C 222.23871,168.00952 221.91104,168.74789 221.25572,169.25062 C 220.60486,169.75334 219.64879,170.0047 218.3875,170.0047 C 217.9117,170.0047 217.40449,169.95084 216.86586,169.84311 C 216.33172,169.73539 215.77737,169.57604 215.20283,169.36508 L 215.20283,167.96463 C 215.75493,168.27435 216.29581,168.50775 216.82546,168.66485 C 217.35512,168.82196 217.87579,168.90051 218.3875,168.90051 C 219.16402,168.90051 219.76325,168.74789 220.18518,168.44267 C 220.60711,168.13745 220.81807,167.70205 220.81808,167.13649 C 220.81807,166.64274 220.66546,166.25672 220.36024,165.97843 C 220.0595,165.70014 219.56351,165.49142 218.87227,165.35227 L 218.04412,165.19068 C 217.02969,164.98869 216.29581,164.67225 215.84246,164.24134 C 215.38911,163.81044 215.16244,163.21121 215.16244,162.44365 C 215.16244,161.55492 215.47439,160.85469 216.09831,160.34298 C 216.72671,159.83129 217.59077,159.57544 218.69048,159.57543 C 219.16178,159.57544 219.64206,159.61808 220.13132,159.70336 C 220.62057,159.78865 221.12105,159.91658 221.63276,160.08713 M 227.22779,163.13714 C 226.56347,163.13715 226.03831,163.39748 225.65229,163.91816 C 225.26627,164.43435 225.07326,165.14355 225.07326,166.04575 C 225.07326,166.94797 225.26402,167.65941 225.64556,168.18009 C 226.03157,168.69628 226.55898,168.95437 227.22779,168.95437 C 227.88761,168.95437 228.41053,168.69403 228.79655,168.17335 C 229.18257,167.65268 229.37558,166.94348 229.37558,166.04575 C 229.37558,165.15253 229.18257,164.44557 228.79655,163.92489 C 228.41053,163.39973 227.88761,163.13715 227.22779,163.13714 M 227.22779,162.08681 C 228.30505,162.08681 229.15115,162.43692 229.76609,163.13714 C 230.38102,163.83737 230.68849,164.8069 230.6885,166.04575 C 230.68849,167.28012 230.38102,168.24966 229.76609,168.95437 C 229.15115,169.65459 228.30505,170.0047 227.22779,170.0047 C 226.14603,170.0047 225.29769,169.65459 224.68275,168.95437 C 224.0723,168.24966 223.76707,167.28012 223.76707,166.04575 C 223.76707,164.8069 224.0723,163.83737 224.68275,163.13714 C 225.29769,162.43692 226.14603,162.08681 227.22779,162.08681 M 232.73532,159.33305 L 233.97417,159.33305 L 233.97417,169.80945 L 232.73532,169.80945 L 232.73532,159.33305 M 236.5596,162.26859 L 237.79845,162.26859 L 237.79845,169.80945 L 236.5596,169.80945 L 236.5596,162.26859 M 236.5596,159.33305 L 237.79845,159.33305 L 237.79845,160.90182 L 236.5596,160.90182 L 236.5596,159.33305 M 245.34604,163.41319 L 245.34604,159.33305 L 246.5849,159.33305 L 246.5849,169.80945 L 245.34604,169.80945 L 245.34604,168.67832 C 245.0857,169.12718 244.75579,169.46158 244.35631,169.68152 C 243.96131,169.89698 243.48551,170.0047 242.92893,170.0047 C 242.01774,170.0047 241.27488,169.64113 240.70034,168.91397 C 240.13029,168.18682 239.84526,167.23075 239.84526,166.04575 C 239.84526,164.86077 240.13029,163.9047 240.70034,163.17754 C 241.27488,162.45039 242.01774,162.08681 242.92893,162.08681 C 243.48551,162.08681 243.96131,162.19678 244.35631,162.41672 C 244.75579,162.63218 245.0857,162.96434 245.34604,163.41319 M 241.12451,166.04575 C 241.12451,166.95694 241.31079,167.67288 241.68334,168.19355 C 242.06038,168.70974 242.57657,168.96784 243.23191,168.96784 C 243.88724,168.96784 244.40343,168.70974 244.78048,168.19355 C 245.15752,167.67288 245.34604,166.95694 245.34604,166.04575 C 245.34604,165.13457 245.15752,164.42089 244.78048,163.90469 C 244.40343,163.38402 243.88724,163.12368 243.23191,163.12367 C 242.57657,163.12368 242.06038,163.38402 241.68334,163.90469 C 241.31079,164.42089 241.12451,165.13457 241.12451,166.04575 M 252.56372,166.01882 C 251.56276,166.01883 250.86927,166.13329 250.48325,166.3622 C 250.09723,166.59112 249.90422,166.98163 249.90422,167.53373 C 249.90422,167.97361 250.04785,168.32372 250.33513,168.58406 C 250.62688,168.83991 251.02188,168.96784 251.52012,168.96784 C 252.20687,168.96784 252.75672,168.72545 253.16968,168.24068 C 253.58711,167.75143 253.79583,167.10282 253.79584,166.29487 L 253.79584,166.01882 L 252.56372,166.01882 M 255.03469,165.50712 L 255.03469,169.80945 L 253.79584,169.80945 L 253.79584,168.66485 C 253.51305,169.12269 253.1607,169.46158 252.73877,169.68152 C 252.31684,169.89698 251.80065,170.0047 251.19021,170.0047 C 250.41816,170.0047 249.80323,169.78925 249.34539,169.35834 C 248.89204,168.92295 248.66537,168.34168 248.66537,167.61452 C 248.66537,166.76618 248.94815,166.12655 249.51371,165.69564 C 250.08376,165.26474 250.93211,165.04929 252.05875,165.04928 L 253.79584,165.04928 L 253.79584,164.92809 C 253.79583,164.35805 253.60731,163.91816 253.23028,163.60844 C 252.85772,163.29425 252.33255,163.13715 251.65478,163.13714 C 251.22387,163.13715 250.80418,163.18877 250.39572,163.292 C 249.98726,163.39524 249.59451,163.5501 249.21747,163.75657 L 249.21747,162.61197 C 249.67081,162.43692 250.11069,162.30676 250.53711,162.22146 C 250.96353,162.1317 251.37872,162.08681 251.7827,162.08681 C 252.87343,162.08681 253.68811,162.3696 254.22675,162.93515 C 254.76537,163.50072 255.03469,164.35805 255.03469,165.50712 M 252.77244,158.78095 L 254.11229,158.78095 L 251.91736,161.31252 L 250.88723,161.31252 L 252.77244,158.78095 M 261.96285,163.42665 C 261.8237,163.34587 261.67109,163.28751 261.50502,163.2516 C 261.34342,163.21121 261.16388,163.19101 260.96638,163.191 C 260.26616,163.19101 259.72753,163.41993 259.35049,163.87776 C 258.97793,164.33111 258.79165,164.9842 258.79166,165.83703 L 258.79166,169.80945 L 257.54607,169.80945 L 257.54607,162.26859 L 258.79166,162.26859 L 258.79166,163.44012 C 259.05199,162.98229 259.39088,162.6434 259.80832,162.42345 C 260.22576,162.19903 260.73297,162.08681 261.32996,162.08681 C 261.41524,162.08681 261.5095,162.09355 261.61274,162.10701 C 261.71597,162.11599 261.83043,162.1317 261.95612,162.15414 L 261.96285,163.42665 M 263.27577,162.26859 L 264.51462,162.26859 L 264.51462,169.80945 L 263.27577,169.80945 L 263.27577,162.26859 M 263.27577,159.33305 L 264.51462,159.33305 L 264.51462,160.90182 L 263.27577,160.90182 L 263.27577,159.33305 M 270.5271,166.01882 C 269.52614,166.01883 268.83265,166.13329 268.44663,166.3622 C 268.06061,166.59112 267.8676,166.98163 267.8676,167.53373 C 267.8676,167.97361 268.01123,168.32372 268.29851,168.58406 C 268.59026,168.83991 268.98526,168.96784 269.4835,168.96784 C 270.17025,168.96784 270.7201,168.72545 271.13306,168.24068 C 271.55049,167.75143 271.75921,167.10282 271.75922,166.29487 L 271.75922,166.01882 L 270.5271,166.01882 M 272.99807,165.50712 L 272.99807,169.80945 L 271.75922,169.80945 L 271.75922,168.66485 C 271.47643,169.12269 271.12408,169.46158 270.70215,169.68152 C 270.28022,169.89698 269.76403,170.0047 269.15359,170.0047 C 268.38154,170.0047 267.7666,169.78925 267.30877,169.35834 C 266.85542,168.92295 266.62875,168.34168 266.62875,167.61452 C 266.62875,166.76618 266.91153,166.12655 267.47709,165.69564 C 268.04714,165.26474 268.89549,165.04929 270.02213,165.04928 L 271.75922,165.04928 L 271.75922,164.92809 C 271.75921,164.35805 271.57069,163.91816 271.19366,163.60844 C 270.8211,163.29425 270.29593,163.13715 269.61816,163.13714 C 269.18725,163.13715 268.76756,163.18877 268.3591,163.292 C 267.95064,163.39524 267.55789,163.5501 267.18084,163.75657 L 267.18084,162.61197 C 267.63419,162.43692 268.07407,162.30676 268.50049,162.22146 C 268.92691,162.1317 269.3421,162.08681 269.74608,162.08681 C 270.83681,162.08681 271.65149,162.3696 272.19013,162.93515 C 272.72875,163.50072 272.99807,164.35805 272.99807,165.50712"
     id="text2620" />
</svg>
