<?xml version="1.0" encoding="UTF-8" standalone="no"?>
<!-- Created with Inkscape (http://www.inkscape.org/) -->
<svg
   xmlns:dc="http://purl.org/dc/elements/1.1/"
   xmlns:cc="http://creativecommons.org/ns#"
   xmlns:rdf="http://www.w3.org/1999/02/22-rdf-syntax-ns#"
   xmlns:svg="http://www.w3.org/2000/svg"
   xmlns="http://www.w3.org/2000/svg"
   xmlns:xlink="http://www.w3.org/1999/xlink"
   xmlns:sodipodi="http://sodipodi.sourceforge.net/DTD/sodipodi-0.dtd"
   xmlns:inkscape="http://www.inkscape.org/namespaces/inkscape"
   width="500"
   height="500"
   id="svg2"
   sodipodi:version="0.32"
   inkscape:version="0.46"
   sodipodi:docname="logo-zen3.svg"
   inkscape:output_extension="org.inkscape.output.svg.inkscape"
   version="1.0">
  <defs
     id="defs4">
    <inkscape:perspective
       sodipodi:type="inkscape:persp3d"
       inkscape:vp_x="0 : 372.04724 : 1"
       inkscape:vp_y="0 : 1000 : 0"
       inkscape:vp_z="1052.3622 : 372.04724 : 1"
       inkscape:persp3d-origin="526.18109 : 248.03149 : 1"
       id="perspective2678" />
  </defs>
  <sodipodi:namedview
     id="base"
     pagecolor="#ffffff"
     bordercolor="#666666"
     borderopacity="1.0"
     inkscape:pageopacity="0.0"
     inkscape:pageshadow="2"
     inkscape:zoom="0.986"
     inkscape:cx="250"
     inkscape:cy="250"
     inkscape:document-units="px"
     inkscape:current-layer="layer1"
     inkscape:window-width="1024"
     inkscape:window-height="705"
     inkscape:window-x="0"
     inkscape:window-y="0"
     showgrid="false" />
  <metadata
     id="metadata7">
    <rdf:RDF>
      <cc:Work
         rdf:about="">
        <dc:format>image/svg+xml</dc:format>
        <dc:type
           rdf:resource="http://purl.org/dc/dcmitype/StillImage" />
        <dc:creator>
          <cc:Agent>
            <dc:title>Aurélio A. Heckert</dc:title>
          </cc:Agent>
        </dc:creator>
      </cc:Work>
    </rdf:RDF>
  </metadata>
  <g
     inkscape:label="Camada 1"
     inkscape:groupmode="layer"
     id="layer1">
    <g
       transform="matrix(15.278839,0,0,15.278839,5.5385779,25.278839)"
       id="g2574">
      <g
         id="g2576">
        <path
           style="fill:#f57900;fill-opacity:1;fill-rule:nonzero;stroke:#ce5c00;stroke-width:1;stroke-linecap:round;stroke-linejoin:round;marker:none;marker-start:none;marker-mid:none;marker-end:none;stroke-miterlimit:4;stroke-dasharray:none;stroke-dashoffset:0;stroke-opacity:1;visibility:visible;display:inline;overflow:visible;enable-background:accumulate"
           d="M 28.233209,16.887774 L 29.174254,15.257836 C 29.434992,14.806225 29.48917,14.42494 29.49012,13.960741 L 29.499996,9.1311351 C 29.50224,8.0336617 28.612864,7.1493042 27.504864,7.1493043 C 26.396865,7.1493044 25.523034,8.036436 25.523034,9.1444359 L 25.522653,13.582596 L 24.772653,14.881634 L 20.442526,12.381634 C 19.482969,11.827634 18.264475,12.154129 17.710475,13.113685 C 17.156475,14.073241 17.482969,15.291736 18.442526,15.845736 L 20.174576,16.845736 L 19.674576,17.711761 L 25.088804,22.334043 L 28.233209,16.887774 z"
           sodipodi:nodetypes="csscsccccsccccc"
           id="path2578" />
        <path
           style="fill:#f57900;fill-opacity:1;fill-rule:nonzero;stroke:#fcaf3e;stroke-width:1;stroke-linecap:round;stroke-linejoin:round;marker:none;marker-start:none;marker-mid:none;marker-end:none;stroke-miterlimit:4;stroke-dashoffset:0;stroke-opacity:1;visibility:visible;display:inline;overflow:visible;enable-background:accumulate"
           d="M 24.619936,21.146147 L 27.370728,16.381635 L 28.308228,14.757837 C 28.477097,14.465349 28.481554,14.343764 28.482347,13.956255 L 28.492223,9.126649 C 28.49336,8.570527 28.076272,8.157077 27.500376,8.157078 C 26.92615,8.157077 26.530805,8.566695 26.530805,9.148924 L 26.530424,13.587084 C 26.527277,13.761802 26.478405,13.932646 26.388677,14.082597 L 25.638678,15.381635 C 25.362499,15.85988 24.750953,16.023743 24.272652,15.74766 L 19.942525,13.24766 C 19.447767,12.962012 18.862148,13.118928 18.5765,13.613685 C 18.290851,14.108443 18.447767,14.694062 18.942525,14.979711 L 20.674576,15.979711 C 21.152821,16.255889 21.316685,16.867436 21.040602,17.345736 L 20.540602,18.211761 L 24.619936,21.146147 z"
           sodipodi:nodetypes="cccccsccccccsccccc"
           id="path2580" />
      </g>
      <g
         id="g2582"
         transform="matrix(0,1,-1,0,29.99291,-10)">
        <path
           style="opacity:1;fill:#3465a4;fill-opacity:1;fill-rule:nonzero;stroke:#204a87;stroke-width:1;stroke-linecap:round;stroke-linejoin:round;marker:none;marker-start:none;marker-mid:none;marker-end:none;stroke-miterlimit:4;stroke-dasharray:none;stroke-dashoffset:0;stroke-opacity:1;visibility:visible;display:inline;overflow:visible;enable-background:accumulate"
           d="M 13.5,18.49291 L 13.5,20.375 C 13.5,20.896476 13.643723,21.253768 13.875,21.65625 L 16.28125,25.84375 C 16.828043,26.795312 18.040444,27.1165 19,26.5625 C 19.959556,26.0085 20.27275,24.803306 19.71875,23.84375 L 17.5,20 L 17.5,18.5 L 22.5,18.5 C 23.608,18.5 24.5,17.608 24.5,16.5 C 24.5,15.392 23.608,14.5 22.5,14.5 L 20.5,14.5 L 20.5,13.5 L 22.5,13.5 C 23.608,13.5 24.5,12.608 24.5,11.5 C 24.5,10.392 23.608,9.5 22.5,9.5 L 17.5,9.5 L 17.5,8 L 19.71875,4.15625 C 20.27275,3.1966939 19.959556,1.9915 19,1.4375 C 18.640166,1.22975 18.258963,1.1294091 17.875,1.15625 C 17.235061,1.2009848 16.625633,1.5569335 16.28125,2.15625 L 13.875,6.34375 C 13.619028,6.7892077 13.5,7.1618357 13.5,7.625 L 13.5,18.49291 z"
           sodipodi:nodetypes="csscsccccsccccsccccsccccc"
           id="path2584" />
        <path
           sodipodi:type="inkscape:offset"
           inkscape:original="M 17.875 1.15625 C 17.235061 1.2009848 16.625633 1.5569335 16.28125 2.15625 L 13.875 6.34375 C 13.619028 6.7892077 13.5 7.1618357 13.5 7.625 L 13.5 18.5 L 13.5 20.375 C 13.5 20.896476 13.643723 21.253768 13.875 21.65625 L 16.28125 25.84375 C 16.828043 26.795312 18.040444 27.1165 19 26.5625 C 19.959556 26.0085 20.27275 24.803306 19.71875 23.84375 L 17.5 20 L 17.5 18.5 L 22.5 18.5 C 23.608 18.5 24.5 17.608 24.5 16.5 C 24.5 15.392 23.608 14.5 22.5 14.5 L 20.5 14.5 L 20.5 13.5 L 22.5 13.5 C 23.608 13.5 24.5 12.608 24.5 11.5 C 24.5 10.392 23.608 9.5 22.5 9.5 L 17.5 9.5 L 17.5 8 L 19.71875 4.15625 C 20.27275 3.1966939 19.959556 1.9915 19 1.4375 C 18.640166 1.22975 18.258963 1.1294091 17.875 1.15625 z "
           style="opacity:1;fill:#3465a4;fill-opacity:1;fill-rule:nonzero;stroke:#6693c6;stroke-width:1;stroke-linecap:round;stroke-linejoin:round;marker:none;marker-start:none;marker-mid:none;marker-end:none;stroke-miterlimit:4;stroke-dasharray:none;stroke-dashoffset:0;stroke-opacity:1;visibility:visible;display:inline;overflow:visible;enable-background:accumulate"
           d="M 17.9375,2.15625 C 17.621617,2.1783318 17.331938,2.3505071 17.15625,2.65625 L 14.75,6.84375 C 14.547333,7.1964431 14.5,7.3331615 14.5,7.625 L 14.5,18.5 L 14.5,20.375 C 14.5,20.712737 14.556932,20.820261 14.75,21.15625 L 17.15625,25.34375 C 17.433326,25.825934 18.00126,25.975448 18.5,25.6875 C 18.997295,25.400387 19.134865,24.847975 18.84375,24.34375 L 16.625,20.5 C 16.540367,20.347116 16.497269,20.174725 16.5,20 L 16.5,18.5 C 16.500055,17.947738 16.947738,17.500055 17.5,17.5 L 22.5,17.5 C 23.071297,17.5 23.5,17.071297 23.5,16.5 C 23.5,15.928703 23.071297,15.5 22.5,15.5 L 20.5,15.5 C 19.947738,15.499945 19.500055,15.052262 19.5,14.5 L 19.5,13.5 C 19.500055,12.947738 19.947738,12.500055 20.5,12.5 L 22.5,12.5 C 23.071297,12.5 23.5,12.071297 23.5,11.5 C 23.5,10.928703 23.071297,10.5 22.5,10.5 L 17.5,10.5 C 16.947738,10.499945 16.500055,10.052262 16.5,9.5 L 16.5,8 C 16.497269,7.825275 16.540367,7.6528839 16.625,7.5 L 18.84375,3.65625 C 19.134865,3.1520247 18.997295,2.5996132 18.5,2.3125 C 18.284265,2.1879456 18.102581,2.14471 17.9375,2.15625 z"
           inkscape:href="#rect2286"
           xlink:href="#rect2286"
           inkscape:radius="-1"
           id="path2586" />
        <path
           style="fill:#3465a4;fill-opacity:1;fill-rule:nonzero;stroke:#204a87;stroke-width:1.14285707;stroke-linecap:round;stroke-linejoin:round;marker:none;marker-start:none;marker-mid:none;marker-end:none;stroke-miterlimit:4;stroke-dasharray:none;stroke-dashoffset:0;stroke-opacity:1;visibility:visible;display:inline;overflow:visible;enable-background:accumulate"
           sodipodi:cx="15.5"
           sodipodi:cy="25.5"
           sodipodi:type="arc"
           transform="matrix(0,0.875,0.875,0,-9.3125002,0.4375)"
           d="M 19.5,25.5 A 4,4 0 1 1 11.5,25.5 A 4,4 0 1 1 19.5,25.5 z"
           sodipodi:rx="4"
           id="path2588"
           sodipodi:ry="4" />
        <path
           style="fill:#3465a4;fill-opacity:1;fill-rule:nonzero;stroke:#6693c6;stroke-width:1.20000005;stroke-linecap:round;stroke-linejoin:round;marker:none;marker-start:none;marker-mid:none;marker-end:none;stroke-miterlimit:4;stroke-dasharray:none;stroke-dashoffset:0;stroke-opacity:1;visibility:visible;display:inline;overflow:visible;enable-background:accumulate"
           sodipodi:cx="15.5"
           sodipodi:cy="25.5"
           sodipodi:type="arc"
           transform="matrix(0,0.8333333,0.8333333,0,-8.2500002,1.0833333)"
           d="M 18.5,25.5 A 3,3 0 1 1 12.5,25.5 A 3,3 0 1 1 18.5,25.5 z"
           sodipodi:rx="3"
           id="path2590"
           sodipodi:ry="3" />
      </g>
      <g
         id="g2592"
         transform="matrix(0.8660254,-0.5,-0.5,-0.8660254,1.321903,39.653104)">
        <path
           style="opacity:1;fill:#73d216;fill-opacity:1;fill-rule:nonzero;stroke:#4e9a06;stroke-width:1;stroke-linecap:round;stroke-linejoin:round;marker:none;marker-start:none;marker-mid:none;marker-end:none;stroke-miterlimit:4;stroke-dasharray:none;stroke-dashoffset:0;stroke-opacity:1;visibility:visible;display:inline;overflow:visible;enable-background:accumulate"
           d="M 13.5,18.49291 L 13.5,20.375 C 13.5,20.896476 13.643723,21.253768 13.875,21.65625 L 16.28125,25.84375 C 16.828043,26.795312 18.040444,27.1165 19,26.5625 C 19.959556,26.0085 20.27275,24.803306 19.71875,23.84375 L 17.5,20 L 17.5,18.5 L 22.5,18.5 C 23.608,18.5 24.5,17.608 24.5,16.5 C 24.5,15.392 23.608,14.5 22.5,14.5 L 20.5,14.5 L 20.5,13.5 L 22.5,13.5 C 23.608,13.5 24.5,12.608 24.5,11.5 C 24.5,10.392 23.608,9.5 22.5,9.5 L 17.5,9.5 L 17.5,8 L 19.71875,4.15625 C 20.27275,3.1966939 19.959556,1.9915 19,1.4375 C 18.640166,1.22975 18.258963,1.1294091 17.875,1.15625 C 17.235061,1.2009848 16.625633,1.5569335 16.28125,2.15625 L 13.875,6.34375 C 13.619028,6.7892077 13.5,7.1618357 13.5,7.625 L 13.5,18.49291 z"
           sodipodi:nodetypes="csscsccccsccccsccccsccccc"
           id="path2594" />
        <path
           sodipodi:type="inkscape:offset"
           inkscape:original="M 17.875 1.15625 C 17.235061 1.2009848 16.625633 1.5569335 16.28125 2.15625 L 13.875 6.34375 C 13.619028 6.7892077 13.5 7.1618357 13.5 7.625 L 13.5 18.5 L 13.5 20.375 C 13.5 20.896476 13.643723 21.253768 13.875 21.65625 L 16.28125 25.84375 C 16.828043 26.795312 18.040444 27.1165 19 26.5625 C 19.959556 26.0085 20.27275 24.803306 19.71875 23.84375 L 17.5 20 L 17.5 18.5 L 22.5 18.5 C 23.608 18.5 24.5 17.608 24.5 16.5 C 24.5 15.392 23.608 14.5 22.5 14.5 L 20.5 14.5 L 20.5 13.5 L 22.5 13.5 C 23.608 13.5 24.5 12.608 24.5 11.5 C 24.5 10.392 23.608 9.5 22.5 9.5 L 17.5 9.5 L 17.5 8 L 19.71875 4.15625 C 20.27275 3.1966939 19.959556 1.9915 19 1.4375 C 18.640166 1.22975 18.258963 1.1294091 17.875 1.15625 z "
           style="opacity:1;fill:#73d216;fill-opacity:1;fill-rule:nonzero;stroke:#9ae84e;stroke-width:1;stroke-linecap:round;stroke-linejoin:round;marker:none;marker-start:none;marker-mid:none;marker-end:none;stroke-miterlimit:4;stroke-dasharray:none;stroke-dashoffset:0;stroke-opacity:1;visibility:visible;display:inline;overflow:visible;enable-background:accumulate"
           d="M 17.9375,2.15625 C 17.621617,2.1783318 17.331938,2.3505071 17.15625,2.65625 L 14.75,6.84375 C 14.547333,7.1964431 14.5,7.3331615 14.5,7.625 L 14.5,18.5 L 14.5,20.375 C 14.5,20.712737 14.556932,20.820261 14.75,21.15625 L 17.15625,25.34375 C 17.433326,25.825934 18.00126,25.975448 18.5,25.6875 C 18.997295,25.400387 19.134865,24.847975 18.84375,24.34375 L 16.625,20.5 C 16.540367,20.347116 16.497269,20.174725 16.5,20 L 16.5,18.5 C 16.500055,17.947738 16.947738,17.500055 17.5,17.5 L 22.5,17.5 C 23.071297,17.5 23.5,17.071297 23.5,16.5 C 23.5,15.928703 23.071297,15.5 22.5,15.5 L 20.5,15.5 C 19.947738,15.499945 19.500055,15.052262 19.5,14.5 L 19.5,13.5 C 19.500055,12.947738 19.947738,12.500055 20.5,12.5 L 22.5,12.5 C 23.071297,12.5 23.5,12.071297 23.5,11.5 C 23.5,10.928703 23.071297,10.5 22.5,10.5 L 17.5,10.5 C 16.947738,10.499945 16.500055,10.052262 16.5,9.5 L 16.5,8 C 16.497269,7.825275 16.540367,7.6528839 16.625,7.5 L 18.84375,3.65625 C 19.134865,3.1520247 18.997295,2.5996132 18.5,2.3125 C 18.284265,2.1879456 18.102581,2.14471 17.9375,2.15625 z"
           inkscape:href="#rect2286"
           xlink:href="#rect2286"
           inkscape:radius="-1"
           id="path2596" />
        <path
           style="opacity:1;fill:#73d216;fill-opacity:1;fill-rule:nonzero;stroke:#4e9a06;stroke-width:1.14285719;stroke-linecap:round;stroke-linejoin:round;marker:none;marker-start:none;marker-mid:none;marker-end:none;stroke-miterlimit:4;stroke-dasharray:none;stroke-dashoffset:0;stroke-opacity:1;visibility:visible;display:inline;overflow:visible;enable-background:accumulate"
           sodipodi:cx="15.5"
           sodipodi:cy="25.5"
           sodipodi:type="arc"
           transform="matrix(0,0.875,0.875,0,-9.3121723,0.4375)"
           d="M 19.5,25.5 A 4,4 0 1 1 11.5,25.5 A 4,4 0 1 1 19.5,25.5 z"
           sodipodi:rx="4"
           id="path2598"
           sodipodi:ry="4" />
        <path
           style="opacity:1;fill:#73d216;fill-opacity:1;fill-rule:nonzero;stroke:#9ae84e;stroke-width:1.20000005;stroke-linecap:round;stroke-linejoin:round;marker:none;marker-start:none;marker-mid:none;marker-end:none;stroke-miterlimit:4;stroke-dasharray:none;stroke-dashoffset:0;stroke-opacity:1;visibility:visible;display:inline;overflow:visible;enable-background:accumulate"
           sodipodi:cx="15.5"
           sodipodi:cy="25.5"
           sodipodi:type="arc"
           transform="matrix(0,0.8333333,0.8333333,0,-8.2496723,1.0833333)"
           d="M 18.5,25.5 A 3,3 0 1 1 12.5,25.5 A 3,3 0 1 1 18.5,25.5 z"
           sodipodi:rx="3"
           id="path2600"
           sodipodi:ry="3" />
      </g>
      <g
         id="g2602">
        <path
           style="fill:#f57900;fill-opacity:1;fill-rule:nonzero;stroke:#ce5c00;stroke-width:1;stroke-linecap:round;stroke-linejoin:round;marker:none;marker-start:none;marker-mid:none;marker-end:none;stroke-miterlimit:4;stroke-dasharray:none;stroke-dashoffset:0;stroke-opacity:1;visibility:visible;display:inline;overflow:visible;enable-background:accumulate"
           d="M 20.174576,16.845736 L 19.674576,17.711761 L 17.942526,16.711761 C 16.982969,16.157761 15.764475,16.484256 15.210475,17.443812 C 14.656475,18.403368 14.982969,19.621863 15.942526,20.175863 L 20.272653,22.675863 L 19.522653,23.974901 L 15.679284,26.194311 C 14.719728,26.748311 14.388365,27.948636 14.942364,28.908192 C 15.150115,29.268026 15.430076,29.545526 15.776018,29.714262 C 16.352589,29.99549 17.058343,29.991944 17.656246,29.645112 L 21.83387,27.221755 C 22.278277,26.963964 22.567672,26.700772 22.799254,26.29966 L 26.282949,20.265724"
           sodipodi:nodetypes="cccsccccsccccc"
           id="path2604" />
        <path
           style="fill:#f57900;fill-opacity:1;fill-rule:nonzero;stroke:#fcaf3e;stroke-width:1;stroke-linecap:round;stroke-linejoin:round;marker:none;marker-start:none;marker-mid:none;marker-end:none;stroke-miterlimit:4;stroke-dasharray:none;stroke-dashoffset:0;stroke-opacity:1;visibility:visible;display:inline;overflow:visible;enable-background:accumulate"
           d="M 21.040602,17.345736 L 20.540602,18.211761 C 20.264423,18.690007 19.652877,18.85387 19.174576,18.577787 L 17.442525,17.577787 C 16.947768,17.292138 16.362148,17.449054 16.0765,17.943812 C 15.790852,18.43857 15.947768,19.024189 16.442526,19.309837 L 20.772653,21.809837 C 21.250898,22.086016 21.414761,22.697562 21.138678,23.175863 L 20.388678,24.474901 C 20.303681,24.627582 20.180161,24.755329 20.030425,24.845413 L 16.187056,27.064824 C 15.68283,27.355938 15.525764,27.903125 15.812877,28.40042 C 15.937432,28.616155 16.073157,28.74444 16.221891,28.816987 C 16.506495,28.955805 16.843452,28.951536 17.148474,28.774599 L 21.326097,26.351243 C 21.677959,26.147135 21.787309,26.0524 21.933229,25.79966 L 25.520751,19.585889"
           sodipodi:nodetypes="ccccsccccccsccccc"
           id="path2606" />
        <path
           style="fill:#f57900;fill-opacity:1;fill-rule:nonzero;stroke:#ce5c00;stroke-width:1.14285707;stroke-linecap:round;stroke-linejoin:round;marker:none;marker-start:none;marker-mid:none;marker-end:none;stroke-miterlimit:4;stroke-dasharray:none;stroke-dashoffset:0;stroke-opacity:1;visibility:visible;display:inline;overflow:visible;enable-background:accumulate"
           sodipodi:cx="15.5"
           sodipodi:cy="25.5"
           sodipodi:type="arc"
           transform="matrix(0.4375,-0.7577722,-0.7577722,-0.4375,38.961424,43.930304)"
           d="M 19.5,25.5 A 4,4 0 1 1 11.5,25.5 A 4,4 0 1 1 19.5,25.5 z"
           sodipodi:rx="4"
           id="path2608"
           sodipodi:ry="4" />
        <path
           style="fill:#f57900;fill-opacity:1;fill-rule:nonzero;stroke:#fcaf3e;stroke-width:1.20000005;stroke-linecap:round;stroke-linejoin:round;marker:none;marker-start:none;marker-mid:none;marker-end:none;stroke-miterlimit:4;stroke-dasharray:none;stroke-dashoffset:0;stroke-opacity:1;visibility:visible;display:inline;overflow:visible;enable-background:accumulate"
           sodipodi:cx="15.5"
           sodipodi:cy="25.5"
           sodipodi:type="arc"
           transform="matrix(0.4166667,-0.7216878,-0.7216878,-0.4166667,38.364189,42.839745)"
           d="M 18.5,25.5 A 3,3 0 1 1 12.5,25.5 A 3,3 0 1 1 18.5,25.5 z"
           sodipodi:rx="3"
           id="path2610"
           sodipodi:ry="3" />
      </g>
    </g>
  </g>
</svg>
