<?xml version="1.0" encoding="UTF-8" standalone="no"?>
<!-- Created with Inkscape (http://www.inkscape.org/) -->
<svg
   xmlns:dc="http://purl.org/dc/elements/1.1/"
   xmlns:cc="http://creativecommons.org/ns#"
   xmlns:rdf="http://www.w3.org/1999/02/22-rdf-syntax-ns#"
   xmlns:svg="http://www.w3.org/2000/svg"
   xmlns="http://www.w3.org/2000/svg"
   xmlns:xlink="http://www.w3.org/1999/xlink"
   xmlns:sodipodi="http://sodipodi.sourceforge.net/DTD/sodipodi-0.dtd"
   xmlns:inkscape="http://www.inkscape.org/namespaces/inkscape"
   width="210mm"
   height="297mm"
   id="svg2875"
   sodipodi:version="0.32"
   inkscape:version="0.46+devel"
   sodipodi:docname="logo-yorg-vertical.svg"
   inkscape:output_extension="org.inkscape.output.svg.inkscape">
  <defs
     id="defs2877">
    <inkscape:perspective
       sodipodi:type="inkscape:persp3d"
       inkscape:vp_x="0 : 526.18109 : 1"
       inkscape:vp_y="0 : 1000 : 0"
       inkscape:vp_z="744.09448 : 526.18109 : 1"
       inkscape:persp3d-origin="372.04724 : 350.78739 : 1"
       id="perspective2883" />
    <inkscape:perspective
       id="perspective2860"
       inkscape:persp3d-origin="0.5 : 0.33333333 : 1"
       inkscape:vp_z="1 : 0.5 : 1"
       inkscape:vp_y="0 : 1000 : 0"
       inkscape:vp_x="0 : 0.5 : 1"
       sodipodi:type="inkscape:persp3d" />
    <linearGradient
       inkscape:collect="always"
       xlink:href="#linearGradient2779"
       id="linearGradient3541"
       gradientUnits="userSpaceOnUse"
       x1="589.56012"
       y1="210.37448"
       x2="1247.5486"
       y2="1043.1565" />
    <linearGradient
       id="linearGradient2779">
      <stop
         style="stop-color:#33b8f5;stop-opacity:1;"
         offset="0"
         id="stop2781" />
      <stop
         style="stop-color:#0b5d84;stop-opacity:1;"
         offset="1"
         id="stop2783" />
    </linearGradient>
  </defs>
  <sodipodi:namedview
     id="base"
     pagecolor="#ffffff"
     bordercolor="#666666"
     borderopacity="1.0"
     inkscape:pageopacity="0.0"
     inkscape:pageshadow="2"
     inkscape:zoom="0.35"
     inkscape:cx="350"
     inkscape:cy="520"
     inkscape:document-units="px"
     inkscape:current-layer="layer1"
     showgrid="false"
     inkscape:window-width="1024"
     inkscape:window-height="705"
     inkscape:window-x="0"
     inkscape:window-y="0" />
  <metadata
     id="metadata2880">
    <rdf:RDF>
      <cc:Work
         rdf:about="">
        <dc:format>image/svg+xml</dc:format>
        <dc:type
           rdf:resource="http://purl.org/dc/dcmitype/StillImage" />
      </cc:Work>
    </rdf:RDF>
  </metadata>
  <g
     inkscape:label="Camada 1"
     inkscape:groupmode="layer"
     id="layer1">
    <g
       transform="matrix(0.3909828,0,0,0.3909828,14.972786,223.44953)"
       id="g4812">
      <g
         id="g4814"
         style="opacity:0.2;fill:#000000"
         transform="translate(2,0)">
        <path
           style="fill:#000000;fill-opacity:1"
           d="m 159.6875,1155 c -5.87503,0.0506 -14.68545,2.6091 -18.90625,5.6875 -9.55734,6.9707 -19.91105,21.8974 -29,41.8125 -7.28277,15.9575 -17.37287,39.6481 -18.75,44 -2.287268,7.2281 -5.163685,11.5 -7.75,11.5 -3.105161,0 -6.770521,-4.0604 -8.875,-9.8437 -0.93132,-2.5595 -3.44821,-8.6276 -5.59375,-13.5 -2.145543,-4.8725 -5.038978,-13.6475 -6.4375,-19.5 -6.73291,-28.1761 -9.484719,-35.1574 -16.9375,-43.125 -2.4119,-2.5786 -6.97693,-5.9829 -10.15625,-7.5938 -5.21339,-2.6416 -6.72926,-2.9375 -15.5,-2.9375 -9.2983,0 -9.84671,0.1268 -12.5,2.7813 -2.38112,2.3821 -2.75183,3.5177 -2.625,8 0.19653,6.9459 2.08203,12.2715 10.875,30.7187 4.06349,8.525 10.593241,22.7 14.53125,31.5 3.93801,8.8 9.98659,22.3 13.4375,30 8.22211,18.346 12.18497,30.3789 14.59375,44.4688 2.03146,11.8827 1.814019,18.805 -1.125,36.75 -1.50632,9.1971 -1.176541,26.1835 0.625,32.25 3.03183,10.2093 8.026376,15.9524 16.5,19 5.843028,2.1014 13.944548,2.614 16.84375,1.0625 5.58453,-2.9887 8.21232,-25.1131 6.78125,-57.0313 -0.43154,-9.625 -0.64523,-23.125 -0.46875,-30 l 0.3125,-12.5 32.375,-67.5 c 34.3643,-71.6629 35.7089,-75.0334 30.0625,-75.8437 -0.69815,-0.1003 -1.47321,-0.1635 -2.3125,-0.1563 z m 925.75,57.3125 c -2.2631,0.0544 -5.48,1.1136 -10.1562,2.6875 -11.9222,4.0125 -16.1614,6.0725 -20.8125,10.1563 -4.8093,4.2225 -6.3307,7.4684 -8.0313,17.1562 -1.5404,8.7757 -3.7266,12.8115 -7.4375,13.6875 -4.0603,0.9585 -6.3905,5.344 -6.8125,12.8125 -0.4648,8.2252 1.4196,13.4982 5.75,15.9688 5.6905,3.2463 7.6791,12.2214 8.6563,39.1875 0.7459,20.5885 2.3108,30.0966 6.2812,38.4375 6.6546,13.9797 21.4651,26.5827 38.375,32.5937 2.9431,1.0462 8.1385,1.8965 11.8438,1.9375 8.2654,0.0916 9.3827,-0.9998 11.3125,-11 0.79,-4.094 1.9038,-8.7017 2.5,-10.25 3.3048,-8.5843 0.142,-13.8294 -10.6875,-17.7187 -12.3623,-4.4399 -14.5,-10.0814 -14.5,-37.9688 0,-26.3989 2.0116,-32.7977 10.8437,-34.4375 6.9533,-1.2911 10.7326,-6.6678 10.6563,-15.1562 -0.0755,-8.4097 -4.4054,-14.4063 -10.375,-14.4063 -3.7112,0 -8.5726,-4.3705 -9.8125,-8.8125 -0.5659,-2.0271 -1.2894,-8.8625 -1.5938,-15.1875 -0.7239,-15.043 -1.0213,-19.8072 -6,-19.6875 z M 377.59375,1212.5 c -1.65243,0.0663 -4.13287,0.6893 -8.4375,2.0313 -13.76881,4.2925 -22.93178,9.5479 -27.28125,15.6562 -1.13303,1.5912 -2.69054,5.8048 -3.4375,9.375 -1.68683,8.0622 -4.88383,14.0655 -12.03125,22.4375 -6.2882,7.3656 -9.40625,12.769 -9.40625,16.375 0,2.648 4.11028,6.6154 6.875,6.625 0.88833,0.003 3.31337,0.49 5.375,1.0625 7.12236,1.978 8.41648,7.4696 9.6875,41.125 1.36375,36.1107 4.07771,45.2656 16.90625,56.8438 7.08274,6.3924 14.456,10.5356 21.21875,11.9375 14.19591,2.9427 24.41573,-3.8176 29.09375,-19.2188 2.74312,-9.0311 1.51724,-12.9399 -5.15625,-16.4687 -7.95085,-4.2044 -9.14563,-5.352 -12.125,-11.7188 -4.22472,-9.028 -6.06841,-19.1229 -6,-32.75 0.10215,-20.3427 3.50864,-28.6983 12.375,-30.3437 6.57652,-1.2206 11.55681,-9.9135 10.09375,-17.5938 -1.40649,-7.3834 -5.3806,-11.875 -10.5,-11.875 -3.71235,0 -8.25753,-4.1076 -9.625,-8.6875 -0.62555,-2.095 -1.41948,-9.4375 -1.75,-16.3125 -0.74198,-15.4332 -0.99509,-16.6717 -3.59375,-18.0625 -0.62262,-0.3332 -1.28979,-0.4773 -2.28125,-0.4375 z m 1427.56255,34.5938 c -2.7672,0.0411 -5.9277,0.1396 -9.5,0.25 -31.7227,0.9798 -56.8982,4.0879 -71.6563,8.8437 -19.6662,6.3373 -30.3242,16.2367 -34.625,32.1563 -2.0047,7.4206 -1.9383,24.205 0.125,31.3437 4.7986,16.6023 17.1633,32.447 30.0313,38.4688 6.5238,3.0527 7.4453,3.2141 19.9062,3.3437 11.1525,0.116 13.7924,0.473 18.0625,2.375 11.1988,4.9882 17.6727,12.0135 18.9688,20.6563 1.6305,10.8731 -8.9104,20.4622 -25.9063,23.5937 -8.7552,1.6132 -18.4288,0.0822 -29.0625,-4.5937 -4.4,-1.9349 -9.2769,-3.5246 -10.8437,-3.5313 -4.7162,-0.0202 -9.2542,2.8416 -16.125,10.125 -8.1772,8.6682 -8.3804,10.504 -1.7813,16.6563 8.1309,7.5803 16.9711,11.2585 33.25,13.8125 11.2911,1.7714 33.5742,1.0559 46.0938,-1.4688 21.9765,-4.4318 32.9977,-12.2773 39.7812,-28.375 2.3782,-5.6435 2.6146,-7.4658 2.5938,-18.75 -0.022,-11.8262 -0.1747,-12.8504 -3.0625,-19 -1.6789,-3.575 -5.0915,-9.0233 -7.5938,-12.0937 -8.5507,-10.4925 -8.6377,-11.7255 -1.4062,-20.25 9.6867,-11.4186 10.0368,-12.8764 10.0625,-39.9063 l 0.0312,-20.7812 2.7188,-2.2188 c 3.3231,-2.727 6.2031,-9.1449 7.8125,-17.4375 2.2411,-11.5488 1.4948,-13.507 -17.875,-13.2187 z m -143.5,1.5312 c -5.8779,0.2714 -14.8392,5.0619 -23.6875,13.0313 -3.9397,3.5484 -7.6755,6.2739 -8.3125,6.0625 -0.6372,-0.2116 -1.5127,-3.4792 -1.9375,-7.2813 -0.5376,-4.8113 -1.3681,-7.5241 -2.75,-8.9062 -1.9365,-1.9364 -2.1318,-1.9583 -8.2188,-0.2813 -7.7045,2.1226 -13.4036,3.5581 -16.9687,4.25 -3.6747,0.7131 -4.5604,2.7093 -6.4375,14.7188 -1.2867,8.2309 -1.6875,21.6784 -2.0625,67.5312 -0.2577,31.4875 -0.2372,57.25 0.0625,57.25 2.4777,0 22.8494,-4.4784 25.5937,-5.625 8.7934,-3.6742 9.7238,-7.1365 11,-41.375 1.367,-36.6702 2.7324,-40.8743 19.2188,-58.5625 5.3961,-5.7897 11.1952,-12.5274 12.875,-14.9687 7.2495,-10.537 10.091,-21.4785 6.375,-24.5625 -1.1568,-0.9601 -2.7908,-1.3718 -4.75,-1.2813 z m -983.4688,0.0938 c -5.8833,0 -13.91964,4.302 -23.4375,12.5 -7.50995,6.4684 -8.22469,6.846 -9.4375,5.1875 -0.72261,-0.9882 -1.3125,-4.1741 -1.3125,-7.0938 0,-3.9756 -0.5023,-5.8148 -2,-7.3125 -2.5164,-2.5164 -2.5065,-2.5221 -13.96875,0.5625 -5.24724,1.412 -10.88125,2.8877 -12.53125,3.2813 -2.71938,0.6488 -3.11262,1.2787 -4.21875,6.6875 -2.72557,13.3275 -3.4974,28.3888 -4,79.2187 -0.34037,34.424 -0.16403,53.25 0.46875,53.25 3.46505,0 25.89982,-5.2736 28.1875,-6.625 6.35014,-3.7512 7.68747,-10.2556 8.53125,-41.375 0.90272,-33.2926 2.94095,-39.8078 17.25,-55.25 14.77046,-15.9401 21.77765,-26.6587 22.875,-35 0.76264,-5.7971 -1.01865,-8.0312 -6.40625,-8.0312 z m 110.25,0.375 c -9.83415,-0.1291 -19.69267,3.6777 -32.84375,12.25 -13.15765,8.5766 -13.59243,8.4981 -14.71875,-2.3125 -0.88789,-8.522 -3.00971,-10.4339 -10.875,-9.8125 -7.97931,0.6304 -16.9197,4.5402 -19.625,8.5625 -5.19164,7.7187 -6.7937,29.4364 -6.0625,82.625 0.54487,39.6356 1.19539,47.6668 4.21875,52.2812 1.89002,2.8845 2.28361,2.8729 14.0625,-0.1875 5.29208,-1.375 10.96779,-2.5 12.59375,-2.5 9.79448,0 11.98758,-7.6717 14.8125,-51.5 2.54246,-39.4455 3.51926,-44.2969 9.5625,-47.5312 3.56094,-1.9058 19.14334,-1.9884 22.625,-0.125 6.25387,3.3468 7.21118,8.6625 9.8125,54.1562 2.03867,35.6536 3.33157,44.769 6.84375,48.2813 l 2.0625,2.0625 8.0625,-2.2188 c 4.43454,-1.2153 10.9545,-2.4814 14.5,-2.8125 4.74973,-0.4435 6.96911,-1.1556 8.4375,-2.7187 10.73117,-11.4229 5.91217,-86.4865 -7.40625,-115.3125 -5.08349,-11.0026 -14.32639,-18.708 -26.125,-21.7813 -3.39995,-0.8856 -6.65945,-1.3632 -9.9375,-1.4062 z m -548.59375,0.0937 c -3.44761,0.0019 -6.87101,0.4474 -10.3125,1.3438 -7.14973,1.8623 -10.67786,3.9257 -20.875,12.1562 -4.31175,3.4801 -8.4081,6.3125 -9.125,6.3125 -1.80418,0 -2.53125,-2.3172 -2.53125,-8.1562 0,-2.7412 -0.49948,-5.8897 -1.09375,-7 -1.74755,-3.2653 -6.81532,-4.8097 -13.5,-4.125 -15.6176,1.5994 -17.44297,5.6284 -19.53125,43.125 -0.63273,11.3611 -1.18605,37.3062 -1.25,57.6562 -0.1032,32.8367 0.0547,37.422 1.5625,40.75 2.05054,4.526 2.62181,4.5717 15.40625,1.25 5.29208,-1.375 11.20587,-2.5 13.125,-2.5 4.20446,0 8.62491,-4.1883 9.75,-9.2187 0.40418,-1.8071 1.14496,-5.0813 1.625,-7.2813 0.48003,-2.2 1.77132,-16.825 2.875,-32.5 1.10368,-15.675 2.49889,-31.7254 3.125,-35.6562 2.13231,-13.3875 7.27871,-18.6531 18.3125,-18.7813 7.8008,-0.0906 11.84749,2.5679 15.25,10 4.19841,9.1705 5.30066,18.0312 6.375,51.9375 1.10901,35.0003 1.84273,40.72 5.65625,43.2188 2.14992,1.4086 3.43264,1.4584 10,0.4375 4.14563,-0.6446 9.47205,-2.0134 11.84375,-3.0625 8.64775,-3.8253 9.61375,-9.5254 9.625,-57.0313 0.00987,-41.711 -0.74889,-50.5097 -5.28125,-59.875 -2.41823,-4.9968 -4.31544,-7.2701 -9,-10.7187 -11.21488,-8.256 -21.68843,-12.287 -32.03125,-12.2813 z m 264.03125,1.3438 c -9.67109,0.0756 -11.99251,0.5542 -18.5,2.75 -19.07861,6.4377 -33.65652,20.3681 -42.15625,40.3437 -13.56694,31.8843 -5.86957,64.2188 20.3125,85.2813 12.86914,10.3526 23.39237,15.051 37.96875,17 17.61248,2.3548 36.97925,-1.1889 54.625,-10 9.33156,-4.6597 13.31624,-8.9188 12.4375,-13.3125 -1.4152,-7.0761 -14.8579,-24.5938 -18.875,-24.5938 -0.92978,0 -3.3734,1.5028 -5.4375,3.3438 -4.5745,4.0801 -10.74718,6.2329 -22.125,7.75 -9.41655,1.2556 -25.98992,0.7112 -30.40625,-1 -8.25262,-3.1977 -2.77621,-8.3205 39.78125,-37.3438 23.93065,-16.3202 32.0761,-22.9167 36.3125,-29.3125 7.75956,-11.7148 1.59738,-20.7622 -22.3125,-32.7187 -13.3748,-6.6883 -20.17108,-8.1814 -37,-8.1875 -1.7151,-0.0007 -3.24342,-0.0109 -4.625,0 z m 970.1563,0.0312 c -10.2683,0.0516 -12.0157,0.493 -19.6875,3.1563 -12.921,4.4854 -22.25,10.3579 -30.7813,19.4062 -15.0186,15.9288 -20.7699,34.2911 -18.4687,58.9375 1.7901,19.1721 7.3055,31.4637 19.0312,42.3125 10.9351,10.1174 23.5351,16.5994 37.375,19.25 4.5785,0.8768 10.993,1.1708 18.5,0.8438 47.6523,-2.0759 79.3198,-33.239 76.6875,-75.4375 -1.9448,-31.1774 -23.3,-56.9714 -54.8437,-66.2813 -6.1384,-1.8117 -9.9092,-2.1679 -22.8438,-2.1875 -1.857,-0.0028 -3.5019,-0.0074 -4.9687,0 z m -534.37505,2.0313 c -8.58928,0.0053 -17.31414,0.6007 -22.40625,1.75 -14.61914,3.2995 -26.13043,10.4291 -34.46875,21.3437 -11.33237,14.8338 -20.74332,40.8324 -19.40625,53.625 1.36051,13.0166 11.13967,29.9484 26.125,45.25 8.58833,8.7696 11.19992,10.7831 18.5,14.2813 7.91259,3.7916 16.64026,6.419 25,7.5 10.37003,1.3407 27.82178,-1.3745 43.5625,-6.75 13.27695,-4.5342 16.61486,-6.0449 20.3125,-9.1563 5.1878,-4.3652 3.8452,-10.2659 -4.8125,-21.2187 -6.84641,-8.6613 -12.31972,-10.1649 -21.09375,-5.7188 -7.96588,4.0366 -17.16084,5.8185 -30.46875,5.875 -12.62657,0.0536 -18.83356,-1.4594 -20.15625,-4.9062 -1.50077,-3.911 16.62571,-18.2379 56.34375,-44.5938 16.0495,-10.6501 29.9518,-19.8566 30.9063,-20.4375 1.513,-0.9208 0.5879,-2.1664 -7.3438,-9.8125 -17.4524,-16.8242 -25.30451,-21.922 -38.9375,-25.3125 -4.59697,-1.1433 -13.06697,-1.7241 -21.65625,-1.7187 z m 1.5625,28.25 c 5.8145,0 15.78125,3.9843 15.78125,6.3125 0,2.9443 -24.92956,21.7893 -36.84375,27.8437 -8.0862,4.1091 -11.27316,4.6415 -13.4375,2.25 -8.77878,-9.7005 16.52495,-36.4062 34.5,-36.4062 z m 808.34375,0 c 9.6082,0 17.547,5.5921 22.5938,15.8437 7.408,15.0477 2.1921,30.4849 -12.9063,38.1875 -8.4726,4.3224 -17.0357,3.0104 -23.9375,-3.6875 -5.8531,-5.6802 -8.585,-12.0473 -9.125,-21.375 -0.5425,-9.3713 1.2557,-15.0882 6.625,-21.0312 4.8788,-5.4003 10.2201,-7.9375 16.75,-7.9375 z M 512.75,1281.0313 c 2.08969,-0.0696 3.89359,0.2406 5.3125,1 2.92838,1.5672 2.5359,6.9486 -0.8125,11.0937 -6.25166,7.7391 -25.7203,23.3174 -33.75,27 -7.25244,3.3263 -9.50286,1.9759 -10.28125,-6.125 -0.38544,-4.0113 0.01285,-5.6992 2.09375,-9.25 6.95016,-11.8596 26.15316,-23.3432 37.4375,-23.7187 z M 1478.625,1288 c 10.2627,0 16.9074,2.6948 24.75,10.0313 12.8719,12.041 16.6632,27.7715 10.2188,42.3437 -4.7492,10.7384 -12.8376,16.9439 -24.25,18.5938 -3.7597,0.5436 -7.0688,0.9601 -7.3438,0.9062 -0.275,-0.0538 -2.7244,-0.4834 -5.4375,-0.9375 -16.9916,-2.844 -33.8557,-20.9017 -33.9375,-36.3125 -0.0431,-8.1315 2.4948,-13.5491 10.3125,-21.9062 8.5511,-9.1412 15.7864,-12.7188 25.6875,-12.7188 z m -216.1562,51.5313 c -1.2228,0.0332 -2.3856,0.3826 -3.6563,1.0312 -4.4333,2.2628 -17.6628,14.1251 -19.9687,17.9063 -1.0143,1.6632 -1.8417,4.0061 -1.8438,5.1875 -0.0077,4.4543 14.9856,20.8394 22.7813,24.9062 3.512,1.8322 3.3041,1.8734 7.8437,-1.1562 9.7521,-6.5086 20.3572,-19.2773 20.375,-24.5 0.0102,-3.0044 -1.1016,-4.4925 -9.5312,-12.5938 -8.2351,-7.9144 -12.3319,-10.8811 -16,-10.7812 z"
           id="path4816" />
        <path
           style="fill:#000000;fill-opacity:1"
           d="m 921.52543,18.6875 c -36.8161,-0.008682 -62.69975,2.104533 -96.5,7.90625 -24.37149,4.183297 -57.72877,12.156788 -56.28125,13.4375 0.43394,0.38393 13.38125,9.011621 28.78125,19.1875 51.38525,33.953897 98.13927,68.76503 140,104.25 52.02583,44.10185 108.74487,102.1137 139.49997,142.6875 l 3.5,4.625 0.6563,-16.625 c 1.1168,-27.71627 3.0301,-251.377209 2.1562,-252.25 -1.062,-1.060564 -28.478,-8.160065 -43.8125,-11.34375 -41.49537,-8.61512 -73.87075,-11.864594 -117.99997,-11.875 z m 406.59377,169.34375 6.0312,11.46875 c 6.4303,12.24272 10.9594,24.29566 13,34.625 1.7853,9.03622 1.4847,36.0025 -0.5625,49.375 -9.4951,62.02133 -40.5108,146.2108 -88,239 -18.8164,36.76534 -34.7675,64.30723 -48.4062,83.5 l -4.625,6.5 0.2812,32 c 0.2973,33.72149 -0.6377,48.97164 -4.7812,77.5 -15.9646,109.91456 -69.1169,222.56155 -156.4063,331.5 -24.2614,30.2787 -42.5508,50.5926 -74.90622,83.25 -12.66928,12.7875 -22.62098,23.2513 -22.125,23.25 3.95182,-0.0107 30.49704,-2.3001 41.40625,-3.5625 80.50517,-9.3165 159.31927,-36.4199 228.99997,-78.7812 39.8252,-24.2112 72.8568,-50.3218 107.5625,-85.06255 46.4058,-46.45265 78.8234,-91.37524 107.6563,-149.09375 106.6392,-213.47372 67.875,-473.48949 -96.3438,-646.21875 l -8.7812,-9.25 z M 486.33793,222.375 c -1.838,0.00605 -3.2524,1.46442 -7.96875,7.46875 -30.09323,38.31119 -48.18812,66.81201 -68.34375,107.65625 -14.21637,28.80865 -21.1624,45.64522 -30.5625,74.09375 -19.95582,60.39438 -29.60348,125.58184 -28.125,189.90625 1.94243,84.50918 20.41756,161.52968 56.625,236.03125 30.04839,61.82851 64.82477,110.4065 113.1875,158.09375 36.34037,35.8328 73.45374,64.2677 115.84375,88.75 6.31068,3.6447 11.80995,6.625 12.21875,6.625 1.0549,0 24.9052,-21.2489 47.8125,-42.5937 79.00497,-73.6162 141.81149,-148.48839 181.9375,-216.9063 22.46033,-38.29654 41.12617,-82.43686 50.0625,-118.40625 34.39493,-138.44224 -21.97447,-258.77256 -169,-360.78125 -55.32801,-38.38745 -126.18727,-74.76213 -207.15625,-106.34375 -21.38557,-8.34136 -62.02549,-22.87623 -65.6875,-23.5 -0.28986,-0.04937 -0.58118,-0.09461 -0.84375,-0.09375 z"
           id="path4818" />
      </g>
      <g
         id="g4820">
        <path
           id="path4822"
           d="m 153.6875,1149 c -5.87503,0.0506 -14.68545,2.6091 -18.90625,5.6875 -9.55734,6.9707 -19.91105,21.8974 -29,41.8125 -7.28277,15.9575 -17.372869,39.6481 -18.75,44 -2.287268,7.2281 -5.163685,11.5 -7.75,11.5 -3.105161,0 -6.770521,-4.0604 -8.875,-9.8437 -0.93132,-2.5595 -3.44821,-8.6276 -5.59375,-13.5 -2.145543,-4.8725 -5.038978,-13.6475 -6.4375,-19.5 -6.73291,-28.1761 -9.484719,-35.1574 -16.9375,-43.125 -2.4119,-2.5786 -6.97693,-5.9829 -10.15625,-7.5938 -5.21339,-2.6416 -6.72926,-2.9375 -15.5,-2.9375 -9.2983,0 -9.8467099,0.1268 -12.5,2.7813 -2.38112,2.3821 -2.75182998,3.5177 -2.625,8 0.19653,6.9459 2.0820298,12.2715 10.875,30.7187 4.06349,8.525 10.593241,22.7 14.53125,31.5 3.93801,8.8 9.98659,22.3 13.4375,30 8.22211,18.346 12.18497,30.3789 14.59375,44.4688 2.03146,11.8827 1.814019,18.805 -1.125,36.75 -1.50632,9.1971 -1.176541,26.1835 0.625,32.25 3.03183,10.2093 8.026376,15.9524 16.5,19 5.843028,2.1014 13.944548,2.614 16.84375,1.0625 5.584531,-2.9887 8.212322,-25.1131 6.78125,-57.0313 -0.431544,-9.625 -0.645233,-23.125 -0.46875,-30 l 0.3125,-12.5 32.375,-67.5 c 34.3643,-71.6629 35.7089,-75.0334 30.0625,-75.8437 -0.69815,-0.1003 -1.47321,-0.1635 -2.3125,-0.1563 z m 925.75,57.3125 c -2.2631,0.0544 -5.48,1.1136 -10.1562,2.6875 -11.9222,4.0125 -16.1614,6.0725 -20.8125,10.1563 -4.8093,4.2225 -6.3307,7.4684 -8.0313,17.1562 -1.5404,8.7757 -3.7266,12.8115 -7.4375,13.6875 -4.0603,0.9585 -6.3905,5.344 -6.8125,12.8125 -0.4648,8.2252 1.4196,13.4982 5.75,15.9688 5.6905,3.2463 7.6791,12.2214 8.6563,39.1875 0.7459,20.5885 2.3108,30.0966 6.2812,38.4375 6.6546,13.9797 21.4651,26.5827 38.375,32.5937 2.9431,1.0462 8.1385,1.8965 11.8438,1.9375 8.2654,0.0916 9.3827,-0.9998 11.3125,-11 0.79,-4.094 1.9038,-8.7017 2.5,-10.25 3.3048,-8.5843 0.142,-13.8294 -10.6875,-17.7187 -12.3623,-4.4399 -14.5,-10.0814 -14.5,-37.9688 0,-26.3989 2.0116,-32.7977 10.8437,-34.4375 6.9533,-1.2911 10.7326,-6.6678 10.6563,-15.1562 -0.0755,-8.4097 -4.4054,-14.4063 -10.375,-14.4063 -3.7112,0 -8.5726,-4.3705 -9.8125,-8.8125 -0.5659,-2.0271 -1.2894,-8.8625 -1.5938,-15.1875 -0.7239,-15.043 -1.0213,-19.8072 -6,-19.6875 z M 371.59375,1206.5 c -1.65243,0.0663 -4.13287,0.6893 -8.4375,2.0313 -13.76881,4.2925 -22.93178,9.5479 -27.28125,15.6562 -1.13303,1.5912 -2.69054,5.8048 -3.4375,9.375 -1.68683,8.0622 -4.88383,14.0655 -12.03125,22.4375 -6.2882,7.3656 -9.40625,12.769 -9.40625,16.375 0,2.648 4.11028,6.6154 6.875,6.625 0.88833,0.003 3.31337,0.49 5.375,1.0625 7.12236,1.978 8.41648,7.4696 9.6875,41.125 1.36375,36.1107 4.07771,45.2656 16.90625,56.8438 7.08274,6.3924 14.456,10.5356 21.21875,11.9375 14.19591,2.9427 24.41573,-3.8176 29.09375,-19.2188 2.74312,-9.0311 1.51724,-12.9399 -5.15625,-16.4687 -7.95085,-4.2044 -9.14563,-5.352 -12.125,-11.7188 -4.22472,-9.028 -6.06841,-19.1229 -6,-32.75 0.10215,-20.3427 3.50864,-28.6983 12.375,-30.3437 6.57652,-1.2206 11.55681,-9.9135 10.09375,-17.5938 -1.40649,-7.3834 -5.3806,-11.875 -10.5,-11.875 -3.71235,0 -8.25753,-4.1076 -9.625,-8.6875 -0.62555,-2.095 -1.41948,-9.4375 -1.75,-16.3125 -0.74198,-15.4332 -0.99509,-16.6717 -3.59375,-18.0625 -0.62262,-0.3332 -1.28979,-0.4773 -2.28125,-0.4375 z m 1427.56255,34.5938 c -2.7672,0.0411 -5.9277,0.1396 -9.5,0.25 -31.7227,0.9798 -56.8982,4.0879 -71.6563,8.8437 -19.6662,6.3373 -30.3242,16.2367 -34.625,32.1563 -2.0047,7.4206 -1.9383,24.205 0.125,31.3437 4.7986,16.6023 17.1633,32.447 30.0313,38.4688 6.5238,3.0527 7.4453,3.2141 19.9062,3.3437 11.1525,0.116 13.7924,0.473 18.0625,2.375 11.1988,4.9882 17.6727,12.0135 18.9688,20.6563 1.6305,10.8731 -8.9104,20.4622 -25.9063,23.5937 -8.7552,1.6132 -18.4288,0.0822 -29.0625,-4.5937 -4.4,-1.9349 -9.2769,-3.5246 -10.8437,-3.5313 -4.7162,-0.0202 -9.2542,2.8416 -16.125,10.125 -8.1772,8.6682 -8.3804,10.504 -1.7813,16.6563 8.1309,7.5803 16.9711,11.2585 33.25,13.8125 11.2911,1.7714 33.5742,1.0559 46.0938,-1.4688 21.9765,-4.4318 32.9977,-12.2773 39.7812,-28.375 2.3782,-5.6435 2.6146,-7.4658 2.5938,-18.75 -0.022,-11.8262 -0.1747,-12.8504 -3.0625,-19 -1.6789,-3.575 -5.0915,-9.0233 -7.5938,-12.0937 -8.5507,-10.4925 -8.6377,-11.7255 -1.4062,-20.25 9.6867,-11.4186 10.0368,-12.8764 10.0625,-39.9063 l 0.0312,-20.7812 2.7188,-2.2188 c 3.3231,-2.727 6.2031,-9.1449 7.8125,-17.4375 2.2411,-11.5488 1.4948,-13.507 -17.875,-13.2187 z m -143.5,1.5312 c -5.8779,0.2714 -14.8392,5.0619 -23.6875,13.0313 -3.9397,3.5484 -7.6755,6.2739 -8.3125,6.0625 -0.6372,-0.2116 -1.5127,-3.4792 -1.9375,-7.2813 -0.5376,-4.8113 -1.3681,-7.5241 -2.75,-8.9062 -1.9365,-1.9364 -2.1318,-1.9583 -8.2188,-0.2813 -7.7045,2.1226 -13.4036,3.5581 -16.9687,4.25 -3.6747,0.7131 -4.5604,2.7093 -6.4375,14.7188 -1.2867,8.2309 -1.6875,21.6784 -2.0625,67.5312 -0.2577,31.4875 -0.2372,57.25 0.0625,57.25 2.4777,0 22.8494,-4.4784 25.5937,-5.625 8.7934,-3.6742 9.7238,-7.1365 11,-41.375 1.367,-36.6702 2.7324,-40.8743 19.2188,-58.5625 5.3961,-5.7897 11.1952,-12.5274 12.875,-14.9687 7.2495,-10.537 10.091,-21.4785 6.375,-24.5625 -1.1568,-0.9601 -2.7908,-1.3718 -4.75,-1.2813 z m -983.4688,0.0938 c -5.8833,0 -13.91964,4.302 -23.4375,12.5 -7.50995,6.4684 -8.22469,6.846 -9.4375,5.1875 -0.72261,-0.9882 -1.3125,-4.1741 -1.3125,-7.0938 0,-3.9756 -0.5023,-5.8148 -2,-7.3125 -2.5164,-2.5164 -2.5065,-2.5221 -13.96875,0.5625 -5.24724,1.412 -10.88125,2.8877 -12.53125,3.2813 -2.71938,0.6488 -3.11262,1.2787 -4.21875,6.6875 -2.72557,13.3275 -3.4974,28.3888 -4,79.2187 -0.34037,34.424 -0.16403,53.25 0.46875,53.25 3.46505,0 25.89982,-5.2736 28.1875,-6.625 6.35014,-3.7512 7.68747,-10.2556 8.53125,-41.375 0.90272,-33.2926 2.94095,-39.8078 17.25,-55.25 14.77046,-15.9401 21.77765,-26.6587 22.875,-35 0.76264,-5.7971 -1.01865,-8.0312 -6.40625,-8.0312 z m 110.25,0.375 c -9.83415,-0.1291 -19.69267,3.6777 -32.84375,12.25 -13.15765,8.5766 -13.59243,8.4981 -14.71875,-2.3125 -0.88789,-8.522 -3.00971,-10.4339 -10.875,-9.8125 -7.97931,0.6304 -16.9197,4.5402 -19.625,8.5625 -5.19164,7.7187 -6.7937,29.4364 -6.0625,82.625 0.54487,39.6356 1.19539,47.6668 4.21875,52.2812 1.89002,2.8845 2.28361,2.8729 14.0625,-0.1875 5.29208,-1.375 10.96779,-2.5 12.59375,-2.5 9.79448,0 11.98758,-7.6717 14.8125,-51.5 2.54246,-39.4455 3.51926,-44.2969 9.5625,-47.5312 3.56094,-1.9058 19.14334,-1.9884 22.625,-0.125 6.25387,3.3468 7.21118,8.6625 9.8125,54.1562 2.03867,35.6536 3.33157,44.769 6.84375,48.2813 l 2.0625,2.0625 8.0625,-2.2188 c 4.43454,-1.2153 10.9545,-2.4814 14.5,-2.8125 4.74973,-0.4435 6.96911,-1.1556 8.4375,-2.7187 10.73117,-11.4229 5.91217,-86.4865 -7.40625,-115.3125 -5.08349,-11.0026 -14.32639,-18.708 -26.125,-21.7813 -3.39995,-0.8856 -6.65945,-1.3632 -9.9375,-1.4062 z m -548.59375,0.0937 c -3.44761,0.0019 -6.87101,0.4474 -10.3125,1.3438 -7.14973,1.8623 -10.67786,3.9257 -20.875,12.1562 -4.31175,3.4801 -8.4081,6.3125 -9.125,6.3125 -1.80418,0 -2.53125,-2.3172 -2.53125,-8.1562 0,-2.7412 -0.49948,-5.8897 -1.09375,-7 -1.74755,-3.2653 -6.81532,-4.8097 -13.5,-4.125 -15.6176,1.5994 -17.44297,5.6284 -19.53125,43.125 -0.63273,11.3611 -1.18605,37.3062 -1.25,57.6562 -0.1032,32.8367 0.0547,37.422 1.5625,40.75 2.05054,4.526 2.62181,4.5717 15.40625,1.25 5.29208,-1.375 11.20587,-2.5 13.125,-2.5 4.20446,0 8.62491,-4.1883 9.75,-9.2187 0.40418,-1.8071 1.14496,-5.0813 1.625,-7.2813 0.48003,-2.2 1.77132,-16.825 2.875,-32.5 1.10368,-15.675 2.49889,-31.7254 3.125,-35.6562 2.13231,-13.3875 7.27871,-18.6531 18.3125,-18.7813 7.8008,-0.0906 11.84749,2.5679 15.25,10 4.19841,9.1705 5.30066,18.0312 6.375,51.9375 1.10901,35.0003 1.84273,40.72 5.65625,43.2188 2.14992,1.4086 3.43264,1.4584 10,0.4375 4.14563,-0.6446 9.47205,-2.0134 11.84375,-3.0625 8.64775,-3.8253 9.61375,-9.5254 9.625,-57.0313 0.00987,-41.711 -0.74889,-50.5097 -5.28125,-59.875 -2.41823,-4.9968 -4.31544,-7.2701 -9,-10.7187 -11.21488,-8.256 -21.68843,-12.287 -32.03125,-12.2813 z m 264.03125,1.3438 c -9.67109,0.0756 -11.99251,0.5542 -18.5,2.75 -19.07861,6.4377 -33.65652,20.3681 -42.15625,40.3437 -13.56694,31.8843 -5.86957,64.2188 20.3125,85.2813 12.86914,10.3526 23.39237,15.051 37.96875,17 17.61248,2.3548 36.97925,-1.1889 54.625,-10 9.33156,-4.6597 13.31624,-8.9188 12.4375,-13.3125 -1.4152,-7.0761 -14.8579,-24.5938 -18.875,-24.5938 -0.92978,0 -3.3734,1.5028 -5.4375,3.3438 -4.5745,4.0801 -10.74718,6.2329 -22.125,7.75 -9.41655,1.2556 -25.98992,0.7112 -30.40625,-1 -8.25262,-3.1977 -2.77621,-8.3205 39.78125,-37.3438 23.93065,-16.3202 32.0761,-22.9167 36.3125,-29.3125 7.75956,-11.7148 1.59738,-20.7622 -22.3125,-32.7187 -13.3748,-6.6883 -20.17108,-8.1814 -37,-8.1875 -1.7151,-0.0007 -3.24342,-0.0109 -4.625,0 z m 970.1563,0.0312 c -10.2683,0.0516 -12.0157,0.493 -19.6875,3.1563 -12.921,4.4854 -22.25,10.3579 -30.7813,19.4062 -15.0186,15.9288 -20.7699,34.2911 -18.4687,58.9375 1.7901,19.1721 7.3055,31.4637 19.0312,42.3125 10.9351,10.1174 23.5351,16.5994 37.375,19.25 4.5785,0.8768 10.993,1.1708 18.5,0.8438 47.6523,-2.0759 79.3198,-33.239 76.6875,-75.4375 -1.9448,-31.1774 -23.3,-56.9714 -54.8437,-66.2813 -6.1384,-1.8117 -9.9092,-2.1679 -22.8438,-2.1875 -1.857,-0.0028 -3.5019,-0.0074 -4.9687,0 z m -534.37505,2.0313 c -8.58928,0.0053 -17.31414,0.6007 -22.40625,1.75 -14.61914,3.2995 -26.13043,10.4291 -34.46875,21.3437 -11.33237,14.8338 -20.74332,40.8324 -19.40625,53.625 1.36051,13.0166 11.13967,29.9484 26.125,45.25 8.58833,8.7696 11.19992,10.7831 18.5,14.2813 7.91259,3.7916 16.64026,6.419 25,7.5 10.37003,1.3407 27.82178,-1.3745 43.5625,-6.75 13.27695,-4.5342 16.61486,-6.0449 20.3125,-9.1563 5.18777,-4.3652 3.84521,-10.2659 -4.8125,-21.2187 -6.84641,-8.6613 -12.31972,-10.1649 -21.09375,-5.7188 -7.96588,4.0366 -17.16084,5.8185 -30.46875,5.875 -12.62657,0.0536 -18.83356,-1.4594 -20.15625,-4.9062 -1.50077,-3.911 16.62571,-18.2379 56.34375,-44.5938 16.0495,-10.6501 29.9518,-19.8566 30.9063,-20.4375 1.513,-0.9208 0.5879,-2.1664 -7.3438,-9.8125 -17.4524,-16.8242 -25.30451,-21.922 -38.9375,-25.3125 -4.59697,-1.1433 -13.06697,-1.7241 -21.65625,-1.7187 z m 1.5625,28.25 c 5.8145,0 15.78125,3.9843 15.78125,6.3125 0,2.9443 -24.92956,21.7893 -36.84375,27.8437 -8.0862,4.1091 -11.27316,4.6415 -13.4375,2.25 -8.77878,-9.7005 16.52495,-36.4062 34.5,-36.4062 z m 808.34375,0 c 9.6082,0 17.547,5.5921 22.5938,15.8437 7.408,15.0477 2.1921,30.4849 -12.9063,38.1875 -8.4726,4.3224 -17.0357,3.0104 -23.9375,-3.6875 -5.8531,-5.6802 -8.585,-12.0473 -9.125,-21.375 -0.5425,-9.3713 1.2557,-15.0882 6.625,-21.0312 4.8788,-5.4003 10.2201,-7.9375 16.75,-7.9375 z M 506.75,1275.0313 c 2.08969,-0.0696 3.89359,0.2406 5.3125,1 2.92838,1.5672 2.5359,6.9486 -0.8125,11.0937 -6.25166,7.7391 -25.7203,23.3174 -33.75,27 -7.25244,3.3263 -9.50286,1.9759 -10.28125,-6.125 -0.38544,-4.0113 0.01285,-5.6992 2.09375,-9.25 6.95016,-11.8596 26.15316,-23.3432 37.4375,-23.7187 z M 1472.625,1282 c 10.2627,0 16.9074,2.6948 24.75,10.0313 12.8719,12.041 16.6632,27.7715 10.2188,42.3437 -4.7492,10.7384 -12.8376,16.9439 -24.25,18.5938 -3.7597,0.5436 -7.0688,0.9601 -7.3438,0.9062 -0.275,-0.0538 -2.7244,-0.4834 -5.4375,-0.9375 -16.9916,-2.844 -33.8557,-20.9017 -33.9375,-36.3125 -0.0431,-8.1315 2.4948,-13.5491 10.3125,-21.9062 8.5511,-9.1412 15.7864,-12.7188 25.6875,-12.7188 z m -216.1562,51.5313 c -1.2228,0.0332 -2.3856,0.3826 -3.6563,1.0312 -4.4333,2.2628 -17.6628,14.1251 -19.9687,17.9063 -1.0143,1.6632 -1.8417,4.0061 -1.8438,5.1875 -0.0077,4.4543 14.9856,20.8394 22.7813,24.9062 3.512,1.8322 3.3041,1.8734 7.8437,-1.1562 9.7521,-6.5086 20.3572,-19.2773 20.375,-24.5 0.0102,-3.0044 -1.1016,-4.4925 -9.5312,-12.5938 -8.2351,-7.9144 -12.3319,-10.8811 -16,-10.7812 z"
           style="fill:#0b5d84;fill-opacity:1" />
        <path
           id="path4824"
           d="m 908.5,4.6875 c -36.8161,-0.0086817 -62.69975,2.1045333 -96.5,7.90625 -24.37149,4.183297 -57.72877,12.156788 -56.28125,13.4375 0.43394,0.38393 13.38125,9.011621 28.78125,19.1875 51.38525,33.953897 98.13927,68.76503 140,104.25 52.02583,44.10185 108.7449,102.1137 139.5,142.6875 l 3.5,4.625 0.6563,-16.625 c 1.1168,-27.71627 3.0301,-251.377209 2.1562,-252.25 -1.062,-1.060564 -28.478,-8.160065 -43.8125,-11.34375 C 985.0046,7.9473802 952.62922,4.697906 908.5,4.6875 z m 406.5938,169.34375 6.0312,11.46875 c 6.4303,12.24272 10.9594,24.29566 13,34.625 1.7853,9.03622 1.4847,36.0025 -0.5625,49.375 -9.4951,62.02133 -40.5108,146.2108 -88,239 -18.8164,36.76534 -34.7675,64.30723 -48.4062,83.5 l -4.625,6.5 0.2812,32 c 0.2973,33.72149 -0.6377,48.97164 -4.7812,77.5 -15.9646,109.91456 -69.1169,222.56155 -156.4063,331.5 -24.2614,30.2787 -42.5508,50.5926 -74.90625,83.25 -12.66928,12.7875 -22.62098,23.2513 -22.125,23.25 3.95182,-0.0107 30.49704,-2.3001 41.40625,-3.5625 80.5052,-9.3165 159.3193,-36.4199 229,-78.7812 39.8252,-24.2112 72.8568,-50.3218 107.5625,-85.06255 46.4058,-46.45265 78.8234,-91.37524 107.6563,-149.09375 106.6392,-213.47372 67.875,-473.48949 -96.3438,-646.21875 l -8.7812,-9.25 z M 473.3125,208.375 c -1.838,0.00605 -3.2524,1.46442 -7.96875,7.46875 C 435.25052,254.15494 417.15563,282.65576 397,323.5 c -14.21637,28.80865 -21.1624,45.64522 -30.5625,74.09375 -19.95582,60.39438 -29.60348,125.58184 -28.125,189.90625 1.94243,84.50918 20.41756,161.52968 56.625,236.03125 30.04839,61.82851 64.82477,110.4065 113.1875,158.09375 36.34037,35.8328 73.45374,64.2677 115.84375,88.75 6.31068,3.6447 11.80995,6.625 12.21875,6.625 1.0549,0 24.9052,-21.2489 47.8125,-42.5937 C 763.00497,960.7901 825.81149,885.91791 865.9375,817.5 888.39783,779.20346 907.06367,735.06314 916,699.09375 950.39493,560.65151 894.02553,440.32119 747,338.3125 691.67199,299.92505 620.81273,263.55037 539.84375,231.96875 c -21.38557,-8.34136 -62.02549,-22.87623 -65.6875,-23.5 -0.28986,-0.04937 -0.58118,-0.09461 -0.84375,-0.09375 z"
           style="fill:url(#linearGradient3541);fill-opacity:1" />
      </g>
    </g>
  </g>
</svg>
