<?xml version="1.0" encoding="UTF-8" standalone="no"?>
<!-- Created with Inkscape (http://www.inkscape.org/) -->
<svg
   xmlns:dc="http://purl.org/dc/elements/1.1/"
   xmlns:cc="http://creativecommons.org/ns#"
   xmlns:rdf="http://www.w3.org/1999/02/22-rdf-syntax-ns#"
   xmlns:svg="http://www.w3.org/2000/svg"
   xmlns="http://www.w3.org/2000/svg"
   xmlns:xlink="http://www.w3.org/1999/xlink"
   xmlns:sodipodi="http://sodipodi.sourceforge.net/DTD/sodipodi-0.dtd"
   xmlns:inkscape="http://www.inkscape.org/namespaces/inkscape"
   inkscape:export-ydpi="90.000000"
   inkscape:export-xdpi="90.000000"
   inkscape:export-filename="/home/jimmac/Desktop/wi-fi.png"
   width="48px"
   height="48px"
   id="svg11300"
   sodipodi:version="0.32"
   inkscape:version="0.46"
   sodipodi:docbase="/home/jimmac/src/cvs/tango-icon-theme/scalable/actions"
   sodipodi:docname="contact.svg"
   inkscape:output_extension="org.inkscape.output.svg.inkscape">
  <defs
     id="defs3">
    <inkscape:perspective
       sodipodi:type="inkscape:persp3d"
       inkscape:vp_x="0 : 24 : 1"
       inkscape:vp_y="0 : 1000 : 0"
       inkscape:vp_z="48 : 24 : 1"
       inkscape:persp3d-origin="24 : 16 : 1"
       id="perspective89" />
    <radialGradient
       inkscape:collect="always"
       xlink:href="#linearGradient5060"
       id="radialGradient5031"
       gradientUnits="userSpaceOnUse"
       gradientTransform="matrix(-2.774389,0,0,1.969706,112.7623,-872.8854)"
       cx="605.71429"
       cy="486.64789"
       fx="605.71429"
       fy="486.64789"
       r="117.14286" />
    <linearGradient
       inkscape:collect="always"
       id="linearGradient5060">
      <stop
         style="stop-color:black;stop-opacity:1;"
         offset="0"
         id="stop5062" />
      <stop
         style="stop-color:black;stop-opacity:0;"
         offset="1"
         id="stop5064" />
    </linearGradient>
    <radialGradient
       inkscape:collect="always"
       xlink:href="#linearGradient5060"
       id="radialGradient5029"
       gradientUnits="userSpaceOnUse"
       gradientTransform="matrix(2.774389,0,0,1.969706,-1891.633,-872.8854)"
       cx="605.71429"
       cy="486.64789"
       fx="605.71429"
       fy="486.64789"
       r="117.14286" />
    <linearGradient
       id="linearGradient5048">
      <stop
         style="stop-color:black;stop-opacity:0;"
         offset="0"
         id="stop5050" />
      <stop
         id="stop5056"
         offset="0.5"
         style="stop-color:black;stop-opacity:1;" />
      <stop
         style="stop-color:black;stop-opacity:0;"
         offset="1"
         id="stop5052" />
    </linearGradient>
    <linearGradient
       inkscape:collect="always"
       xlink:href="#linearGradient5048"
       id="linearGradient5027"
       gradientUnits="userSpaceOnUse"
       gradientTransform="matrix(2.774389,0,0,1.969706,-1892.179,-872.8854)"
       x1="302.85715"
       y1="366.64789"
       x2="302.85715"
       y2="609.50507" />
    <linearGradient
       id="linearGradient12512">
      <stop
         style="stop-color:#ffffff;stop-opacity:1.0000000;"
         offset="0.0000000"
         id="stop12513" />
      <stop
         style="stop-color:#fff520;stop-opacity:0.89108908;"
         offset="0.50000000"
         id="stop12517" />
      <stop
         style="stop-color:#fff300;stop-opacity:0.0000000;"
         offset="1.0000000"
         id="stop12514" />
    </linearGradient>
    <linearGradient
       inkscape:collect="always"
       id="linearGradient6962">
      <stop
         style="stop-color:#000000;stop-opacity:1;"
         offset="0"
         id="stop6964" />
      <stop
         style="stop-color:#000000;stop-opacity:0;"
         offset="1"
         id="stop6966" />
    </linearGradient>
    <linearGradient
       id="linearGradient4344">
      <stop
         style="stop-color:#727e0a;stop-opacity:1;"
         offset="0"
         id="stop4346" />
      <stop
         style="stop-color:#5b6508;stop-opacity:1.0000000;"
         offset="1.0000000"
         id="stop4348" />
    </linearGradient>
    <linearGradient
       inkscape:collect="always"
       id="linearGradient3816">
      <stop
         style="stop-color:#000000;stop-opacity:1;"
         offset="0"
         id="stop3818" />
      <stop
         style="stop-color:#000000;stop-opacity:0;"
         offset="1"
         id="stop3820" />
    </linearGradient>
    <linearGradient
       id="linearGradient4338">
      <stop
         id="stop4340"
         offset="0.0000000"
         style="stop-color:#e9b15e;stop-opacity:1.0000000;" />
      <stop
         id="stop4342"
         offset="1.0000000"
         style="stop-color:#966416;stop-opacity:1.0000000;" />
    </linearGradient>
    <linearGradient
       id="linearGradient3824">
      <stop
         style="stop-color:#ffffff;stop-opacity:1;"
         offset="0"
         id="stop3826" />
      <stop
         style="stop-color:#c9c9c9;stop-opacity:1.0000000;"
         offset="1.0000000"
         id="stop3828" />
    </linearGradient>
    <linearGradient
       inkscape:collect="always"
       id="linearGradient4356">
      <stop
         style="stop-color:#000000;stop-opacity:1;"
         offset="0"
         id="stop4358" />
      <stop
         style="stop-color:#000000;stop-opacity:0;"
         offset="1"
         id="stop4360" />
    </linearGradient>
    <linearGradient
       id="linearGradient6732">
      <stop
         style="stop-color:#ffffff;stop-opacity:1;"
         offset="0"
         id="stop6734" />
      <stop
         style="stop-color:#dddddd;stop-opacity:1;"
         offset="1"
         id="stop6736" />
    </linearGradient>
    <linearGradient
       inkscape:collect="always"
       xlink:href="#linearGradient6732"
       id="linearGradient6738"
       x1="16.25"
       y1="12.25"
       x2="31.5"
       y2="36.625"
       gradientUnits="userSpaceOnUse"
       gradientTransform="matrix(1.0446793,0,0,0.9286564,0.877016,4.2824018)" />
    <radialGradient
       inkscape:collect="always"
       xlink:href="#linearGradient4344"
       id="radialGradient6948"
       gradientUnits="userSpaceOnUse"
       gradientTransform="matrix(1,0,0,0.681917,19.76231,14.9041)"
       cx="16.214741"
       cy="19.836468"
       fx="16.214741"
       fy="19.836468"
       r="13.565360" />
    <radialGradient
       inkscape:collect="always"
       xlink:href="#linearGradient3816"
       id="radialGradient6950"
       gradientUnits="userSpaceOnUse"
       cx="31.112698"
       cy="19.008621"
       fx="31.112698"
       fy="19.008621"
       r="8.6620579" />
    <radialGradient
       inkscape:collect="always"
       xlink:href="#linearGradient4338"
       id="radialGradient6952"
       gradientUnits="userSpaceOnUse"
       gradientTransform="matrix(0.787998,0,0,0.787998,6.221198,3.617627)"
       cx="29.344931"
       cy="17.064077"
       fx="29.344931"
       fy="17.064077"
       r="9.1620579" />
    <linearGradient
       inkscape:collect="always"
       xlink:href="#linearGradient3824"
       id="linearGradient6954"
       gradientUnits="userSpaceOnUse"
       gradientTransform="translate(7.344424,-0.329669)"
       x1="30.935921"
       y1="29.553486"
       x2="30.935921"
       y2="35.803486" />
    <linearGradient
       inkscape:collect="always"
       xlink:href="#linearGradient4356"
       id="linearGradient6956"
       gradientUnits="userSpaceOnUse"
       gradientTransform="matrix(0.983375,0.181588,-0.181588,0.983375,12.69019,-3.154589)"
       x1="20.661695"
       y1="35.817974"
       x2="22.626925"
       y2="36.217758" />
    <linearGradient
       inkscape:collect="always"
       xlink:href="#linearGradient4356"
       id="linearGradient6958"
       gradientUnits="userSpaceOnUse"
       gradientTransform="matrix(-0.977685,0.210075,0.210075,0.977685,61.56807,-4.448329)"
       x1="22.686766"
       y1="36.390400"
       x2="21.408455"
       y2="35.739632" />
    <radialGradient
       inkscape:collect="always"
       xlink:href="#linearGradient6962"
       id="radialGradient6968"
       cx="25.75"
       cy="38.125"
       fx="25.75"
       fy="38.125"
       r="18.375"
       gradientTransform="matrix(1.000000,0.000000,0.000000,0.265306,-2.302846e-16,28.01020)"
       gradientUnits="userSpaceOnUse" />
    <linearGradient
       inkscape:collect="always"
       xlink:href="#linearGradient6732"
       id="linearGradient3251"
       gradientUnits="userSpaceOnUse"
       gradientTransform="matrix(1.0446793,0,0,0.9286564,-1.122984,2.2824018)"
       x1="16.25"
       y1="12.25"
       x2="31.5"
       y2="36.625" />
    <linearGradient
       inkscape:collect="always"
       xlink:href="#linearGradient6732"
       id="linearGradient3255"
       gradientUnits="userSpaceOnUse"
       gradientTransform="matrix(1.0446793,0,0,0.9286564,1.7537648,-3.0074615)"
       x1="16.25"
       y1="12.25"
       x2="31.5"
       y2="36.625" />
    <linearGradient
       inkscape:collect="always"
       xlink:href="#linearGradient6732"
       id="linearGradient3259"
       gradientUnits="userSpaceOnUse"
       gradientTransform="matrix(1.0446793,0,0,0.9286564,-3.122984,0.2824018)"
       x1="16.25"
       y1="12.25"
       x2="31.5"
       y2="36.625" />
    <radialGradient
       inkscape:collect="always"
       xlink:href="#linearGradient4344"
       id="radialGradient3329"
       gradientUnits="userSpaceOnUse"
       gradientTransform="matrix(1,0,0,0.681917,19.76231,14.9041)"
       cx="16.214741"
       cy="19.836468"
       fx="16.214741"
       fy="19.836468"
       r="13.565360" />
    <radialGradient
       inkscape:collect="always"
       xlink:href="#linearGradient3816"
       id="radialGradient3331"
       gradientUnits="userSpaceOnUse"
       cx="31.112698"
       cy="19.008621"
       fx="31.112698"
       fy="19.008621"
       r="8.6620579" />
    <radialGradient
       inkscape:collect="always"
       xlink:href="#linearGradient4338"
       id="radialGradient3333"
       gradientUnits="userSpaceOnUse"
       gradientTransform="matrix(0.787998,0,0,0.787998,6.221198,3.617627)"
       cx="29.344931"
       cy="17.064077"
       fx="29.344931"
       fy="17.064077"
       r="9.1620579" />
    <linearGradient
       inkscape:collect="always"
       xlink:href="#linearGradient3824"
       id="linearGradient3335"
       gradientUnits="userSpaceOnUse"
       gradientTransform="translate(7.344424,-0.329669)"
       x1="30.935921"
       y1="29.553486"
       x2="30.935921"
       y2="35.803486" />
    <linearGradient
       inkscape:collect="always"
       xlink:href="#linearGradient4356"
       id="linearGradient3337"
       gradientUnits="userSpaceOnUse"
       gradientTransform="matrix(0.983375,0.181588,-0.181588,0.983375,12.69019,-3.154589)"
       x1="20.661695"
       y1="35.817974"
       x2="22.626925"
       y2="36.217758" />
    <linearGradient
       inkscape:collect="always"
       xlink:href="#linearGradient4356"
       id="linearGradient3339"
       gradientUnits="userSpaceOnUse"
       gradientTransform="matrix(-0.977685,0.210075,0.210075,0.977685,61.56807,-4.448329)"
       x1="22.686766"
       y1="36.390400"
       x2="21.408455"
       y2="35.739632" />
  </defs>
  <sodipodi:namedview
     stroke="#ef2929"
     fill="#eeeeec"
     id="base"
     pagecolor="#ffffff"
     bordercolor="#666666"
     borderopacity="0.25490196"
     inkscape:pageopacity="0.0"
     inkscape:pageshadow="2"
     inkscape:zoom="8"
     inkscape:cx="24.0046"
     inkscape:cy="23.721646"
     inkscape:current-layer="layer1"
     showgrid="true"
     inkscape:grid-bbox="true"
     inkscape:document-units="px"
     inkscape:showpageshadow="false"
     inkscape:window-width="1280"
     inkscape:window-height="749"
     inkscape:window-x="0"
     inkscape:window-y="19"
     gridtolerance="10">
    <inkscape:grid
       type="xygrid"
       id="grid2465"
       visible="true"
       enabled="true"
       originx="2.7755576e-17px"
       originy="2.7755576e-17px" />
  </sodipodi:namedview>
  <metadata
     id="metadata4">
    <rdf:RDF>
      <cc:Work
         rdf:about="">
        <dc:format>image/svg+xml</dc:format>
        <dc:type
           rdf:resource="http://purl.org/dc/dcmitype/StillImage" />
        <dc:creator>
          <cc:Agent>
            <dc:title>Jakub Steiner</dc:title>
          </cc:Agent>
        </dc:creator>
        <dc:source>http://jimmac.musichall.cz</dc:source>
        <cc:license
           rdf:resource="http://creativecommons.org/licenses/publicdomain/" />
        <dc:title>New Contact</dc:title>
        <dc:subject>
          <rdf:Bag>
            <rdf:li>address</rdf:li>
            <rdf:li>contact</rdf:li>
            <rdf:li>e-mail</rdf:li>
            <rdf:li>person</rdf:li>
            <rdf:li>information</rdf:li>
            <rdf:li>card</rdf:li>
          </rdf:Bag>
        </dc:subject>
      </cc:Work>
      <cc:License
         rdf:about="http://creativecommons.org/licenses/publicdomain/">
        <cc:permits
           rdf:resource="http://creativecommons.org/ns#Reproduction" />
        <cc:permits
           rdf:resource="http://creativecommons.org/ns#Distribution" />
        <cc:permits
           rdf:resource="http://creativecommons.org/ns#DerivativeWorks" />
      </cc:License>
    </rdf:RDF>
  </metadata>
  <g
     id="layer1"
     inkscape:label="Layer 1"
     inkscape:groupmode="layer">
    <rect
       ry="2.5538051"
       rx="2.5932436"
       y="9.5689659"
       x="0.5"
       height="26.93104"
       width="41.951141"
       id="rect3257"
       style="opacity:1;fill:url(#linearGradient3259);fill-opacity:1;fill-rule:evenodd;stroke:#939393;stroke-width:1;stroke-linecap:butt;stroke-linejoin:miter;marker:none;marker-start:none;marker-mid:none;marker-end:none;stroke-miterlimit:4;stroke-dasharray:none;stroke-dashoffset:0;stroke-opacity:1;visibility:visible;display:inline;overflow:visible" />
    <g
       style="display:inline"
       id="g5022"
       transform="matrix(2.495993e-2,0,0,3.8365286e-2,46.27222,32.031528)">
      <rect
         y="-150.69685"
         x="-1559.2523"
         height="478.35718"
         width="1339.6335"
         id="rect4173"
         style="opacity:0.40206185;fill:url(#linearGradient5027);fill-opacity:1;fill-rule:nonzero;stroke:none;stroke-width:1;stroke-linecap:round;stroke-linejoin:miter;marker:none;marker-start:none;marker-mid:none;marker-end:none;stroke-miterlimit:4;stroke-dasharray:none;stroke-dashoffset:0;stroke-opacity:1;visibility:visible;display:inline;overflow:visible" />
      <path
         sodipodi:nodetypes="cccc"
         id="path5058"
         d="M -219.61876,-150.68038 C -219.61876,-150.68038 -219.61876,327.65041 -219.61876,327.65041 C -76.744594,328.55086 125.78146,220.48075 125.78138,88.454235 C 125.78138,-43.572302 -33.655436,-150.68036 -219.61876,-150.68038 z"
         style="opacity:0.40206185;fill:url(#radialGradient5029);fill-opacity:1;fill-rule:nonzero;stroke:none;stroke-width:1;stroke-linecap:round;stroke-linejoin:miter;marker:none;marker-start:none;marker-mid:none;marker-end:none;stroke-miterlimit:4;stroke-dasharray:none;stroke-dashoffset:0;stroke-opacity:1;visibility:visible;display:inline;overflow:visible" />
      <path
         style="opacity:0.40206185;fill:url(#radialGradient5031);fill-opacity:1;fill-rule:nonzero;stroke:none;stroke-width:1;stroke-linecap:round;stroke-linejoin:miter;marker:none;marker-start:none;marker-mid:none;marker-end:none;stroke-miterlimit:4;stroke-dasharray:none;stroke-dashoffset:0;stroke-opacity:1;visibility:visible;display:inline;overflow:visible"
         d="M -1559.2523,-150.68038 C -1559.2523,-150.68038 -1559.2523,327.65041 -1559.2523,327.65041 C -1702.1265,328.55086 -1904.6525,220.48075 -1904.6525,88.454235 C -1904.6525,-43.572302 -1745.2157,-150.68036 -1559.2523,-150.68038 z"
         id="path5018"
         sodipodi:nodetypes="cccc" />
    </g>
    <rect
       style="opacity:1;fill:url(#linearGradient3255);fill-opacity:1;fill-rule:evenodd;stroke:#939393;stroke-width:1;stroke-linecap:butt;stroke-linejoin:miter;marker:none;marker-start:none;marker-mid:none;marker-end:none;stroke-miterlimit:4;stroke-dasharray:none;stroke-dashoffset:0;stroke-opacity:1;visibility:visible;display:inline;overflow:visible"
       id="rect3253"
       width="41.951141"
       height="26.93104"
       x="5.3767486"
       y="6.2791028"
       rx="2.5932436"
       ry="2.5538051" />
    <g
       transform="matrix(0.4348,0,0,0.4348,-0.4826062,4.8329907)"
       id="g3303">
      <path
         style="opacity:1;fill:url(#radialGradient3329);fill-opacity:1;fill-rule:evenodd;stroke:#404604;stroke-width:2.29990602px;stroke-linecap:round;stroke-linejoin:round;marker:none;marker-start:none;marker-mid:none;marker-end:none;stroke-miterlimit:4;stroke-dasharray:none;stroke-dashoffset:0;stroke-opacity:1;visibility:visible;display:inline;overflow:visible"
         d="M 32.623488,41.30637 L 43.23009,41.30637 C 46.235294,41.30637 49.210574,40.204438 50.301157,37.063729 C 51.336796,34.081253 50.477934,28.401671 43.76042,23.805477 L 31.209274,23.805477 C 24.49176,28.048117 23.652283,33.850308 25.198867,37.240505 C 26.774462,40.694295 29.441507,41.30637 32.623488,41.30637 z"
         id="path3305"
         sodipodi:nodetypes="cczcczc" />
      <path
         sodipodi:nodetypes="cccc"
         id="path3307"
         d="M 37.694681,26.457128 C 37.694681,26.457128 35.543358,28.117463 35.72869,30.117661 C 33.687464,28.316867 33.628817,24.866137 33.628817,24.866137 L 37.694681,26.457128 z"
         style="opacity:1;fill:#9db029;fill-opacity:1;fill-rule:evenodd;stroke:none;stroke-width:1px;stroke-linecap:round;stroke-linejoin:round;marker:none;marker-start:none;marker-mid:none;marker-end:none;stroke-miterlimit:4;stroke-dasharray:none;stroke-dashoffset:0;stroke-opacity:1;visibility:visible;display:inline;overflow:visible" />
      <path
         sodipodi:nodetypes="cczcczc"
         id="path3309"
         d="M 33.2112,39.482542 L 42.508294,39.482542 C 44.887139,39.482542 47.242296,38.610281 48.105574,36.124174 C 48.925361,33.76332 48.020214,29.267504 42.702797,25.629272 L 32.317037,25.629272 C 26.999621,28.98764 26.109819,33.58051 27.334055,36.264105 C 28.581258,38.99804 30.692423,39.482542 33.2112,39.482542 z"
         style="opacity:0.21518986;fill:none;fill-opacity:1;fill-rule:evenodd;stroke:#ffffff;stroke-width:2.29990482px;stroke-linecap:round;stroke-linejoin:round;marker:none;marker-start:none;marker-mid:none;marker-end:none;stroke-miterlimit:4;stroke-dasharray:none;stroke-dashoffset:0;stroke-opacity:1;visibility:visible;display:inline;overflow:visible" />
      <path
         style="opacity:1;fill:#9db029;fill-opacity:1;fill-rule:evenodd;stroke:none;stroke-width:1px;stroke-linecap:round;stroke-linejoin:round;marker:none;marker-start:none;marker-mid:none;marker-end:none;stroke-miterlimit:4;stroke-dasharray:none;stroke-dashoffset:0;stroke-opacity:1;visibility:visible;display:inline;overflow:visible"
         d="M 38.673109,26.457128 C 38.673109,26.457128 40.824432,28.117463 40.6391,30.117661 C 42.680326,28.316867 42.738973,24.866137 42.738973,24.866137 L 38.673109,26.457128 z"
         id="path3311"
         sodipodi:nodetypes="cccc" />
      <path
         d="M 39.774755,19.008621 A 8.6620579,8.6620579 0 1 1 22.45064,19.008621 A 8.6620579,8.6620579 0 1 1 39.774755,19.008621 z"
         sodipodi:ry="8.6620579"
         sodipodi:rx="8.6620579"
         sodipodi:cy="19.008621"
         sodipodi:cx="31.112698"
         id="path3313"
         style="opacity:1;fill:url(#radialGradient3331);fill-opacity:1;fill-rule:evenodd;stroke:none;stroke-width:1px;stroke-linecap:round;stroke-linejoin:round;marker:none;marker-start:none;marker-mid:none;marker-end:none;stroke-miterlimit:4;stroke-dasharray:none;stroke-dashoffset:0;stroke-opacity:1;visibility:visible;display:inline;overflow:visible"
         sodipodi:type="arc"
         transform="translate(6.512314,3.170331)" />
      <path
         sodipodi:type="arc"
         style="opacity:1;fill:url(#radialGradient3333);fill-opacity:1;fill-rule:evenodd;stroke:#6f4709;stroke-width:2.29990602px;stroke-linecap:round;stroke-linejoin:round;marker:none;marker-start:none;marker-mid:none;marker-end:none;stroke-miterlimit:4;stroke-dasharray:none;stroke-dashoffset:0;stroke-opacity:1;visibility:visible;display:inline;overflow:visible"
         id="path3315"
         sodipodi:cx="31.112698"
         sodipodi:cy="19.008621"
         sodipodi:rx="8.6620579"
         sodipodi:ry="8.6620579"
         d="M 39.774755,19.008621 A 8.6620579,8.6620579 0 1 1 22.45064,19.008621 A 8.6620579,8.6620579 0 1 1 39.774755,19.008621 z"
         transform="translate(6.637314,-0.329669)" />
      <path
         d="M 39.774755,19.008621 A 8.6620579,8.6620579 0 1 1 22.45064,19.008621 A 8.6620579,8.6620579 0 1 1 39.774755,19.008621 z"
         sodipodi:ry="8.6620579"
         sodipodi:rx="8.6620579"
         sodipodi:cy="19.008621"
         sodipodi:cx="31.112698"
         id="path3317"
         style="opacity:0.12658231;fill:none;fill-opacity:1;fill-rule:evenodd;stroke:#ffffff;stroke-width:3.07730651px;stroke-linecap:round;stroke-linejoin:round;marker:none;marker-start:none;marker-mid:none;marker-end:none;stroke-miterlimit:4;stroke-dasharray:none;stroke-dashoffset:0;stroke-opacity:1;visibility:visible;display:inline;overflow:visible"
         sodipodi:type="arc"
         transform="matrix(0.747377,0,0,0.747377,14.49712,4.47236)" />
      <path
         style="opacity:1;fill:url(#linearGradient3335);fill-opacity:1;fill-rule:evenodd;stroke:none;stroke-width:1px;stroke-linecap:round;stroke-linejoin:round;marker:none;marker-start:none;marker-mid:none;marker-end:none;stroke-miterlimit:4;stroke-dasharray:none;stroke-dashoffset:0;stroke-opacity:1;visibility:visible;display:inline;overflow:visible"
         d="M 42.346208,33.704972 L 46.588848,33.704972 L 44.113975,31.406875 L 43.583645,32.113982 L 43.053314,31.583652 L 42.346208,33.704972 z"
         id="path3319" />
      <path
         style="opacity:0.22784807;fill:url(#linearGradient3337);fill-opacity:1;fill-rule:evenodd;stroke:none;stroke-width:1px;stroke-linecap:round;stroke-linejoin:round;marker:none;marker-start:none;marker-mid:none;marker-end:none;stroke-miterlimit:4;stroke-dasharray:none;stroke-dashoffset:0;stroke-opacity:1;visibility:visible;display:inline;overflow:visible"
         d="M 28.310268,40.272078 C 27.062661,39.727109 26.504274,38.413801 26.504274,38.413801 C 27.345555,34.344665 30.224199,31.367585 30.224199,31.367585 C 30.224199,31.367585 27.944878,37.779099 28.310268,40.272078 z"
         id="path3321"
         sodipodi:nodetypes="cccc" />
      <path
         sodipodi:nodetypes="cccc"
         id="path3323"
         d="M 47.215975,39.413727 C 48.447226,38.832749 49.020355,37.411406 49.020355,37.411406 C 48.061235,33.368423 45.044206,30.568585 45.044206,30.568585 C 45.044206,30.568585 47.508799,36.911187 47.215975,39.413727 z"
         style="opacity:0.22784807;fill:url(#linearGradient3339);fill-opacity:1;fill-rule:evenodd;stroke:none;stroke-width:1px;stroke-linecap:round;stroke-linejoin:round;marker:none;marker-start:none;marker-mid:none;marker-end:none;stroke-miterlimit:4;stroke-dasharray:none;stroke-dashoffset:0;stroke-opacity:1;visibility:visible;display:inline;overflow:visible" />
    </g>
    <text
       id="text3325"
       y="11.995287"
       x="23.365107"
       style="font-size:5.0959425px;font-style:normal;font-weight:normal;fill:#000000;fill-opacity:1;stroke:none;stroke-width:1px;stroke-linecap:butt;stroke-linejoin:miter;stroke-opacity:1;font-family:Bitstream Vera Sans"
       xml:space="preserve"><tspan
         y="11.995287"
         x="23.365107"
         id="tspan3327"
         sodipodi:role="line">Fulana</tspan></text>
    <rect
       ry="2.5538051"
       rx="2.5932436"
       y="11.568966"
       x="2.5"
       height="26.93104"
       width="41.951141"
       id="rect3249"
       style="opacity:1;fill:url(#linearGradient3251);fill-opacity:1;fill-rule:evenodd;stroke:#939393;stroke-width:1;stroke-linecap:butt;stroke-linejoin:miter;marker:none;marker-start:none;marker-mid:none;marker-end:none;stroke-miterlimit:4;stroke-dasharray:none;stroke-dashoffset:0;stroke-opacity:1;visibility:visible;display:inline;overflow:visible" />
    <rect
       style="opacity:1;fill:url(#linearGradient6738);fill-opacity:1;fill-rule:evenodd;stroke:#939393;stroke-width:1;stroke-linecap:butt;stroke-linejoin:miter;marker:none;marker-start:none;marker-mid:none;marker-end:none;stroke-miterlimit:4;stroke-dasharray:none;stroke-dashoffset:0;stroke-opacity:1;visibility:visible;display:inline;overflow:visible"
       id="rect5857"
       width="41.951141"
       height="26.93104"
       x="4.5"
       y="13.568966"
       rx="2.5932436"
       ry="2.5538051" />
    <rect
       ry="1.6148994"
       rx="1.6451368"
       y="14.57443"
       x="5.5"
       height="24.796255"
       width="39.948662"
       id="rect6740"
       style="opacity:1;fill:none;fill-opacity:1;fill-rule:evenodd;stroke:#ffffff;stroke-width:1.00000024;stroke-linecap:butt;stroke-linejoin:miter;marker:none;marker-start:none;marker-mid:none;marker-end:none;stroke-miterlimit:4;stroke-dasharray:none;stroke-dashoffset:0;stroke-opacity:1;visibility:visible;display:inline;overflow:visible" />
    <g
       id="g6935"
       transform="matrix(0.4348,0,0,0.4348,-3.359355,12.122854)">
      <path
         sodipodi:nodetypes="cczcczc"
         id="path2329"
         d="M 32.623488,41.30637 L 43.23009,41.30637 C 46.235294,41.30637 49.210574,40.204438 50.301157,37.063729 C 51.336796,34.081253 50.477934,28.401671 43.76042,23.805477 L 31.209274,23.805477 C 24.49176,28.048117 23.652283,33.850308 25.198867,37.240505 C 26.774462,40.694295 29.441507,41.30637 32.623488,41.30637 z"
         style="opacity:1;fill:url(#radialGradient6948);fill-opacity:1;fill-rule:evenodd;stroke:#404604;stroke-width:2.29990602px;stroke-linecap:round;stroke-linejoin:round;marker:none;marker-start:none;marker-mid:none;marker-end:none;stroke-miterlimit:4;stroke-dasharray:none;stroke-dashoffset:0;stroke-opacity:1;visibility:visible;display:inline;overflow:visible" />
      <path
         style="opacity:1;fill:#9db029;fill-opacity:1;fill-rule:evenodd;stroke:none;stroke-width:1px;stroke-linecap:round;stroke-linejoin:round;marker:none;marker-start:none;marker-mid:none;marker-end:none;stroke-miterlimit:4;stroke-dasharray:none;stroke-dashoffset:0;stroke-opacity:1;visibility:visible;display:inline;overflow:visible"
         d="M 37.694681,26.457128 C 37.694681,26.457128 35.543358,28.117463 35.72869,30.117661 C 33.687464,28.316867 33.628817,24.866137 33.628817,24.866137 L 37.694681,26.457128 z"
         id="path3812"
         sodipodi:nodetypes="cccc" />
      <path
         style="opacity:0.21518986;fill:none;fill-opacity:1;fill-rule:evenodd;stroke:#ffffff;stroke-width:2.29990482px;stroke-linecap:round;stroke-linejoin:round;marker:none;marker-start:none;marker-mid:none;marker-end:none;stroke-miterlimit:4;stroke-dasharray:none;stroke-dashoffset:0;stroke-opacity:1;visibility:visible;display:inline;overflow:visible"
         d="M 33.2112,39.482542 L 42.508294,39.482542 C 44.887139,39.482542 47.242296,38.610281 48.105574,36.124174 C 48.925361,33.76332 48.020214,29.267504 42.702797,25.629272 L 32.317037,25.629272 C 26.999621,28.98764 26.109819,33.58051 27.334055,36.264105 C 28.581258,38.99804 30.692423,39.482542 33.2112,39.482542 z"
         id="path3838"
         sodipodi:nodetypes="cczcczc" />
      <path
         sodipodi:nodetypes="cccc"
         id="path3810"
         d="M 38.673109,26.457128 C 38.673109,26.457128 40.824432,28.117463 40.6391,30.117661 C 42.680326,28.316867 42.738973,24.866137 42.738973,24.866137 L 38.673109,26.457128 z"
         style="opacity:1;fill:#9db029;fill-opacity:1;fill-rule:evenodd;stroke:none;stroke-width:1px;stroke-linecap:round;stroke-linejoin:round;marker:none;marker-start:none;marker-mid:none;marker-end:none;stroke-miterlimit:4;stroke-dasharray:none;stroke-dashoffset:0;stroke-opacity:1;visibility:visible;display:inline;overflow:visible" />
      <path
         transform="translate(6.512314,3.170331)"
         sodipodi:type="arc"
         style="opacity:1;fill:url(#radialGradient6950);fill-opacity:1;fill-rule:evenodd;stroke:none;stroke-width:1px;stroke-linecap:round;stroke-linejoin:round;marker:none;marker-start:none;marker-mid:none;marker-end:none;stroke-miterlimit:4;stroke-dasharray:none;stroke-dashoffset:0;stroke-opacity:1;visibility:visible;display:inline;overflow:visible"
         id="path3814"
         sodipodi:cx="31.112698"
         sodipodi:cy="19.008621"
         sodipodi:rx="8.6620579"
         sodipodi:ry="8.6620579"
         d="M 39.774755,19.008621 A 8.6620579,8.6620579 0 1 1 22.45064,19.008621 A 8.6620579,8.6620579 0 1 1 39.774755,19.008621 z" />
      <path
         transform="translate(6.637314,-0.329669)"
         d="M 39.774755,19.008621 A 8.6620579,8.6620579 0 1 1 22.45064,19.008621 A 8.6620579,8.6620579 0 1 1 39.774755,19.008621 z"
         sodipodi:ry="8.6620579"
         sodipodi:rx="8.6620579"
         sodipodi:cy="19.008621"
         sodipodi:cx="31.112698"
         id="path2327"
         style="opacity:1;fill:url(#radialGradient6952);fill-opacity:1;fill-rule:evenodd;stroke:#6f4709;stroke-width:2.29990602px;stroke-linecap:round;stroke-linejoin:round;marker:none;marker-start:none;marker-mid:none;marker-end:none;stroke-miterlimit:4;stroke-dasharray:none;stroke-dashoffset:0;stroke-opacity:1;visibility:visible;display:inline;overflow:visible"
         sodipodi:type="arc" />
      <path
         transform="matrix(0.747377,0,0,0.747377,14.49712,4.47236)"
         sodipodi:type="arc"
         style="opacity:0.12658231;fill:none;fill-opacity:1;fill-rule:evenodd;stroke:#ffffff;stroke-width:3.07730651px;stroke-linecap:round;stroke-linejoin:round;marker:none;marker-start:none;marker-mid:none;marker-end:none;stroke-miterlimit:4;stroke-dasharray:none;stroke-dashoffset:0;stroke-opacity:1;visibility:visible;display:inline;overflow:visible"
         id="path3834"
         sodipodi:cx="31.112698"
         sodipodi:cy="19.008621"
         sodipodi:rx="8.6620579"
         sodipodi:ry="8.6620579"
         d="M 39.774755,19.008621 A 8.6620579,8.6620579 0 1 1 22.45064,19.008621 A 8.6620579,8.6620579 0 1 1 39.774755,19.008621 z" />
      <path
         id="path4173"
         d="M 42.346208,33.704972 L 46.588848,33.704972 L 44.113975,31.406875 L 43.583645,32.113982 L 43.053314,31.583652 L 42.346208,33.704972 z"
         style="opacity:1;fill:url(#linearGradient6954);fill-opacity:1;fill-rule:evenodd;stroke:none;stroke-width:1px;stroke-linecap:round;stroke-linejoin:round;marker:none;marker-start:none;marker-mid:none;marker-end:none;stroke-miterlimit:4;stroke-dasharray:none;stroke-dashoffset:0;stroke-opacity:1;visibility:visible;display:inline;overflow:visible" />
      <path
         sodipodi:nodetypes="cccc"
         id="path4368"
         d="M 28.310268,40.272078 C 27.062661,39.727109 26.504274,38.413801 26.504274,38.413801 C 27.345555,34.344665 30.224199,31.367585 30.224199,31.367585 C 30.224199,31.367585 27.944878,37.779099 28.310268,40.272078 z"
         style="opacity:0.22784807;fill:url(#linearGradient6956);fill-opacity:1;fill-rule:evenodd;stroke:none;stroke-width:1px;stroke-linecap:round;stroke-linejoin:round;marker:none;marker-start:none;marker-mid:none;marker-end:none;stroke-miterlimit:4;stroke-dasharray:none;stroke-dashoffset:0;stroke-opacity:1;visibility:visible;display:inline;overflow:visible" />
      <path
         style="opacity:0.22784807;fill:url(#linearGradient6958);fill-opacity:1;fill-rule:evenodd;stroke:none;stroke-width:1px;stroke-linecap:round;stroke-linejoin:round;marker:none;marker-start:none;marker-mid:none;marker-end:none;stroke-miterlimit:4;stroke-dasharray:none;stroke-dashoffset:0;stroke-opacity:1;visibility:visible;display:inline;overflow:visible"
         d="M 47.215975,39.413727 C 48.447226,38.832749 49.020355,37.411406 49.020355,37.411406 C 48.061235,33.368423 45.044206,30.568585 45.044206,30.568585 C 45.044206,30.568585 47.508799,36.911187 47.215975,39.413727 z"
         id="path4370"
         sodipodi:nodetypes="cccc" />
    </g>
    <rect
       style="opacity:0.3976608;fill:#8d8d8d;fill-opacity:1;fill-rule:evenodd;stroke:none;stroke-width:1;stroke-linecap:butt;stroke-linejoin:miter;marker:none;marker-start:none;marker-mid:none;marker-end:none;stroke-miterlimit:4;stroke-dasharray:none;stroke-dashoffset:0;stroke-opacity:1;visibility:visible;display:inline;overflow:visible"
       id="rect6978"
       width="17.375"
       height="2"
       x="21"
       y="21.977854"
       rx="1.03125"
       ry="1.03125" />
    <rect
       ry="1.03125"
       rx="1.03125"
       y="25"
       x="21"
       height="2"
       width="14"
       id="rect6980"
       style="opacity:0.3976608;fill:#8d8d8d;fill-opacity:1;fill-rule:evenodd;stroke:none;stroke-width:1;stroke-linecap:butt;stroke-linejoin:miter;marker:none;marker-start:none;marker-mid:none;marker-end:none;stroke-miterlimit:4;stroke-dasharray:none;stroke-dashoffset:0;stroke-opacity:1;visibility:visible;display:inline;overflow:visible" />
    <g
       id="g7033"
       transform="matrix(1,0,0,0.833333,1,7.00001)"
       style="opacity:0.48538011">
      <rect
         ry="0"
         rx="0"
         y="30"
         x="6"
         height="6"
         width="1"
         id="rect7003"
         style="opacity:1;fill:#000000;fill-opacity:1;fill-rule:evenodd;stroke:none;stroke-width:1;stroke-linecap:butt;stroke-linejoin:miter;marker:none;marker-start:none;marker-mid:none;marker-end:none;stroke-miterlimit:4;stroke-dasharray:none;stroke-dashoffset:0;stroke-opacity:1;visibility:visible;display:inline;overflow:visible" />
      <rect
         style="opacity:1;fill:#000000;fill-opacity:1;fill-rule:evenodd;stroke:none;stroke-width:1;stroke-linecap:butt;stroke-linejoin:miter;marker:none;marker-start:none;marker-mid:none;marker-end:none;stroke-miterlimit:4;stroke-dasharray:none;stroke-dashoffset:0;stroke-opacity:1;visibility:visible;display:inline;overflow:visible"
         id="rect7005"
         width="1.9375"
         height="3.6000135"
         x="8.0846453"
         y="30"
         rx="0"
         ry="0" />
      <rect
         y="30"
         x="11"
         height="3.6000135"
         width="1"
         id="rect7007"
         style="opacity:1;fill:#000000;fill-opacity:1;fill-rule:evenodd;stroke:none;stroke-width:1;stroke-linecap:butt;stroke-linejoin:miter;marker:none;marker-start:none;marker-mid:none;marker-end:none;stroke-miterlimit:4;stroke-dasharray:none;stroke-dashoffset:0;stroke-opacity:1;visibility:visible;display:inline;overflow:visible" />
      <rect
         y="30"
         x="13"
         height="3.6000135"
         width="2"
         id="rect7009"
         style="opacity:1;fill:#000000;fill-opacity:1;fill-rule:evenodd;stroke:none;stroke-width:1;stroke-linecap:butt;stroke-linejoin:miter;marker:none;marker-start:none;marker-mid:none;marker-end:none;stroke-miterlimit:4;stroke-dasharray:none;stroke-dashoffset:0;stroke-opacity:1;visibility:visible;display:inline;overflow:visible" />
      <rect
         y="30"
         x="16"
         height="3.6000135"
         width="1"
         id="rect7011"
         style="opacity:1;fill:#000000;fill-opacity:1;fill-rule:evenodd;stroke:none;stroke-width:1;stroke-linecap:butt;stroke-linejoin:miter;marker:none;marker-start:none;marker-mid:none;marker-end:none;stroke-miterlimit:4;stroke-dasharray:none;stroke-dashoffset:0;stroke-opacity:1;visibility:visible;display:inline;overflow:visible" />
      <rect
         y="30"
         x="18"
         height="3.6000135"
         width="1"
         id="rect7013"
         style="opacity:1;fill:#000000;fill-opacity:1;fill-rule:evenodd;stroke:none;stroke-width:1;stroke-linecap:butt;stroke-linejoin:miter;marker:none;marker-start:none;marker-mid:none;marker-end:none;stroke-miterlimit:4;stroke-dasharray:none;stroke-dashoffset:0;stroke-opacity:1;visibility:visible;display:inline;overflow:visible" />
      <rect
         y="30"
         x="21"
         height="3.6000135"
         width="1"
         id="rect7015"
         style="opacity:1;fill:#000000;fill-opacity:1;fill-rule:evenodd;stroke:none;stroke-width:1;stroke-linecap:butt;stroke-linejoin:miter;marker:none;marker-start:none;marker-mid:none;marker-end:none;stroke-miterlimit:4;stroke-dasharray:none;stroke-dashoffset:0;stroke-opacity:1;visibility:visible;display:inline;overflow:visible" />
      <rect
         y="30"
         x="23"
         height="3.6000135"
         width="2"
         id="rect7017"
         style="opacity:1;fill:#000000;fill-opacity:1;fill-rule:evenodd;stroke:none;stroke-width:1;stroke-linecap:butt;stroke-linejoin:miter;marker:none;marker-start:none;marker-mid:none;marker-end:none;stroke-miterlimit:4;stroke-dasharray:none;stroke-dashoffset:0;stroke-opacity:1;visibility:visible;display:inline;overflow:visible" />
      <rect
         y="30"
         x="26"
         height="3.6000135"
         width="2"
         id="rect7019"
         style="opacity:1;fill:#000000;fill-opacity:1;fill-rule:evenodd;stroke:none;stroke-width:1;stroke-linecap:butt;stroke-linejoin:miter;marker:none;marker-start:none;marker-mid:none;marker-end:none;stroke-miterlimit:4;stroke-dasharray:none;stroke-dashoffset:0;stroke-opacity:1;visibility:visible;display:inline;overflow:visible" />
      <rect
         y="30"
         x="29"
         height="3.6000135"
         width="1"
         id="rect7021"
         style="opacity:1;fill:#000000;fill-opacity:1;fill-rule:evenodd;stroke:none;stroke-width:1;stroke-linecap:butt;stroke-linejoin:miter;marker:none;marker-start:none;marker-mid:none;marker-end:none;stroke-miterlimit:4;stroke-dasharray:none;stroke-dashoffset:0;stroke-opacity:1;visibility:visible;display:inline;overflow:visible" />
      <rect
         y="30"
         x="31"
         height="3.6000135"
         width="1"
         id="rect7023"
         style="opacity:1;fill:#000000;fill-opacity:1;fill-rule:evenodd;stroke:none;stroke-width:1;stroke-linecap:butt;stroke-linejoin:miter;marker:none;marker-start:none;marker-mid:none;marker-end:none;stroke-miterlimit:4;stroke-dasharray:none;stroke-dashoffset:0;stroke-opacity:1;visibility:visible;display:inline;overflow:visible" />
      <rect
         y="30"
         x="33"
         height="3.6000135"
         width="1"
         id="rect7025"
         style="opacity:1;fill:#000000;fill-opacity:1;fill-rule:evenodd;stroke:none;stroke-width:1;stroke-linecap:butt;stroke-linejoin:miter;marker:none;marker-start:none;marker-mid:none;marker-end:none;stroke-miterlimit:4;stroke-dasharray:none;stroke-dashoffset:0;stroke-opacity:1;visibility:visible;display:inline;overflow:visible" />
      <rect
         y="30"
         x="35"
         height="3.6000135"
         width="2"
         id="rect7027"
         style="opacity:1;fill:#000000;fill-opacity:1;fill-rule:evenodd;stroke:none;stroke-width:1;stroke-linecap:butt;stroke-linejoin:miter;marker:none;marker-start:none;marker-mid:none;marker-end:none;stroke-miterlimit:4;stroke-dasharray:none;stroke-dashoffset:0;stroke-opacity:1;visibility:visible;display:inline;overflow:visible" />
      <rect
         y="30"
         x="39"
         height="3.6000135"
         width="2"
         id="rect7029"
         style="opacity:1;fill:#000000;fill-opacity:1;fill-rule:evenodd;stroke:none;stroke-width:1;stroke-linecap:butt;stroke-linejoin:miter;marker:none;marker-start:none;marker-mid:none;marker-end:none;stroke-miterlimit:4;stroke-dasharray:none;stroke-dashoffset:0;stroke-opacity:1;visibility:visible;display:inline;overflow:visible" />
      <rect
         y="30"
         x="42"
         height="6"
         width="1"
         id="rect7031"
         style="opacity:1;fill:#000000;fill-opacity:1;fill-rule:evenodd;stroke:none;stroke-width:1;stroke-linecap:butt;stroke-linejoin:miter;marker:none;marker-start:none;marker-mid:none;marker-end:none;stroke-miterlimit:4;stroke-dasharray:none;stroke-dashoffset:0;stroke-opacity:1;visibility:visible;display:inline;overflow:visible" />
    </g>
    <path
       style="font-size:1.58812129px;font-style:normal;font-variant:normal;font-weight:normal;font-stretch:normal;line-height:120.00000477%;writing-mode:lr-tb;text-anchor:start;fill:#000000;fill-opacity:1;stroke:none;stroke-width:1pt;stroke-linecap:butt;stroke-linejoin:miter;stroke-opacity:1;font-family:Bitstream Vera Sans"
       d="M 9.9374916,36.398207 C 10.012451,36.414234 10.070868,36.447578 10.112743,36.49824 C 10.155134,36.548903 10.176329,36.611456 10.17633,36.685899 C 10.176329,36.800149 10.13704,36.88855 10.058462,36.951103 C 9.9798816,37.013656 9.8682176,37.044932 9.7234666,37.044932 C 9.6748716,37.044932 9.6247256,37.040021 9.5730296,37.030199 C 9.5218496,37.020893 9.4688606,37.006677 9.4140626,36.987549 L 9.4140626,36.836336 C 9.4574876,36.861668 9.5050486,36.880796 9.5567456,36.89372 C 9.6084416,36.906644 9.6624646,36.913106 9.7188146,36.913106 C 9.8170376,36.913106 9.8917386,36.89372 9.9429196,36.854947 C 9.9946156,36.816175 10.020464,36.759825 10.020465,36.685899 C 10.020464,36.61766 9.9964246,36.564412 9.9483476,36.526156 C 9.9007856,36.487384 9.8343556,36.467998 9.7490566,36.467998 L 9.6141286,36.467998 L 9.6141286,36.339273 L 9.7552606,36.339273 C 9.8322876,36.339274 9.8912216,36.324023 9.9320626,36.293521 C 9.9729026,36.262504 9.9933226,36.218045 9.9933236,36.160144 C 9.9933226,36.100694 9.9721276,36.055201 9.9297366,36.023665 C 9.8878616,35.991614 9.8276356,35.975588 9.7490566,35.975587 C 9.7061486,35.975588 9.6601386,35.980241 9.6110266,35.989545 C 9.5619146,35.998851 9.5078916,36.013327 9.4489576,36.03297 L 9.4489576,35.893389 C 9.5084086,35.876847 9.5639826,35.86444 9.6156796,35.856168 C 9.6678926,35.847897 9.7170046,35.843762 9.7630146,35.84376 C 9.8819166,35.843762 9.9760046,35.870902 10.045279,35.925183 C 10.114552,35.978948 10.149188,36.05184 10.149189,36.14386 C 10.149188,36.207964 10.130836,36.262246 10.094132,36.306704 C 10.057427,36.350647 10.005213,36.381148 9.9374916,36.398207 M 10.609031,36.890618 L 11.155724,36.890618 L 11.155724,37.022444 L 10.420597,37.022444 L 10.420597,36.890618 C 10.480048,36.829099 10.560953,36.746643 10.663313,36.643249 C 10.766189,36.539339 10.83081,36.472392 10.857176,36.442408 C 10.907321,36.386059 10.942216,36.338498 10.961862,36.299725 C 10.982023,36.260436 10.992104,36.221922 10.992104,36.184183 C 10.992104,36.122665 10.970391,36.072519 10.926967,36.033746 C 10.884058,35.994974 10.827967,35.975588 10.758693,35.975587 C 10.709581,35.975588 10.657626,35.984118 10.602828,36.001177 C 10.548546,36.018238 10.490387,36.044086 10.428351,36.078722 L 10.428351,35.92053 C 10.491421,35.8952 10.550355,35.876072 10.605154,35.863147 C 10.659952,35.850224 10.710098,35.843762 10.755591,35.84376 C 10.875528,35.843762 10.971166,35.873746 11.042509,35.933713 C 11.113849,35.993682 11.14952,36.073812 11.149521,36.174102 C 11.14952,36.221664 11.140473,36.266898 11.12238,36.309806 C 11.104802,36.352198 11.072492,36.402343 11.025449,36.460243 C 11.012524,36.475236 10.971425,36.518661 10.902152,36.590519 C 10.832878,36.66186 10.73517,36.761893 10.609031,36.890618 M 11.915665,36.001177 L 11.520186,36.61921 L 11.915665,36.61921 L 11.915665,36.001177 M 11.874566,35.864698 L 12.071531,35.864698 L 12.071531,36.61921 L 12.236701,36.61921 L 12.236701,36.749486 L 12.071531,36.749486 L 12.071531,37.022444 L 11.915665,37.022444 L 11.915665,36.749486 L 11.393012,36.749486 L 11.393012,36.598273 L 11.874566,35.864698 M 12.498028,35.864698 L 13.11296,35.864698 L 13.11296,35.996524 L 12.641486,35.996524 L 12.641486,36.280339 C 12.664232,36.272585 12.686979,36.266898 12.709726,36.263279 C 12.732472,36.259144 12.755218,36.257076 12.777965,36.257075 C 12.907206,36.257076 13.009566,36.292488 13.085043,36.363312 C 13.16052,36.434137 13.198258,36.530034 13.198259,36.651004 C 13.198258,36.775593 13.159486,36.872524 13.081942,36.941797 C 13.004396,37.010554 12.895058,37.044932 12.753926,37.044932 C 12.705331,37.044932 12.655702,37.040797 12.60504,37.032525 C 12.554894,37.024254 12.502939,37.011846 12.449175,36.995303 L 12.449175,36.837887 C 12.495701,36.863219 12.543779,36.882088 12.593408,36.894495 C 12.643037,36.906902 12.695509,36.913106 12.750825,36.913106 C 12.840259,36.913106 12.911084,36.889584 12.963298,36.84254 C 13.015511,36.795496 13.041618,36.731651 13.041618,36.651004 C 13.041618,36.570357 13.015511,36.506512 12.963298,36.459468 C 12.911084,36.412424 12.840259,36.388902 12.750825,36.388902 C 12.70895,36.388902 12.667076,36.393555 12.625202,36.40286 C 12.583844,36.412166 12.541453,36.426641 12.498028,36.446285 L 12.498028,35.864698 M 14.348251,35.967832 C 14.267604,35.967833 14.206861,36.00764 14.166021,36.087252 C 14.125697,36.166348 14.105535,36.285509 14.105535,36.444734 C 14.105535,36.603443 14.125697,36.722604 14.166021,36.802216 C 14.206861,36.881313 14.267604,36.92086 14.348251,36.92086 C 14.429414,36.92086 14.490158,36.881313 14.530482,36.802216 C 14.571322,36.722604 14.591742,36.603443 14.591743,36.444734 C 14.591742,36.285509 14.571322,36.166348 14.530482,36.087252 C 14.490158,36.00764 14.429414,35.967833 14.348251,35.967832 M 14.348251,35.84376 C 14.478009,35.843762 14.577008,35.8952 14.645249,35.998075 C 14.714004,36.100435 14.748382,36.249322 14.748383,36.444734 C 14.748382,36.639631 14.714004,36.788517 14.645249,36.891393 C 14.577008,36.993753 14.478009,37.044932 14.348251,37.044932 C 14.218492,37.044932 14.119235,36.993753 14.050479,36.891393 C 13.982239,36.788517 13.948119,36.639631 13.948119,36.444734 C 13.948119,36.249322 13.982239,36.100435 14.050479,35.998075 C 14.119235,35.8952 14.218492,35.843762 14.348251,35.84376 M 15.025994,35.864698 L 15.640926,35.864698 L 15.640926,35.996524 L 15.169453,35.996524 L 15.169453,36.280339 C 15.192199,36.272585 15.214945,36.266898 15.237692,36.263279 C 15.260438,36.259144 15.283185,36.257076 15.305932,36.257075 C 15.435173,36.257076 15.537532,36.292488 15.61301,36.363312 C 15.688486,36.434137 15.726225,36.530034 15.726226,36.651004 C 15.726225,36.775593 15.687452,36.872524 15.609908,36.941797 C 15.532363,37.010554 15.423024,37.044932 15.281893,37.044932 C 15.233298,37.044932 15.183669,37.040797 15.133007,37.032525 C 15.082861,37.024254 15.030905,37.011846 14.977141,36.995303 L 14.977141,36.837887 C 15.023668,36.863219 15.071746,36.882088 15.121375,36.894495 C 15.171003,36.906902 15.223475,36.913106 15.278791,36.913106 C 15.368226,36.913106 15.43905,36.889584 15.491264,36.84254 C 15.543477,36.795496 15.569584,36.731651 15.569585,36.651004 C 15.569584,36.570357 15.543477,36.506512 15.491264,36.459468 C 15.43905,36.412424 15.368226,36.388902 15.278791,36.388902 C 15.236916,36.388902 15.195042,36.393555 15.153168,36.40286 C 15.111811,36.412166 15.069419,36.426641 15.025994,36.446285 L 15.025994,35.864698 M 16.037181,35.864698 L 16.652113,35.864698 L 16.652113,35.996524 L 16.180639,35.996524 L 16.180639,36.280339 C 16.203385,36.272585 16.226132,36.266898 16.248879,36.263279 C 16.271625,36.259144 16.294371,36.257076 16.317118,36.257075 C 16.44636,36.257076 16.548719,36.292488 16.624197,36.363312 C 16.699673,36.434137 16.737411,36.530034 16.737412,36.651004 C 16.737411,36.775593 16.698639,36.872524 16.621095,36.941797 C 16.543549,37.010554 16.434211,37.044932 16.293079,37.044932 C 16.244484,37.044932 16.194856,37.040797 16.144193,37.032525 C 16.094047,37.024254 16.042092,37.011846 15.988328,36.995303 L 15.988328,36.837887 C 16.034855,36.863219 16.082932,36.882088 16.132561,36.894495 C 16.18219,36.906902 16.234662,36.913106 16.289978,36.913106 C 16.379412,36.913106 16.450237,36.889584 16.502451,36.84254 C 16.554664,36.795496 16.580771,36.731651 16.580771,36.651004 C 16.580771,36.570357 16.554664,36.506512 16.502451,36.459468 C 16.450237,36.412424 16.379412,36.388902 16.289978,36.388902 C 16.248103,36.388902 16.206229,36.393555 16.164355,36.40286 C 16.122997,36.412166 16.080606,36.426641 16.037181,36.446285 L 16.037181,35.864698 M 17.007269,35.864698 L 17.751701,35.864698 L 17.751701,35.931386 L 17.331407,37.022444 L 17.167787,37.022444 L 17.563266,35.996524 L 17.007269,35.996524 L 17.007269,35.864698 M 18.565148,35.864698 L 19.180079,35.864698 L 19.180079,35.996524 L 18.708606,35.996524 L 18.708606,36.280339 C 18.731352,36.272585 18.754098,36.266898 18.776845,36.263279 C 18.799591,36.259144 18.822338,36.257076 18.845085,36.257075 C 18.974326,36.257076 19.076685,36.292488 19.152163,36.363312 C 19.227639,36.434137 19.265378,36.530034 19.265379,36.651004 C 19.265378,36.775593 19.226605,36.872524 19.149061,36.941797 C 19.071516,37.010554 18.962177,37.044932 18.821046,37.044932 C 18.772451,37.044932 18.722822,37.040797 18.67216,37.032525 C 18.622014,37.024254 18.570059,37.011846 18.516294,36.995303 L 18.516294,36.837887 C 18.562821,36.863219 18.610899,36.882088 18.660528,36.894495 C 18.710156,36.906902 18.762628,36.913106 18.817944,36.913106 C 18.907379,36.913106 18.978203,36.889584 19.030417,36.84254 C 19.08263,36.795496 19.108737,36.731651 19.108738,36.651004 C 19.108737,36.570357 19.08263,36.506512 19.030417,36.459468 C 18.978203,36.412424 18.907379,36.388902 18.817944,36.388902 C 18.77607,36.388902 18.734195,36.393555 18.692321,36.40286 C 18.650964,36.412166 18.608573,36.426641 18.565148,36.446285 L 18.565148,35.864698 M 19.601924,36.890618 L 19.857822,36.890618 L 19.857822,36.00738 L 19.579436,36.063213 L 19.579436,35.92053 L 19.856272,35.864698 L 20.012912,35.864698 L 20.012912,36.890618 L 20.268811,36.890618 L 20.268811,37.022444 L 19.601924,37.022444 L 19.601924,36.890618 M 20.920964,35.967832 C 20.840317,35.967833 20.779573,36.00764 20.738733,36.087252 C 20.69841,36.166348 20.678248,36.285509 20.678248,36.444734 C 20.678248,36.603443 20.69841,36.722604 20.738733,36.802216 C 20.779573,36.881313 20.840317,36.92086 20.920964,36.92086 C 21.002127,36.92086 21.062871,36.881313 21.103195,36.802216 C 21.144035,36.722604 21.164455,36.603443 21.164455,36.444734 C 21.164455,36.285509 21.144035,36.166348 21.103195,36.087252 C 21.062871,36.00764 21.002127,35.967833 20.920964,35.967832 M 20.920964,35.84376 C 21.050722,35.843762 21.149721,35.8952 21.217961,35.998075 C 21.286717,36.100435 21.321095,36.249322 21.321096,36.444734 C 21.321095,36.639631 21.286717,36.788517 21.217961,36.891393 C 21.149721,36.993753 21.050722,37.044932 20.920964,37.044932 C 20.791205,37.044932 20.691948,36.993753 20.623191,36.891393 C 20.554952,36.788517 20.520832,36.639631 20.520832,36.444734 C 20.520832,36.249322 20.554952,36.100435 20.623191,35.998075 C 20.691948,35.8952 20.791205,35.843762 20.920964,35.84376 M 21.951537,36.381147 C 21.881229,36.381148 21.825397,36.405187 21.78404,36.453264 C 21.743199,36.501342 21.722779,36.567256 21.722779,36.651004 C 21.722779,36.734236 21.743199,36.800149 21.78404,36.848743 C 21.825397,36.896821 21.881229,36.92086 21.951537,36.92086 C 22.021844,36.92086 22.077418,36.896821 22.118259,36.848743 C 22.159615,36.800149 22.180294,36.734236 22.180295,36.651004 C 22.180294,36.567256 22.159615,36.501342 22.118259,36.453264 C 22.077418,36.405187 22.021844,36.381148 21.951537,36.381147 M 22.262492,35.890287 L 22.262492,36.03297 C 22.223202,36.01436 22.183396,36.000144 22.143073,35.99032 C 22.103266,35.980499 22.063718,35.975588 22.024429,35.975587 C 21.921036,35.975588 21.84194,36.010483 21.787142,36.080273 C 21.73286,36.150064 21.701842,36.255525 21.694088,36.396656 C 21.724588,36.351681 21.762844,36.317303 21.808854,36.293521 C 21.854864,36.269225 21.905527,36.257076 21.960842,36.257075 C 22.077159,36.257076 22.168921,36.292488 22.236127,36.363312 C 22.303849,36.43362 22.33771,36.529517 22.337711,36.651004 C 22.33771,36.769906 22.302556,36.865287 22.23225,36.937145 C 22.161942,37.009003 22.068371,37.044932 21.951537,37.044932 C 21.817642,37.044932 21.715283,36.993753 21.644459,36.891393 C 21.573634,36.788517 21.538222,36.639631 21.538222,36.444734 C 21.538222,36.261729 21.581647,36.115944 21.668498,36.00738 C 21.755348,35.898302 21.871924,35.843762 22.018226,35.84376 C 22.057515,35.843762 22.097062,35.847639 22.13687,35.855392 C 22.177192,35.863148 22.219066,35.87478 22.262492,35.890287 M 23.115487,35.864698 L 23.730419,35.864698 L 23.730419,35.996524 L 23.258945,35.996524 L 23.258945,36.280339 C 23.281692,36.272585 23.304438,36.266898 23.327185,36.263279 C 23.349931,36.259144 23.372678,36.257076 23.395425,36.257075 C 23.524666,36.257076 23.627025,36.292488 23.702503,36.363312 C 23.777979,36.434137 23.815718,36.530034 23.815718,36.651004 C 23.815718,36.775593 23.776945,36.872524 23.699401,36.941797 C 23.621855,37.010554 23.512517,37.044932 23.371386,37.044932 C 23.32279,37.044932 23.273162,37.040797 23.222499,37.032525 C 23.172353,37.024254 23.120398,37.011846 23.066634,36.995303 L 23.066634,36.837887 C 23.113161,36.863219 23.161239,36.882088 23.210868,36.894495 C 23.260496,36.906902 23.312968,36.913106 23.368284,36.913106 C 23.457719,36.913106 23.528543,36.889584 23.580757,36.84254 C 23.63297,36.795496 23.659077,36.731651 23.659078,36.651004 C 23.659077,36.570357 23.63297,36.506512 23.580757,36.459468 C 23.528543,36.412424 23.457719,36.388902 23.368284,36.388902 C 23.326409,36.388902 23.284535,36.393555 23.242661,36.40286 C 23.201303,36.412166 23.158912,36.426641 23.115487,36.446285 L 23.115487,35.864698 M 24.555498,36.001177 L 24.160018,36.61921 L 24.555498,36.61921 L 24.555498,36.001177 M 24.514399,35.864698 L 24.711363,35.864698 L 24.711363,36.61921 L 24.876534,36.61921 L 24.876534,36.749486 L 24.711363,36.749486 L 24.711363,37.022444 L 24.555498,37.022444 L 24.555498,36.749486 L 24.032844,36.749486 L 24.032844,36.598273 L 24.514399,35.864698 M 25.471304,35.967832 C 25.390657,35.967833 25.329913,36.00764 25.289073,36.087252 C 25.248749,36.166348 25.228588,36.285509 25.228588,36.444734 C 25.228588,36.603443 25.248749,36.722604 25.289073,36.802216 C 25.329913,36.881313 25.390657,36.92086 25.471304,36.92086 C 25.552467,36.92086 25.613211,36.881313 25.653535,36.802216 C 25.694374,36.722604 25.714794,36.603443 25.714795,36.444734 C 25.714794,36.285509 25.694374,36.166348 25.653535,36.087252 C 25.613211,36.00764 25.552467,35.967833 25.471304,35.967832 M 25.471304,35.84376 C 25.601062,35.843762 25.700061,35.8952 25.768301,35.998075 C 25.837057,36.100435 25.871435,36.249322 25.871436,36.444734 C 25.871435,36.639631 25.837057,36.788517 25.768301,36.891393 C 25.700061,36.993753 25.601062,37.044932 25.471304,37.044932 C 25.341545,37.044932 25.242287,36.993753 25.173531,36.891393 C 25.105291,36.788517 25.071172,36.639631 25.071172,36.444734 C 25.071172,36.249322 25.105291,36.100435 25.173531,35.998075 C 25.242287,35.8952 25.341545,35.843762 25.471304,35.84376 M 26.501876,36.381147 C 26.431568,36.381148 26.375736,36.405187 26.334379,36.453264 C 26.293538,36.501342 26.273118,36.567256 26.273118,36.651004 C 26.273118,36.734236 26.293538,36.800149 26.334379,36.848743 C 26.375736,36.896821 26.431568,36.92086 26.501876,36.92086 C 26.572183,36.92086 26.627756,36.896821 26.668597,36.848743 C 26.709954,36.800149 26.730633,36.734236 26.730633,36.651004 C 26.730633,36.567256 26.709954,36.501342 26.668597,36.453264 C 26.627756,36.405187 26.572183,36.381148 26.501876,36.381147 M 26.812831,35.890287 L 26.812831,36.03297 C 26.773541,36.01436 26.733735,36.000144 26.693412,35.99032 C 26.653605,35.980499 26.614057,35.975588 26.574768,35.975587 C 26.471374,35.975588 26.392278,36.010483 26.33748,36.080273 C 26.283199,36.150064 26.252181,36.255525 26.244426,36.396656 C 26.274927,36.351681 26.313183,36.317303 26.359193,36.293521 C 26.405203,36.269225 26.455865,36.257076 26.511181,36.257075 C 26.627498,36.257076 26.719259,36.292488 26.786466,36.363312 C 26.854188,36.43362 26.888049,36.529517 26.88805,36.651004 C 26.888049,36.769906 26.852895,36.865287 26.782589,36.937145 C 26.71228,37.009003 26.61871,37.044932 26.501876,37.044932 C 26.367981,37.044932 26.265622,36.993753 26.194798,36.891393 C 26.123973,36.788517 26.088561,36.639631 26.088561,36.444734 C 26.088561,36.261729 26.131986,36.115944 26.218837,36.00738 C 26.305687,35.898302 26.422262,35.843762 26.568564,35.84376 C 26.607853,35.843762 26.647401,35.847639 26.687208,35.855392 C 26.727531,35.863148 26.769405,35.87478 26.812831,35.890287 M 27.665827,35.864698 L 28.280759,35.864698 L 28.280759,35.996524 L 27.809285,35.996524 L 27.809285,36.280339 C 27.832031,36.272585 27.854778,36.266898 27.877525,36.263279 C 27.900271,36.259144 27.923017,36.257076 27.945764,36.257075 C 28.075005,36.257076 28.177365,36.292488 28.252842,36.363312 C 28.328319,36.434137 28.366057,36.530034 28.366058,36.651004 C 28.366057,36.775593 28.327285,36.872524 28.249741,36.941797 C 28.172195,37.010554 28.062857,37.044932 27.921725,37.044932 C 27.87313,37.044932 27.823501,37.040797 27.772839,37.032525 C 27.722693,37.024254 27.670738,37.011846 27.616974,36.995303 L 27.616974,36.837887 C 27.6635,36.863219 27.711578,36.882088 27.761207,36.894495 C 27.810836,36.906902 27.863308,36.913106 27.918624,36.913106 C 28.008058,36.913106 28.078883,36.889584 28.131097,36.84254 C 28.18331,36.795496 28.209417,36.731651 28.209417,36.651004 C 28.209417,36.570357 28.18331,36.506512 28.131097,36.459468 C 28.078883,36.412424 28.008058,36.388902 27.918624,36.388902 C 27.876749,36.388902 27.834875,36.393555 27.793001,36.40286 C 27.751643,36.412166 27.709252,36.426641 27.665827,36.446285 L 27.665827,35.864698 M 29.105837,36.001177 L 28.710358,36.61921 L 29.105837,36.61921 L 29.105837,36.001177 M 29.064738,35.864698 L 29.261703,35.864698 L 29.261703,36.61921 L 29.426874,36.61921 L 29.426874,36.749486 L 29.261703,36.749486 L 29.261703,37.022444 L 29.105837,37.022444 L 29.105837,36.749486 L 28.583184,36.749486 L 28.583184,36.598273 L 29.064738,35.864698 M 30.04103,36.381147 C 29.970722,36.381148 29.91489,36.405187 29.873533,36.453264 C 29.832692,36.501342 29.812272,36.567256 29.812272,36.651004 C 29.812272,36.734236 29.832692,36.800149 29.873533,36.848743 C 29.91489,36.896821 29.970722,36.92086 30.04103,36.92086 C 30.111337,36.92086 30.166911,36.896821 30.207752,36.848743 C 30.249108,36.800149 30.269787,36.734236 30.269788,36.651004 C 30.269787,36.567256 30.249108,36.501342 30.207752,36.453264 C 30.166911,36.405187 30.111337,36.381148 30.04103,36.381147 M 30.351985,35.890287 L 30.351985,36.03297 C 30.312695,36.01436 30.272889,36.000144 30.232566,35.99032 C 30.192759,35.980499 30.153211,35.975588 30.113922,35.975587 C 30.010528,35.975588 29.931432,36.010483 29.876634,36.080273 C 29.822353,36.150064 29.791335,36.255525 29.78358,36.396656 C 29.814081,36.351681 29.852337,36.317303 29.898347,36.293521 C 29.944357,36.269225 29.995019,36.257076 30.050335,36.257075 C 30.166652,36.257076 30.258414,36.292488 30.32562,36.363312 C 30.393342,36.43362 30.427203,36.529517 30.427204,36.651004 C 30.427203,36.769906 30.392049,36.865287 30.321743,36.937145 C 30.251434,37.009003 30.157864,37.044932 30.04103,37.044932 C 29.907135,37.044932 29.804776,36.993753 29.733952,36.891393 C 29.663127,36.788517 29.627715,36.639631 29.627715,36.444734 C 29.627715,36.261729 29.67114,36.115944 29.757991,36.00738 C 29.844841,35.898302 29.961417,35.843762 30.107719,35.84376 C 30.147007,35.843762 30.186555,35.847639 30.226362,35.855392 C 30.266685,35.863148 30.308559,35.87478 30.351985,35.890287 M 30.699387,35.864698 L 31.314318,35.864698 L 31.314318,35.996524 L 30.842845,35.996524 L 30.842845,36.280339 C 30.865591,36.272585 30.888338,36.266898 30.911085,36.263279 C 30.933831,36.259144 30.956577,36.257076 30.979324,36.257075 C 31.108565,36.257076 31.210924,36.292488 31.286402,36.363312 C 31.361879,36.434137 31.399617,36.530034 31.399618,36.651004 C 31.399617,36.775593 31.360845,36.872524 31.2833,36.941797 C 31.205755,37.010554 31.096416,37.044932 30.955285,37.044932 C 30.90669,37.044932 30.857061,37.040797 30.806399,37.032525 C 30.756253,37.024254 30.704298,37.011846 30.650533,36.995303 L 30.650533,36.837887 C 30.69706,36.863219 30.745138,36.882088 30.794767,36.894495 C 30.844396,36.906902 30.896868,36.913106 30.952183,36.913106 C 31.041618,36.913106 31.112442,36.889584 31.164657,36.84254 C 31.21687,36.795496 31.242976,36.731651 31.242977,36.651004 C 31.242976,36.570357 31.21687,36.506512 31.164657,36.459468 C 31.112442,36.412424 31.041618,36.388902 30.952183,36.388902 C 30.910309,36.388902 30.868434,36.393555 30.826561,36.40286 C 30.785203,36.412166 30.742812,36.426641 30.699387,36.446285 L 30.699387,35.864698 M 32.175067,35.864698 L 32.919499,35.864698 L 32.919499,35.931386 L 32.499205,37.022444 L 32.335585,37.022444 L 32.731064,35.996524 L 32.175067,35.996524 L 32.175067,35.864698 M 33.560798,35.967832 C 33.48015,35.967833 33.419407,36.00764 33.378567,36.087252 C 33.338243,36.166348 33.318082,36.285509 33.318082,36.444734 C 33.318082,36.603443 33.338243,36.722604 33.378567,36.802216 C 33.419407,36.881313 33.48015,36.92086 33.560798,36.92086 C 33.641961,36.92086 33.702704,36.881313 33.743028,36.802216 C 33.783868,36.722604 33.804288,36.603443 33.804289,36.444734 C 33.804288,36.285509 33.783868,36.166348 33.743028,36.087252 C 33.702704,36.00764 33.641961,35.967833 33.560798,35.967832 M 33.560798,35.84376 C 33.690556,35.843762 33.789555,35.8952 33.857795,35.998075 C 33.926551,36.100435 33.960929,36.249322 33.96093,36.444734 C 33.960929,36.639631 33.926551,36.788517 33.857795,36.891393 C 33.789555,36.993753 33.690556,37.044932 33.560798,37.044932 C 33.431039,37.044932 33.331781,36.993753 33.263025,36.891393 C 33.194785,36.788517 33.160665,36.639631 33.160666,36.444734 C 33.160665,36.249322 33.194785,36.100435 33.263025,35.998075 C 33.331781,35.8952 33.431039,35.843762 33.560798,35.84376 M 34.591369,36.381147 C 34.521061,36.381148 34.465228,36.405187 34.423871,36.453264 C 34.383031,36.501342 34.362611,36.567256 34.362611,36.651004 C 34.362611,36.734236 34.383031,36.800149 34.423871,36.848743 C 34.465228,36.896821 34.521061,36.92086 34.591369,36.92086 C 34.661675,36.92086 34.717249,36.896821 34.75809,36.848743 C 34.799447,36.800149 34.820126,36.734236 34.820126,36.651004 C 34.820126,36.567256 34.799447,36.501342 34.75809,36.453264 C 34.717249,36.405187 34.661675,36.381148 34.591369,36.381147 M 34.902324,35.890287 L 34.902324,36.03297 C 34.863034,36.01436 34.823227,36.000144 34.782905,35.99032 C 34.743098,35.980499 34.70355,35.975588 34.664261,35.975587 C 34.560867,35.975588 34.481771,36.010483 34.426973,36.080273 C 34.372691,36.150064 34.341673,36.255525 34.333919,36.396656 C 34.36442,36.351681 34.402675,36.317303 34.448686,36.293521 C 34.494695,36.269225 34.545358,36.257076 34.600674,36.257075 C 34.716991,36.257076 34.808752,36.292488 34.875959,36.363312 C 34.94368,36.43362 34.977542,36.529517 34.977543,36.651004 C 34.977542,36.769906 34.942388,36.865287 34.872081,36.937145 C 34.801773,37.009003 34.708202,37.044932 34.591369,37.044932 C 34.457474,37.044932 34.355115,36.993753 34.28429,36.891393 C 34.213466,36.788517 34.178054,36.639631 34.178054,36.444734 C 34.178054,36.261729 34.221479,36.115944 34.308329,36.00738 C 34.395179,35.898302 34.511755,35.843762 34.658057,35.84376 C 34.697346,35.843762 34.736894,35.847639 34.776701,35.855392 C 34.817024,35.863148 34.858898,35.87478 34.902324,35.890287 M 35.249727,35.864698 L 35.864659,35.864698 L 35.864659,35.996524 L 35.393186,35.996524 L 35.393186,36.280339 C 35.415932,36.272585 35.438678,36.266898 35.461425,36.263279 C 35.484171,36.259144 35.506918,36.257076 35.529665,36.257075 C 35.658906,36.257076 35.761265,36.292488 35.836743,36.363312 C 35.912219,36.434137 35.949958,36.530034 35.949959,36.651004 C 35.949958,36.775593 35.911185,36.872524 35.833641,36.941797 C 35.756095,37.010554 35.646757,37.044932 35.505626,37.044932 C 35.457031,37.044932 35.407402,37.040797 35.356739,37.032525 C 35.306593,37.024254 35.254638,37.011846 35.200874,36.995303 L 35.200874,36.837887 C 35.247401,36.863219 35.295479,36.882088 35.345108,36.894495 C 35.394736,36.906902 35.447208,36.913106 35.502524,36.913106 C 35.591959,36.913106 35.662783,36.889584 35.714997,36.84254 C 35.76721,36.795496 35.793317,36.731651 35.793318,36.651004 C 35.793317,36.570357 35.76721,36.506512 35.714997,36.459468 C 35.662783,36.412424 35.591959,36.388902 35.502524,36.388902 C 35.460649,36.388902 35.418775,36.393555 35.376901,36.40286 C 35.335544,36.412166 35.293152,36.426641 35.249727,36.446285 L 35.249727,35.864698 M 36.725407,35.864698 L 37.469839,35.864698 L 37.469839,35.931386 L 37.049546,37.022444 L 36.885926,37.022444 L 37.281405,35.996524 L 36.725407,35.996524 L 36.725407,35.864698 M 38.130523,36.381147 C 38.060215,36.381148 38.004382,36.405187 37.963025,36.453264 C 37.922185,36.501342 37.901765,36.567256 37.901765,36.651004 C 37.901765,36.734236 37.922185,36.800149 37.963025,36.848743 C 38.004382,36.896821 38.060215,36.92086 38.130523,36.92086 C 38.200829,36.92086 38.256403,36.896821 38.297244,36.848743 C 38.338601,36.800149 38.35928,36.734236 38.35928,36.651004 C 38.35928,36.567256 38.338601,36.501342 38.297244,36.453264 C 38.256403,36.405187 38.200829,36.381148 38.130523,36.381147 M 38.441478,35.890287 L 38.441478,36.03297 C 38.402188,36.01436 38.362381,36.000144 38.322059,35.99032 C 38.282252,35.980499 38.242704,35.975588 38.203415,35.975587 C 38.100021,35.975588 38.020925,36.010483 37.966127,36.080273 C 37.911845,36.150064 37.880827,36.255525 37.873073,36.396656 C 37.903574,36.351681 37.941829,36.317303 37.98784,36.293521 C 38.033849,36.269225 38.084512,36.257076 38.139828,36.257075 C 38.256145,36.257076 38.347906,36.292488 38.415113,36.363312 C 38.482834,36.43362 38.516696,36.529517 38.516697,36.651004 C 38.516696,36.769906 38.481542,36.865287 38.411235,36.937145 C 38.340927,37.009003 38.247356,37.044932 38.130523,37.044932 C 37.996628,37.044932 37.894269,36.993753 37.823444,36.891393 C 37.75262,36.788517 37.717208,36.639631 37.717208,36.444734 C 37.717208,36.261729 37.760633,36.115944 37.847483,36.00738 C 37.934333,35.898302 38.050909,35.843762 38.197211,35.84376 C 38.2365,35.843762 38.276048,35.847639 38.315855,35.855392 C 38.356178,35.863148 38.398052,35.87478 38.441478,35.890287 M 38.747781,35.864698 L 39.492213,35.864698 L 39.492213,35.931386 L 39.071919,37.022444 L 38.908299,37.022444 L 39.303778,35.996524 L 38.747781,35.996524 L 38.747781,35.864698 M 39.803168,36.998405 L 39.803168,36.855723 C 39.842457,36.874333 39.882264,36.88855 39.922587,36.898372 C 39.96291,36.908195 40.002458,36.913106 40.041231,36.913106 C 40.144624,36.913106 40.223461,36.878469 40.277743,36.809196 C 40.332541,36.739405 40.363817,36.633686 40.371573,36.492037 C 40.341588,36.536496 40.303591,36.570616 40.257582,36.594396 C 40.211571,36.618177 40.16065,36.630067 40.104818,36.630067 C 39.989017,36.630067 39.897256,36.595172 39.829533,36.525381 C 39.762327,36.455074 39.728725,36.359177 39.728725,36.237689 C 39.728725,36.118788 39.763878,36.023407 39.834186,35.951548 C 39.904493,35.879691 39.998064,35.843762 40.114899,35.84376 C 40.248792,35.843762 40.350893,35.8952 40.421201,35.998075 C 40.492025,36.100435 40.527437,36.249322 40.527438,36.444734 C 40.527437,36.627224 40.484012,36.773008 40.397163,36.882088 C 40.310828,36.990651 40.194511,37.044932 40.04821,37.044932 C 40.00892,37.044932 39.969114,37.041055 39.928791,37.033301 C 39.888467,37.025546 39.846593,37.013914 39.803168,36.998405 M 40.114899,36.507546 C 40.185206,36.507546 40.24078,36.483507 40.28162,36.435429 C 40.322977,36.387351 40.343656,36.321438 40.343656,36.237689 C 40.343656,36.154458 40.322977,36.088804 40.28162,36.040725 C 40.24078,35.992131 40.185206,35.967833 40.114899,35.967832 C 40.044591,35.967833 39.988759,35.992131 39.947402,36.040725 C 39.906561,36.088804 39.886141,36.154458 39.886141,36.237689 C 39.886141,36.321438 39.906561,36.387351 39.947402,36.435429 C 39.988759,36.483507 40.044591,36.507546 40.114899,36.507546 M 40.814355,36.998405 L 40.814355,36.855723 C 40.853644,36.874333 40.89345,36.88855 40.933774,36.898372 C 40.974097,36.908195 41.013645,36.913106 41.052418,36.913106 C 41.15581,36.913106 41.234648,36.878469 41.28893,36.809196 C 41.343728,36.739405 41.375004,36.633686 41.382759,36.492037 C 41.352775,36.536496 41.314777,36.570616 41.268768,36.594396 C 41.222758,36.618177 41.171836,36.630067 41.116005,36.630067 C 41.000204,36.630067 40.908442,36.595172 40.84072,36.525381 C 40.773514,36.455074 40.739911,36.359177 40.739911,36.237689 C 40.739911,36.118788 40.775065,36.023407 40.845373,35.951548 C 40.91568,35.879691 41.009251,35.843762 41.126085,35.84376 C 41.259979,35.843762 41.36208,35.8952 41.432388,35.998075 C 41.503212,36.100435 41.538624,36.249322 41.538625,36.444734 C 41.538624,36.627224 41.495199,36.773008 41.408349,36.882088 C 41.322015,36.990651 41.205698,37.044932 41.059397,37.044932 C 41.020107,37.044932 40.9803,37.041055 40.939977,37.033301 C 40.899654,37.025546 40.85778,37.013914 40.814355,36.998405 M 41.126085,36.507546 C 41.196392,36.507546 41.251966,36.483507 41.292807,36.435429 C 41.334164,36.387351 41.354842,36.321438 41.354843,36.237689 C 41.354842,36.154458 41.334164,36.088804 41.292807,36.040725 C 41.251966,35.992131 41.196392,35.967833 41.126085,35.967832 C 41.055778,35.967833 40.999945,35.992131 40.958588,36.040725 C 40.917748,36.088804 40.897327,36.154458 40.897328,36.237689 C 40.897327,36.321438 40.917748,36.387351 40.958588,36.435429 C 40.999945,36.483507 41.055778,36.507546 41.126085,36.507546"
       id="text7050" />
    <text
       xml:space="preserve"
       style="font-size:5.0959425px;font-style:normal;font-weight:normal;fill:#000000;fill-opacity:1;stroke:none;stroke-width:1px;stroke-linecap:butt;stroke-linejoin:miter;stroke-opacity:1;font-family:Bitstream Vera Sans"
       x="20.488358"
       y="19.285151"
       id="text2461"><tspan
         sodipodi:role="line"
         id="tspan2463"
         x="20.488358"
         y="19.285151">Fulana</tspan></text>
  </g>
</svg>
